ISO-10303-21;
HEADER;
/* Generated by software containing ST-Developer
 * from STEP Tools, Inc. (www.steptools.com) 
 */

FILE_DESCRIPTION(
/* description */ ('STEP AP214'),
/* implementation_level */ '2;1');

FILE_NAME(
/* name */ 
'8982K154_Multipurpose 6061 Aluminum 90 Degree Angle_Right v3.step',
/* time_stamp */ '2025-04-29T12:17:23-07:00',
/* author */ (''),
/* organization */ (''),
/* preprocessor_version */ 'ST-DEVELOPER v20.1',
/* originating_system */ 'Autodesk Translation Framework v14.4.0.0',
/* authorisation */ '');

FILE_SCHEMA (('AUTOMOTIVE_DESIGN { 1 0 10303 214 3 1 1 }'));
ENDSEC;

DATA;
#10=MECHANICAL_DESIGN_GEOMETRIC_PRESENTATION_REPRESENTATION('',(#13),#515);
#11=SHAPE_REPRESENTATION_RELATIONSHIP('SRR','None',#525,#12);
#12=ADVANCED_BREP_SHAPE_REPRESENTATION('',(#14),#514);
#13=STYLED_ITEM('',(#535),#14);
#14=MANIFOLD_SOLID_BREP('Body1',#301);
#15=FACE_BOUND('',#59,.T.);
#16=FACE_BOUND('',#63,.T.);
#17=FACE_BOUND('',#67,.T.);
#18=FACE_BOUND('',#70,.T.);
#19=CONICAL_SURFACE('',#320,0.1335,0.785398163397449);
#20=CONICAL_SURFACE('',#326,0.1335,0.78539816339745);
#21=CIRCLE('',#319,0.09375);
#22=CIRCLE('',#321,0.1785);
#23=CIRCLE('',#322,0.0885000000000001);
#24=CIRCLE('',#324,0.0885000000000001);
#25=CIRCLE('',#327,0.1785);
#26=CIRCLE('',#328,0.0885);
#27=CIRCLE('',#330,0.0885);
#28=CIRCLE('',#334,0.0937499999999999);
#29=CIRCLE('',#335,0.0937499999999999);
#30=CIRCLE('',#338,0.125);
#31=CIRCLE('',#339,0.125);
#32=CYLINDRICAL_SURFACE('',#318,0.09375);
#33=CYLINDRICAL_SURFACE('',#323,0.0885000000000001);
#34=CYLINDRICAL_SURFACE('',#329,0.0885);
#35=CYLINDRICAL_SURFACE('',#333,0.0937499999999999);
#36=CYLINDRICAL_SURFACE('',#337,0.125);
#37=FACE_OUTER_BOUND('',#53,.T.);
#38=FACE_OUTER_BOUND('',#54,.T.);
#39=FACE_OUTER_BOUND('',#55,.T.);
#40=FACE_OUTER_BOUND('',#56,.T.);
#41=FACE_OUTER_BOUND('',#57,.T.);
#42=FACE_OUTER_BOUND('',#58,.T.);
#43=FACE_OUTER_BOUND('',#60,.T.);
#44=FACE_OUTER_BOUND('',#61,.T.);
#45=FACE_OUTER_BOUND('',#62,.T.);
#46=FACE_OUTER_BOUND('',#64,.T.);
#47=FACE_OUTER_BOUND('',#65,.T.);
#48=FACE_OUTER_BOUND('',#66,.T.);
#49=FACE_OUTER_BOUND('',#68,.T.);
#50=FACE_OUTER_BOUND('',#69,.T.);
#51=FACE_OUTER_BOUND('',#71,.T.);
#52=FACE_OUTER_BOUND('',#72,.T.);
#53=EDGE_LOOP('',(#196,#197,#198,#199,#200));
#54=EDGE_LOOP('',(#201,#202,#203,#204));
#55=EDGE_LOOP('',(#205,#206,#207,#208));
#56=EDGE_LOOP('',(#209,#210,#211,#212));
#57=EDGE_LOOP('',(#213,#214,#215,#216));
#58=EDGE_LOOP('',(#217,#218,#219,#220,#221));
#59=EDGE_LOOP('',(#222));
#60=EDGE_LOOP('',(#223,#224,#225,#226));
#61=EDGE_LOOP('',(#227,#228,#229,#230));
#62=EDGE_LOOP('',(#231,#232,#233,#234));
#63=EDGE_LOOP('',(#235));
#64=EDGE_LOOP('',(#236,#237,#238,#239));
#65=EDGE_LOOP('',(#240,#241,#242,#243));
#66=EDGE_LOOP('',(#244,#245,#246,#247));
#67=EDGE_LOOP('',(#248));
#68=EDGE_LOOP('',(#249,#250,#251,#252));
#69=EDGE_LOOP('',(#253,#254,#255,#256,#257));
#70=EDGE_LOOP('',(#258));
#71=EDGE_LOOP('',(#259,#260,#261,#262,#263,#264,#265,#266));
#72=EDGE_LOOP('',(#267,#268,#269,#270,#271,#272,#273,#274,#275));
#73=LINE('',#435,#101);
#74=LINE('',#437,#102);
#75=LINE('',#439,#103);
#76=LINE('',#440,#104);
#77=LINE('',#443,#105);
#78=LINE('',#445,#106);
#79=LINE('',#446,#107);
#80=LINE('',#449,#108);
#81=LINE('',#455,#109);
#82=LINE('',#459,#110);
#83=LINE('',#463,#111);
#84=LINE('',#465,#112);
#85=LINE('',#466,#113);
#86=LINE('',#471,#114);
#87=LINE('',#475,#115);
#88=LINE('',#479,#116);
#89=LINE('',#481,#117);
#90=LINE('',#482,#118);
#91=LINE('',#485,#119);
#92=LINE('',#487,#120);
#93=LINE('',#488,#121);
#94=LINE('',#493,#122);
#95=LINE('',#497,#123);
#96=LINE('',#499,#124);
#97=LINE('',#500,#125);
#98=LINE('',#505,#126);
#99=LINE('',#508,#127);
#100=LINE('',#509,#128);
#101=VECTOR('',#349,0.393700787401575);
#102=VECTOR('',#350,0.393700787401575);
#103=VECTOR('',#351,0.393700787401575);
#104=VECTOR('',#352,0.393700787401575);
#105=VECTOR('',#355,39.3700787401575);
#106=VECTOR('',#356,39.3700787401575);
#107=VECTOR('',#357,39.3700787401575);
#108=VECTOR('',#360,39.3700787401575);
#109=VECTOR('',#367,0.1335);
#110=VECTOR('',#372,0.0885000000000001);
#111=VECTOR('',#377,39.3700787401575);
#112=VECTOR('',#378,39.3700787401575);
#113=VECTOR('',#379,39.3700787401575);
#114=VECTOR('',#384,0.1335);
#115=VECTOR('',#389,0.0885);
#116=VECTOR('',#394,39.3700787401575);
#117=VECTOR('',#395,39.3700787401575);
#118=VECTOR('',#396,39.3700787401575);
#119=VECTOR('',#399,39.3700787401575);
#120=VECTOR('',#400,39.3700787401575);
#121=VECTOR('',#401,39.3700787401575);
#122=VECTOR('',#406,39.3700787401575);
#123=VECTOR('',#411,39.3700787401575);
#124=VECTOR('',#412,39.3700787401575);
#125=VECTOR('',#413,39.3700787401575);
#126=VECTOR('',#418,39.3700787401575);
#127=VECTOR('',#423,39.3700787401575);
#128=VECTOR('',#424,39.3700787401575);
#129=ELLIPSE('',#316,0.132582521472478,0.0937500000000001);
#130=VERTEX_POINT('',#431);
#131=VERTEX_POINT('',#432);
#132=VERTEX_POINT('',#434);
#133=VERTEX_POINT('',#436);
#134=VERTEX_POINT('',#438);
#135=VERTEX_POINT('',#442);
#136=VERTEX_POINT('',#444);
#137=VERTEX_POINT('',#448);
#138=VERTEX_POINT('',#452);
#139=VERTEX_POINT('',#454);
#140=VERTEX_POINT('',#458);
#141=VERTEX_POINT('',#462);
#142=VERTEX_POINT('',#464);
#143=VERTEX_POINT('',#468);
#144=VERTEX_POINT('',#470);
#145=VERTEX_POINT('',#474);
#146=VERTEX_POINT('',#478);
#147=VERTEX_POINT('',#480);
#148=VERTEX_POINT('',#484);
#149=VERTEX_POINT('',#486);
#150=VERTEX_POINT('',#490);
#151=VERTEX_POINT('',#492);
#152=VERTEX_POINT('',#496);
#153=VERTEX_POINT('',#498);
#154=VERTEX_POINT('',#502);
#155=VERTEX_POINT('',#504);
#156=EDGE_CURVE('',#130,#131,#129,.T.);
#157=EDGE_CURVE('',#132,#130,#73,.T.);
#158=EDGE_CURVE('',#133,#132,#74,.T.);
#159=EDGE_CURVE('',#134,#133,#75,.T.);
#160=EDGE_CURVE('',#131,#134,#76,.T.);
#161=EDGE_CURVE('',#130,#135,#77,.T.);
#162=EDGE_CURVE('',#135,#136,#78,.T.);
#163=EDGE_CURVE('',#132,#136,#79,.T.);
#164=EDGE_CURVE('',#131,#137,#80,.T.);
#165=EDGE_CURVE('',#137,#135,#21,.T.);
#166=EDGE_CURVE('',#138,#138,#22,.T.);
#167=EDGE_CURVE('',#138,#139,#81,.T.);
#168=EDGE_CURVE('',#139,#139,#23,.T.);
#169=EDGE_CURVE('',#139,#140,#82,.T.);
#170=EDGE_CURVE('',#140,#140,#24,.T.);
#171=EDGE_CURVE('',#136,#141,#83,.T.);
#172=EDGE_CURVE('',#142,#141,#84,.T.);
#173=EDGE_CURVE('',#133,#142,#85,.T.);
#174=EDGE_CURVE('',#143,#143,#25,.T.);
#175=EDGE_CURVE('',#143,#144,#86,.T.);
#176=EDGE_CURVE('',#144,#144,#26,.T.);
#177=EDGE_CURVE('',#144,#145,#87,.T.);
#178=EDGE_CURVE('',#145,#145,#27,.T.);
#179=EDGE_CURVE('',#141,#146,#88,.T.);
#180=EDGE_CURVE('',#147,#146,#89,.T.);
#181=EDGE_CURVE('',#142,#147,#90,.T.);
#182=EDGE_CURVE('',#146,#148,#91,.T.);
#183=EDGE_CURVE('',#149,#148,#92,.T.);
#184=EDGE_CURVE('',#147,#149,#93,.T.);
#185=EDGE_CURVE('',#148,#150,#28,.T.);
#186=EDGE_CURVE('',#151,#150,#94,.T.);
#187=EDGE_CURVE('',#149,#151,#29,.T.);
#188=EDGE_CURVE('',#150,#152,#95,.T.);
#189=EDGE_CURVE('',#153,#152,#96,.T.);
#190=EDGE_CURVE('',#151,#153,#97,.T.);
#191=EDGE_CURVE('',#152,#154,#30,.T.);
#192=EDGE_CURVE('',#155,#154,#98,.T.);
#193=EDGE_CURVE('',#153,#155,#31,.T.);
#194=EDGE_CURVE('',#155,#134,#99,.T.);
#195=EDGE_CURVE('',#154,#137,#100,.T.);
#196=ORIENTED_EDGE('',*,*,#156,.F.);
#197=ORIENTED_EDGE('',*,*,#157,.F.);
#198=ORIENTED_EDGE('',*,*,#158,.F.);
#199=ORIENTED_EDGE('',*,*,#159,.F.);
#200=ORIENTED_EDGE('',*,*,#160,.F.);
#201=ORIENTED_EDGE('',*,*,#157,.T.);
#202=ORIENTED_EDGE('',*,*,#161,.T.);
#203=ORIENTED_EDGE('',*,*,#162,.T.);
#204=ORIENTED_EDGE('',*,*,#163,.F.);
#205=ORIENTED_EDGE('',*,*,#156,.T.);
#206=ORIENTED_EDGE('',*,*,#164,.T.);
#207=ORIENTED_EDGE('',*,*,#165,.T.);
#208=ORIENTED_EDGE('',*,*,#161,.F.);
#209=ORIENTED_EDGE('',*,*,#166,.T.);
#210=ORIENTED_EDGE('',*,*,#167,.T.);
#211=ORIENTED_EDGE('',*,*,#168,.T.);
#212=ORIENTED_EDGE('',*,*,#167,.F.);
#213=ORIENTED_EDGE('',*,*,#168,.F.);
#214=ORIENTED_EDGE('',*,*,#169,.T.);
#215=ORIENTED_EDGE('',*,*,#170,.F.);
#216=ORIENTED_EDGE('',*,*,#169,.F.);
#217=ORIENTED_EDGE('',*,*,#158,.T.);
#218=ORIENTED_EDGE('',*,*,#163,.T.);
#219=ORIENTED_EDGE('',*,*,#171,.T.);
#220=ORIENTED_EDGE('',*,*,#172,.F.);
#221=ORIENTED_EDGE('',*,*,#173,.F.);
#222=ORIENTED_EDGE('',*,*,#166,.F.);
#223=ORIENTED_EDGE('',*,*,#174,.T.);
#224=ORIENTED_EDGE('',*,*,#175,.T.);
#225=ORIENTED_EDGE('',*,*,#176,.T.);
#226=ORIENTED_EDGE('',*,*,#175,.F.);
#227=ORIENTED_EDGE('',*,*,#176,.F.);
#228=ORIENTED_EDGE('',*,*,#177,.T.);
#229=ORIENTED_EDGE('',*,*,#178,.F.);
#230=ORIENTED_EDGE('',*,*,#177,.F.);
#231=ORIENTED_EDGE('',*,*,#179,.T.);
#232=ORIENTED_EDGE('',*,*,#180,.F.);
#233=ORIENTED_EDGE('',*,*,#181,.F.);
#234=ORIENTED_EDGE('',*,*,#172,.T.);
#235=ORIENTED_EDGE('',*,*,#174,.F.);
#236=ORIENTED_EDGE('',*,*,#182,.T.);
#237=ORIENTED_EDGE('',*,*,#183,.F.);
#238=ORIENTED_EDGE('',*,*,#184,.F.);
#239=ORIENTED_EDGE('',*,*,#180,.T.);
#240=ORIENTED_EDGE('',*,*,#185,.T.);
#241=ORIENTED_EDGE('',*,*,#186,.F.);
#242=ORIENTED_EDGE('',*,*,#187,.F.);
#243=ORIENTED_EDGE('',*,*,#183,.T.);
#244=ORIENTED_EDGE('',*,*,#188,.T.);
#245=ORIENTED_EDGE('',*,*,#189,.F.);
#246=ORIENTED_EDGE('',*,*,#190,.F.);
#247=ORIENTED_EDGE('',*,*,#186,.T.);
#248=ORIENTED_EDGE('',*,*,#178,.T.);
#249=ORIENTED_EDGE('',*,*,#191,.T.);
#250=ORIENTED_EDGE('',*,*,#192,.F.);
#251=ORIENTED_EDGE('',*,*,#193,.F.);
#252=ORIENTED_EDGE('',*,*,#189,.T.);
#253=ORIENTED_EDGE('',*,*,#160,.T.);
#254=ORIENTED_EDGE('',*,*,#194,.F.);
#255=ORIENTED_EDGE('',*,*,#192,.T.);
#256=ORIENTED_EDGE('',*,*,#195,.T.);
#257=ORIENTED_EDGE('',*,*,#164,.F.);
#258=ORIENTED_EDGE('',*,*,#170,.T.);
#259=ORIENTED_EDGE('',*,*,#159,.T.);
#260=ORIENTED_EDGE('',*,*,#173,.T.);
#261=ORIENTED_EDGE('',*,*,#181,.T.);
#262=ORIENTED_EDGE('',*,*,#184,.T.);
#263=ORIENTED_EDGE('',*,*,#187,.T.);
#264=ORIENTED_EDGE('',*,*,#190,.T.);
#265=ORIENTED_EDGE('',*,*,#193,.T.);
#266=ORIENTED_EDGE('',*,*,#194,.T.);
#267=ORIENTED_EDGE('',*,*,#162,.F.);
#268=ORIENTED_EDGE('',*,*,#165,.F.);
#269=ORIENTED_EDGE('',*,*,#195,.F.);
#270=ORIENTED_EDGE('',*,*,#191,.F.);
#271=ORIENTED_EDGE('',*,*,#188,.F.);
#272=ORIENTED_EDGE('',*,*,#185,.F.);
#273=ORIENTED_EDGE('',*,*,#182,.F.);
#274=ORIENTED_EDGE('',*,*,#179,.F.);
#275=ORIENTED_EDGE('',*,*,#171,.F.);
#276=PLANE('',#315);
#277=PLANE('',#317);
#278=PLANE('',#325);
#279=PLANE('',#331);
#280=PLANE('',#332);
#281=PLANE('',#336);
#282=PLANE('',#340);
#283=PLANE('',#341);
#284=PLANE('',#342);
#285=ADVANCED_FACE('',(#37),#276,.F.);
#286=ADVANCED_FACE('',(#38),#277,.F.);
#287=ADVANCED_FACE('',(#39),#32,.T.);
#288=ADVANCED_FACE('',(#40),#19,.F.);
#289=ADVANCED_FACE('',(#41),#33,.F.);
#290=ADVANCED_FACE('',(#42,#15),#278,.F.);
#291=ADVANCED_FACE('',(#43),#20,.F.);
#292=ADVANCED_FACE('',(#44),#34,.F.);
#293=ADVANCED_FACE('',(#45,#16),#279,.F.);
#294=ADVANCED_FACE('',(#46),#280,.F.);
#295=ADVANCED_FACE('',(#47),#35,.T.);
#296=ADVANCED_FACE('',(#48,#17),#281,.F.);
#297=ADVANCED_FACE('',(#49),#36,.F.);
#298=ADVANCED_FACE('',(#50,#18),#282,.F.);
#299=ADVANCED_FACE('',(#51),#283,.F.);
#300=ADVANCED_FACE('',(#52),#284,.T.);
#301=CLOSED_SHELL('',(#285,#286,#287,#288,#289,#290,#291,#292,#293,#294,
#295,#296,#297,#298,#299,#300));
#302=DERIVED_UNIT_ELEMENT(#304,1.);
#303=DERIVED_UNIT_ELEMENT(#519,-3.);
#304=(
MASS_UNIT()
NAMED_UNIT(*)
SI_UNIT(.KILO.,.GRAM.)
);
#305=DERIVED_UNIT((#302,#303));
#306=MEASURE_REPRESENTATION_ITEM('density measure',
POSITIVE_RATIO_MEASURE(7850.),#305);
#307=PROPERTY_DEFINITION_REPRESENTATION(#312,#309);
#308=PROPERTY_DEFINITION_REPRESENTATION(#313,#310);
#309=REPRESENTATION('material name',(#311),#514);
#310=REPRESENTATION('density',(#306),#514);
#311=DESCRIPTIVE_REPRESENTATION_ITEM('Steel','Steel');
#312=PROPERTY_DEFINITION('material property','material name',#527);
#313=PROPERTY_DEFINITION('material property','density of part',#527);
#314=AXIS2_PLACEMENT_3D('',#429,#343,#344);
#315=AXIS2_PLACEMENT_3D('',#430,#345,#346);
#316=AXIS2_PLACEMENT_3D('',#433,#347,#348);
#317=AXIS2_PLACEMENT_3D('',#441,#353,#354);
#318=AXIS2_PLACEMENT_3D('',#447,#358,#359);
#319=AXIS2_PLACEMENT_3D('',#450,#361,#362);
#320=AXIS2_PLACEMENT_3D('',#451,#363,#364);
#321=AXIS2_PLACEMENT_3D('',#453,#365,#366);
#322=AXIS2_PLACEMENT_3D('',#456,#368,#369);
#323=AXIS2_PLACEMENT_3D('',#457,#370,#371);
#324=AXIS2_PLACEMENT_3D('',#460,#373,#374);
#325=AXIS2_PLACEMENT_3D('',#461,#375,#376);
#326=AXIS2_PLACEMENT_3D('',#467,#380,#381);
#327=AXIS2_PLACEMENT_3D('',#469,#382,#383);
#328=AXIS2_PLACEMENT_3D('',#472,#385,#386);
#329=AXIS2_PLACEMENT_3D('',#473,#387,#388);
#330=AXIS2_PLACEMENT_3D('',#476,#390,#391);
#331=AXIS2_PLACEMENT_3D('',#477,#392,#393);
#332=AXIS2_PLACEMENT_3D('',#483,#397,#398);
#333=AXIS2_PLACEMENT_3D('',#489,#402,#403);
#334=AXIS2_PLACEMENT_3D('',#491,#404,#405);
#335=AXIS2_PLACEMENT_3D('',#494,#407,#408);
#336=AXIS2_PLACEMENT_3D('',#495,#409,#410);
#337=AXIS2_PLACEMENT_3D('',#501,#414,#415);
#338=AXIS2_PLACEMENT_3D('',#503,#416,#417);
#339=AXIS2_PLACEMENT_3D('',#506,#419,#420);
#340=AXIS2_PLACEMENT_3D('',#507,#421,#422);
#341=AXIS2_PLACEMENT_3D('',#510,#425,#426);
#342=AXIS2_PLACEMENT_3D('',#511,#427,#428);
#343=DIRECTION('axis',(0.,0.,1.));
#344=DIRECTION('refdir',(1.,0.,0.));
#345=DIRECTION('center_axis',(0.707106781186548,0.,-0.707106781186548));
#346=DIRECTION('ref_axis',(-0.707106781186548,1.0794385653443E-16,-0.707106781186548));
#347=DIRECTION('center_axis',(0.707106781186548,0.,-0.707106781186548));
#348=DIRECTION('ref_axis',(-0.707106781186547,0.,-0.707106781186547));
#349=DIRECTION('',(0.,1.,0.));
#350=DIRECTION('',(-0.707106781186548,-9.65854120745433E-17,-0.707106781186548));
#351=DIRECTION('',(0.,-1.,0.));
#352=DIRECTION('',(0.707106781186548,0.,0.707106781186548));
#353=DIRECTION('center_axis',(1.,0.,0.));
#354=DIRECTION('ref_axis',(0.,0.,-1.));
#355=DIRECTION('',(0.,0.,-1.));
#356=DIRECTION('',(0.,-1.,0.));
#357=DIRECTION('',(0.,0.,-1.));
#358=DIRECTION('center_axis',(0.,0.,-1.));
#359=DIRECTION('ref_axis',(-1.,0.,0.));
#360=DIRECTION('',(0.,0.,-1.));
#361=DIRECTION('center_axis',(0.,0.,1.));
#362=DIRECTION('ref_axis',(-1.,0.,0.));
#363=DIRECTION('center_axis',(2.42830932770157E-16,-1.,0.));
#364=DIRECTION('ref_axis',(1.,9.13173907994515E-17,-1.07936250203655E-39));
#365=DIRECTION('center_axis',(1.36592399683213E-16,-1.,0.));
#366=DIRECTION('ref_axis',(1.,1.36592399683213E-16,-1.07936250203655E-39));
#367=DIRECTION('',(0.707106781186548,0.707106781186547,8.65956056235494E-17));
#368=DIRECTION('center_axis',(-1.36592399683213E-16,1.,0.));
#369=DIRECTION('ref_axis',(1.,0.,-1.07936250203655E-39));
#370=DIRECTION('center_axis',(0.,1.,0.));
#371=DIRECTION('ref_axis',(1.,0.,-1.07936250203655E-39));
#372=DIRECTION('',(0.,1.,0.));
#373=DIRECTION('center_axis',(0.,-1.,0.));
#374=DIRECTION('ref_axis',(1.,0.,-1.07936250203655E-39));
#375=DIRECTION('center_axis',(-1.36592399683213E-16,1.,0.));
#376=DIRECTION('ref_axis',(-1.,-1.36592399683213E-16,0.));
#377=DIRECTION('',(1.,1.36592399683213E-16,0.));
#378=DIRECTION('',(0.,0.,-1.));
#379=DIRECTION('',(1.,1.36592399683213E-16,0.));
#380=DIRECTION('center_axis',(1.,2.42830932770157E-16,0.));
#381=DIRECTION('ref_axis',(-9.13173907994515E-17,1.,0.));
#382=DIRECTION('center_axis',(1.,1.36592399683213E-16,0.));
#383=DIRECTION('ref_axis',(-1.36592399683213E-16,1.,0.));
#384=DIRECTION('',(-0.707106781186547,0.707106781186548,8.65956056235495E-17));
#385=DIRECTION('center_axis',(-1.,-1.36592399683213E-16,0.));
#386=DIRECTION('ref_axis',(0.,1.,0.));
#387=DIRECTION('center_axis',(-1.,0.,0.));
#388=DIRECTION('ref_axis',(0.,1.,0.));
#389=DIRECTION('',(-1.,0.,0.));
#390=DIRECTION('center_axis',(1.,0.,0.));
#391=DIRECTION('ref_axis',(0.,1.,0.));
#392=DIRECTION('center_axis',(-1.,-1.36592399683213E-16,0.));
#393=DIRECTION('ref_axis',(1.36592399683213E-16,-1.,0.));
#394=DIRECTION('',(-1.36592399683213E-16,1.,0.));
#395=DIRECTION('',(0.,0.,-1.));
#396=DIRECTION('',(-1.36592399683213E-16,1.,0.));
#397=DIRECTION('center_axis',(0.,-1.,0.));
#398=DIRECTION('ref_axis',(0.,0.,-1.));
#399=DIRECTION('',(-1.,0.,0.));
#400=DIRECTION('',(0.,0.,-1.));
#401=DIRECTION('',(-1.,0.,0.));
#402=DIRECTION('center_axis',(0.,0.,-1.));
#403=DIRECTION('ref_axis',(-1.,0.,0.));
#404=DIRECTION('center_axis',(0.,0.,1.));
#405=DIRECTION('ref_axis',(-1.,0.,0.));
#406=DIRECTION('',(0.,0.,-1.));
#407=DIRECTION('center_axis',(0.,0.,1.));
#408=DIRECTION('ref_axis',(-1.,0.,0.));
#409=DIRECTION('center_axis',(1.,0.,0.));
#410=DIRECTION('ref_axis',(0.,0.,-1.));
#411=DIRECTION('',(0.,-1.,0.));
#412=DIRECTION('',(0.,0.,-1.));
#413=DIRECTION('',(0.,-1.,0.));
#414=DIRECTION('center_axis',(0.,0.,-1.));
#415=DIRECTION('ref_axis',(-1.,0.,0.));
#416=DIRECTION('center_axis',(0.,0.,-1.));
#417=DIRECTION('ref_axis',(-1.,0.,0.));
#418=DIRECTION('',(0.,0.,-1.));
#419=DIRECTION('center_axis',(0.,0.,-1.));
#420=DIRECTION('ref_axis',(-1.,0.,0.));
#421=DIRECTION('center_axis',(0.,-1.,0.));
#422=DIRECTION('ref_axis',(0.,0.,-1.));
#423=DIRECTION('',(-1.,0.,0.));
#424=DIRECTION('',(-1.,0.,0.));
#425=DIRECTION('center_axis',(0.,0.,-1.));
#426=DIRECTION('ref_axis',(-1.,0.,0.));
#427=DIRECTION('center_axis',(0.,0.,-1.));
#428=DIRECTION('ref_axis',(-1.,0.,0.));
#429=CARTESIAN_POINT('',(0.,0.,0.));
#430=CARTESIAN_POINT('Origin',(0.0469893521393753,-0.5,5.42));
#431=CARTESIAN_POINT('',(-0.5,-0.40625,4.87301064786062));
#432=CARTESIAN_POINT('',(-0.40625,-0.3125,4.96676064786062));
#433=CARTESIAN_POINT('Origin',(-0.40625,-0.40625,4.96676064786062));
#434=CARTESIAN_POINT('',(-0.5,-0.5,4.87301064786062));
#435=CARTESIAN_POINT('',(-0.5,-0.453125,4.87301064786062));
#436=CARTESIAN_POINT('',(0.0469893521393753,-0.5,5.42));
#437=CARTESIAN_POINT('',(-0.0897579858954685,-0.5,5.28325266196516));
#438=CARTESIAN_POINT('',(0.0469893521393753,-0.3125,5.42));
#439=CARTESIAN_POINT('',(0.0469893521393754,-0.046875,5.42));
#440=CARTESIAN_POINT('',(0.0821170141045315,-0.3125,5.45512766196516));
#441=CARTESIAN_POINT('Origin',(-0.5,-0.40625,5.42));
#442=CARTESIAN_POINT('',(-0.5,-0.40625,-5.42));
#443=CARTESIAN_POINT('',(-0.5,-0.40625,5.42));
#444=CARTESIAN_POINT('',(-0.5,-0.5,-5.42));
#445=CARTESIAN_POINT('',(-0.5,-0.40625,-5.42));
#446=CARTESIAN_POINT('',(-0.5,-0.5,5.42));
#447=CARTESIAN_POINT('Origin',(-0.40625,-0.40625,5.42));
#448=CARTESIAN_POINT('',(-0.40625,-0.3125,-5.42));
#449=CARTESIAN_POINT('',(-0.40625,-0.3125,5.42));
#450=CARTESIAN_POINT('Origin',(-0.40625,-0.40625,-5.42));
#451=CARTESIAN_POINT('Origin',(-0.101673228346457,-0.455,-5.02));
#452=CARTESIAN_POINT('',(-0.280173228346457,-0.5,-5.02));
#453=CARTESIAN_POINT('Origin',(-0.101673228346457,-0.5,-5.02));
#454=CARTESIAN_POINT('',(-0.190173228346457,-0.41,-5.02));
#455=CARTESIAN_POINT('',(-0.235173228346457,-0.455,-5.02));
#456=CARTESIAN_POINT('Origin',(-0.101673228346457,-0.41,-5.02));
#457=CARTESIAN_POINT('Origin',(-0.101673228346457,-0.5,-5.02));
#458=CARTESIAN_POINT('',(-0.190173228346457,-0.3125,-5.02));
#459=CARTESIAN_POINT('',(-0.190173228346457,-0.5,-5.02));
#460=CARTESIAN_POINT('Origin',(-0.101673228346457,-0.3125,-5.02));
#461=CARTESIAN_POINT('Origin',(-0.5,-0.5,5.42));
#462=CARTESIAN_POINT('',(0.5,-0.5,-5.42));
#463=CARTESIAN_POINT('',(-0.5,-0.5,-5.42));
#464=CARTESIAN_POINT('',(0.5,-0.5,5.42));
#465=CARTESIAN_POINT('',(0.5,-0.5,5.42));
#466=CARTESIAN_POINT('',(-0.5,-0.5,5.42));
#467=CARTESIAN_POINT('Origin',(0.455,0.1,-5.02));
#468=CARTESIAN_POINT('',(0.5,-0.0785,-5.02));
#469=CARTESIAN_POINT('Origin',(0.5,0.1,-5.02));
#470=CARTESIAN_POINT('',(0.41,0.0115,-5.02));
#471=CARTESIAN_POINT('',(0.455,-0.0335,-5.02));
#472=CARTESIAN_POINT('Origin',(0.41,0.1,-5.02));
#473=CARTESIAN_POINT('Origin',(0.5,0.1,-5.02));
#474=CARTESIAN_POINT('',(0.3125,0.0115,-5.02));
#475=CARTESIAN_POINT('',(0.5,0.0115,-5.02));
#476=CARTESIAN_POINT('Origin',(0.3125,0.1,-5.02));
#477=CARTESIAN_POINT('Origin',(0.5,-0.5,5.42));
#478=CARTESIAN_POINT('',(0.5,0.5,-5.42));
#479=CARTESIAN_POINT('',(0.5,-0.5,-5.42));
#480=CARTESIAN_POINT('',(0.5,0.5,5.42));
#481=CARTESIAN_POINT('',(0.5,0.5,5.42));
#482=CARTESIAN_POINT('',(0.5,-0.5,5.42));
#483=CARTESIAN_POINT('Origin',(0.40625,0.5,5.42));
#484=CARTESIAN_POINT('',(0.40625,0.5,-5.42));
#485=CARTESIAN_POINT('',(0.40625,0.5,-5.42));
#486=CARTESIAN_POINT('',(0.40625,0.5,5.42));
#487=CARTESIAN_POINT('',(0.40625,0.5,5.42));
#488=CARTESIAN_POINT('',(0.40625,0.5,5.42));
#489=CARTESIAN_POINT('Origin',(0.40625,0.40625,5.42));
#490=CARTESIAN_POINT('',(0.3125,0.40625,-5.42));
#491=CARTESIAN_POINT('Origin',(0.40625,0.40625,-5.42));
#492=CARTESIAN_POINT('',(0.3125,0.40625,5.42));
#493=CARTESIAN_POINT('',(0.3125,0.40625,5.42));
#494=CARTESIAN_POINT('Origin',(0.40625,0.40625,5.42));
#495=CARTESIAN_POINT('Origin',(0.3125,0.40625,5.42));
#496=CARTESIAN_POINT('',(0.3125,-0.1875,-5.42));
#497=CARTESIAN_POINT('',(0.3125,0.40625,-5.42));
#498=CARTESIAN_POINT('',(0.3125,-0.1875,5.42));
#499=CARTESIAN_POINT('',(0.3125,-0.1875,5.42));
#500=CARTESIAN_POINT('',(0.3125,0.40625,5.42));
#501=CARTESIAN_POINT('Origin',(0.1875,-0.1875,5.42));
#502=CARTESIAN_POINT('',(0.1875,-0.3125,-5.42));
#503=CARTESIAN_POINT('Origin',(0.1875,-0.1875,-5.42));
#504=CARTESIAN_POINT('',(0.1875,-0.3125,5.42));
#505=CARTESIAN_POINT('',(0.1875,-0.3125,5.42));
#506=CARTESIAN_POINT('Origin',(0.1875,-0.1875,5.42));
#507=CARTESIAN_POINT('Origin',(0.1875,-0.3125,5.42));
#508=CARTESIAN_POINT('',(0.1875,-0.3125,5.42));
#509=CARTESIAN_POINT('',(0.1875,-0.3125,-5.42));
#510=CARTESIAN_POINT('Origin',(0.40625,0.40625,5.42));
#511=CARTESIAN_POINT('Origin',(0.40625,0.40625,-5.42));
#512=UNCERTAINTY_MEASURE_WITH_UNIT(LENGTH_MEASURE(0.000393700787401575),
#517,'DISTANCE_ACCURACY_VALUE',
'Maximum model space distance between geometric entities at asserted c
onnectivities');
#513=UNCERTAINTY_MEASURE_WITH_UNIT(LENGTH_MEASURE(0.000393700787401575),
#517,'DISTANCE_ACCURACY_VALUE',
'Maximum model space distance between geometric entities at asserted c
onnectivities');
#514=(
GEOMETRIC_REPRESENTATION_CONTEXT(3)
GLOBAL_UNCERTAINTY_ASSIGNED_CONTEXT((#512))
GLOBAL_UNIT_ASSIGNED_CONTEXT((#517,#521,#522))
REPRESENTATION_CONTEXT('','3D')
);
#515=(
GEOMETRIC_REPRESENTATION_CONTEXT(3)
GLOBAL_UNCERTAINTY_ASSIGNED_CONTEXT((#513))
GLOBAL_UNIT_ASSIGNED_CONTEXT((#517,#521,#522))
REPRESENTATION_CONTEXT('','3D')
);
#516=DIMENSIONAL_EXPONENTS(1.,0.,0.,0.,0.,0.,0.);
#517=(
CONVERSION_BASED_UNIT('inch',#520)
LENGTH_UNIT()
NAMED_UNIT(#516)
);
#518=(
LENGTH_UNIT()
NAMED_UNIT(*)
SI_UNIT(.MILLI.,.METRE.)
);
#519=(
LENGTH_UNIT()
NAMED_UNIT(*)
SI_UNIT($,.METRE.)
);
#520=LENGTH_MEASURE_WITH_UNIT(LENGTH_MEASURE(25.4),#518);
#521=(
NAMED_UNIT(*)
PLANE_ANGLE_UNIT()
SI_UNIT($,.RADIAN.)
);
#522=(
NAMED_UNIT(*)
SI_UNIT($,.STERADIAN.)
SOLID_ANGLE_UNIT()
);
#523=SHAPE_DEFINITION_REPRESENTATION(#524,#525);
#524=PRODUCT_DEFINITION_SHAPE('',$,#527);
#525=SHAPE_REPRESENTATION('',(#314),#514);
#526=PRODUCT_DEFINITION_CONTEXT('part definition',#531,'design');
#527=PRODUCT_DEFINITION(
'8982K154_Multipurpose 6061 Aluminum 90 Degree Angle',
'8982K154_Multipurpose 6061 Aluminum 90 Degree Angle_Right v3',#528,#526);
#528=PRODUCT_DEFINITION_FORMATION('',$,#533);
#529=PRODUCT_RELATED_PRODUCT_CATEGORY(
'8982K154_Multipurpose 6061 Aluminum 90 Degree Angle_Right v3',
'8982K154_Multipurpose 6061 Aluminum 90 Degree Angle_Right v3',(#533));
#530=APPLICATION_PROTOCOL_DEFINITION('international standard',
'automotive_design',2009,#531);
#531=APPLICATION_CONTEXT(
'Core Data for Automotive Mechanical Design Process');
#532=PRODUCT_CONTEXT('part definition',#531,'mechanical');
#533=PRODUCT('8982K154_Multipurpose 6061 Aluminum 90 Degree Angle',
'8982K154_Multipurpose 6061 Aluminum 90 Degree Angle_Right v3',
'STEP AP214',(#532));
#534=PRESENTATION_STYLE_ASSIGNMENT((#536));
#535=PRESENTATION_STYLE_ASSIGNMENT((#537));
#536=SURFACE_STYLE_USAGE(.BOTH.,#538);
#537=SURFACE_STYLE_USAGE(.BOTH.,#539);
#538=SURFACE_SIDE_STYLE('',(#540));
#539=SURFACE_SIDE_STYLE('',(#541));
#540=SURFACE_STYLE_FILL_AREA(#542);
#541=SURFACE_STYLE_FILL_AREA(#543);
#542=FILL_AREA_STYLE('Steel - Satin',(#544));
#543=FILL_AREA_STYLE('Opaque(202,209,238)',(#545));
#544=FILL_AREA_STYLE_COLOUR('Steel - Satin',#546);
#545=FILL_AREA_STYLE_COLOUR('Opaque(202,209,238)',#547);
#546=COLOUR_RGB('Steel - Satin',0.627450980392157,0.627450980392157,0.627450980392157);
#547=COLOUR_RGB('Opaque(202,209,238)',0.792156862745098,0.819607843137255,
0.933333333333333);
ENDSEC;
END-ISO-10303-21;
