ISO-10303-21;
HEADER;
/* Generated by software containing ST-Developer
 * from STEP Tools, Inc. (www.steptools.com) 
 */

FILE_DESCRIPTION(
/* description */ ('STEP AP214'),
/* implementation_level */ '2;1');

FILE_NAME(
/* name */ 
'8982K154_Multipurpose 6061 Aluminum 90 Degree Angle v7.step',
/* time_stamp */ '2025-04-29T12:16:54-07:00',
/* author */ (''),
/* organization */ (''),
/* preprocessor_version */ 'ST-DEVELOPER v20.1',
/* originating_system */ 'Autodesk Translation Framework v14.4.0.0',
/* authorisation */ '');

FILE_SCHEMA (('AUTOMOTIVE_DESIGN { 1 0 10303 214 3 1 1 }'));
ENDSEC;

DATA;
#10=MECHANICAL_DESIGN_GEOMETRIC_PRESENTATION_REPRESENTATION('',(#13),#554);
#11=SHAPE_REPRESENTATION_RELATIONSHIP('SRR','None',#564,#12);
#12=ADVANCED_BREP_SHAPE_REPRESENTATION('',(#14),#553);
#13=STYLED_ITEM('',(#574),#14);
#14=MANIFOLD_SOLID_BREP('Body1',#324);
#15=FACE_BOUND('',#66,.T.);
#16=FACE_BOUND('',#70,.T.);
#17=FACE_BOUND('',#71,.T.);
#18=FACE_BOUND('',#74,.T.);
#19=FACE_BOUND('',#75,.T.);
#20=FACE_BOUND('',#78,.T.);
#21=CONICAL_SURFACE('',#346,0.1335,0.785398163397449);
#22=CONICAL_SURFACE('',#352,0.1335,0.78539816339745);
#23=CIRCLE('',#341,0.0937499999999999);
#24=CIRCLE('',#344,0.0679999999999998);
#25=CIRCLE('',#345,0.0679999999999998);
#26=CIRCLE('',#347,0.1785);
#27=CIRCLE('',#348,0.0885000000000001);
#28=CIRCLE('',#350,0.0885000000000001);
#29=CIRCLE('',#353,0.1785);
#30=CIRCLE('',#354,0.0885);
#31=CIRCLE('',#356,0.0885);
#32=CIRCLE('',#361,0.125);
#33=CIRCLE('',#362,0.125);
#34=CIRCLE('',#365,0.09375);
#35=CIRCLE('',#366,0.09375);
#36=CYLINDRICAL_SURFACE('',#340,0.0937499999999999);
#37=CYLINDRICAL_SURFACE('',#343,0.0679999999999998);
#38=CYLINDRICAL_SURFACE('',#349,0.0885000000000001);
#39=CYLINDRICAL_SURFACE('',#355,0.0885);
#40=CYLINDRICAL_SURFACE('',#360,0.125);
#41=CYLINDRICAL_SURFACE('',#364,0.09375);
#42=FACE_OUTER_BOUND('',#59,.T.);
#43=FACE_OUTER_BOUND('',#60,.T.);
#44=FACE_OUTER_BOUND('',#61,.T.);
#45=FACE_OUTER_BOUND('',#62,.T.);
#46=FACE_OUTER_BOUND('',#63,.T.);
#47=FACE_OUTER_BOUND('',#64,.T.);
#48=FACE_OUTER_BOUND('',#65,.T.);
#49=FACE_OUTER_BOUND('',#67,.T.);
#50=FACE_OUTER_BOUND('',#68,.T.);
#51=FACE_OUTER_BOUND('',#69,.T.);
#52=FACE_OUTER_BOUND('',#72,.T.);
#53=FACE_OUTER_BOUND('',#73,.T.);
#54=FACE_OUTER_BOUND('',#76,.T.);
#55=FACE_OUTER_BOUND('',#77,.T.);
#56=FACE_OUTER_BOUND('',#79,.T.);
#57=FACE_OUTER_BOUND('',#80,.T.);
#58=FACE_OUTER_BOUND('',#81,.T.);
#59=EDGE_LOOP('',(#212,#213,#214,#215,#216));
#60=EDGE_LOOP('',(#217,#218,#219,#220));
#61=EDGE_LOOP('',(#221,#222,#223,#224));
#62=EDGE_LOOP('',(#225,#226,#227,#228));
#63=EDGE_LOOP('',(#229,#230,#231,#232));
#64=EDGE_LOOP('',(#233,#234,#235,#236));
#65=EDGE_LOOP('',(#237,#238,#239,#240));
#66=EDGE_LOOP('',(#241));
#67=EDGE_LOOP('',(#242,#243,#244,#245));
#68=EDGE_LOOP('',(#246,#247,#248,#249));
#69=EDGE_LOOP('',(#250,#251,#252,#253,#254));
#70=EDGE_LOOP('',(#255));
#71=EDGE_LOOP('',(#256));
#72=EDGE_LOOP('',(#257,#258,#259,#260));
#73=EDGE_LOOP('',(#261,#262,#263,#264,#265));
#74=EDGE_LOOP('',(#266));
#75=EDGE_LOOP('',(#267));
#76=EDGE_LOOP('',(#268,#269,#270,#271));
#77=EDGE_LOOP('',(#272,#273,#274,#275));
#78=EDGE_LOOP('',(#276));
#79=EDGE_LOOP('',(#277,#278,#279,#280));
#80=EDGE_LOOP('',(#281,#282,#283,#284,#285,#286,#287,#288));
#81=EDGE_LOOP('',(#289,#290,#291,#292,#293,#294,#295,#296,#297));
#82=ELLIPSE('',#339,0.132582521472473,0.0937499999999999);
#83=LINE('',#466,#112);
#84=LINE('',#468,#113);
#85=LINE('',#470,#114);
#86=LINE('',#473,#115);
#87=LINE('',#476,#116);
#88=LINE('',#479,#117);
#89=LINE('',#482,#118);
#90=LINE('',#483,#119);
#91=LINE('',#488,#120);
#92=LINE('',#494,#121);
#93=LINE('',#498,#122);
#94=LINE('',#503,#123);
#95=LINE('',#505,#124);
#96=LINE('',#507,#125);
#97=LINE('',#508,#126);
#98=LINE('',#513,#127);
#99=LINE('',#517,#128);
#100=LINE('',#520,#129);
#101=LINE('',#521,#130);
#102=LINE('',#524,#131);
#103=LINE('',#526,#132);
#104=LINE('',#527,#133);
#105=LINE('',#530,#134);
#106=LINE('',#532,#135);
#107=LINE('',#533,#136);
#108=LINE('',#538,#137);
#109=LINE('',#542,#138);
#110=LINE('',#544,#139);
#111=LINE('',#545,#140);
#112=VECTOR('',#373,0.393700787401575);
#113=VECTOR('',#374,0.393700787401575);
#114=VECTOR('',#375,0.393700787401575);
#115=VECTOR('',#378,0.393700787401575);
#116=VECTOR('',#381,39.3700787401575);
#117=VECTOR('',#384,39.3700787401575);
#118=VECTOR('',#387,39.3700787401575);
#119=VECTOR('',#388,39.3700787401575);
#120=VECTOR('',#393,0.0679999999999998);
#121=VECTOR('',#400,0.1335);
#122=VECTOR('',#405,0.0885000000000001);
#123=VECTOR('',#410,39.3700787401575);
#124=VECTOR('',#411,39.3700787401575);
#125=VECTOR('',#412,39.3700787401575);
#126=VECTOR('',#413,39.3700787401575);
#127=VECTOR('',#418,0.1335);
#128=VECTOR('',#423,0.0885);
#129=VECTOR('',#428,39.3700787401575);
#130=VECTOR('',#429,39.3700787401575);
#131=VECTOR('',#432,39.3700787401575);
#132=VECTOR('',#433,39.3700787401575);
#133=VECTOR('',#434,39.3700787401575);
#134=VECTOR('',#437,39.3700787401575);
#135=VECTOR('',#438,39.3700787401575);
#136=VECTOR('',#439,39.3700787401575);
#137=VECTOR('',#444,39.3700787401575);
#138=VECTOR('',#449,39.3700787401575);
#139=VECTOR('',#450,39.3700787401575);
#140=VECTOR('',#451,39.3700787401575);
#141=VERTEX_POINT('',#464);
#142=VERTEX_POINT('',#465);
#143=VERTEX_POINT('',#467);
#144=VERTEX_POINT('',#469);
#145=VERTEX_POINT('',#471);
#146=VERTEX_POINT('',#475);
#147=VERTEX_POINT('',#477);
#148=VERTEX_POINT('',#481);
#149=VERTEX_POINT('',#485);
#150=VERTEX_POINT('',#487);
#151=VERTEX_POINT('',#491);
#152=VERTEX_POINT('',#493);
#153=VERTEX_POINT('',#497);
#154=VERTEX_POINT('',#501);
#155=VERTEX_POINT('',#502);
#156=VERTEX_POINT('',#504);
#157=VERTEX_POINT('',#506);
#158=VERTEX_POINT('',#510);
#159=VERTEX_POINT('',#512);
#160=VERTEX_POINT('',#516);
#161=VERTEX_POINT('',#523);
#162=VERTEX_POINT('',#525);
#163=VERTEX_POINT('',#529);
#164=VERTEX_POINT('',#531);
#165=VERTEX_POINT('',#535);
#166=VERTEX_POINT('',#537);
#167=VERTEX_POINT('',#541);
#168=VERTEX_POINT('',#543);
#169=EDGE_CURVE('',#141,#142,#83,.T.);
#170=EDGE_CURVE('',#143,#141,#84,.T.);
#171=EDGE_CURVE('',#144,#143,#85,.T.);
#172=EDGE_CURVE('',#145,#144,#82,.T.);
#173=EDGE_CURVE('',#142,#145,#86,.T.);
#174=EDGE_CURVE('',#144,#146,#87,.T.);
#175=EDGE_CURVE('',#146,#147,#23,.T.);
#176=EDGE_CURVE('',#145,#147,#88,.T.);
#177=EDGE_CURVE('',#143,#148,#89,.T.);
#178=EDGE_CURVE('',#148,#146,#90,.T.);
#179=EDGE_CURVE('',#149,#149,#24,.T.);
#180=EDGE_CURVE('',#149,#150,#91,.T.);
#181=EDGE_CURVE('',#150,#150,#25,.T.);
#182=EDGE_CURVE('',#151,#151,#26,.T.);
#183=EDGE_CURVE('',#151,#152,#92,.T.);
#184=EDGE_CURVE('',#152,#152,#27,.T.);
#185=EDGE_CURVE('',#152,#153,#93,.T.);
#186=EDGE_CURVE('',#153,#153,#28,.T.);
#187=EDGE_CURVE('',#154,#155,#94,.T.);
#188=EDGE_CURVE('',#156,#155,#95,.T.);
#189=EDGE_CURVE('',#157,#156,#96,.T.);
#190=EDGE_CURVE('',#157,#154,#97,.T.);
#191=EDGE_CURVE('',#158,#158,#29,.T.);
#192=EDGE_CURVE('',#158,#159,#98,.T.);
#193=EDGE_CURVE('',#159,#159,#30,.T.);
#194=EDGE_CURVE('',#159,#160,#99,.T.);
#195=EDGE_CURVE('',#160,#160,#31,.T.);
#196=EDGE_CURVE('',#156,#141,#100,.T.);
#197=EDGE_CURVE('',#155,#148,#101,.T.);
#198=EDGE_CURVE('',#161,#154,#102,.T.);
#199=EDGE_CURVE('',#162,#157,#103,.T.);
#200=EDGE_CURVE('',#162,#161,#104,.T.);
#201=EDGE_CURVE('',#147,#163,#105,.T.);
#202=EDGE_CURVE('',#164,#163,#106,.T.);
#203=EDGE_CURVE('',#142,#164,#107,.T.);
#204=EDGE_CURVE('',#163,#165,#32,.T.);
#205=EDGE_CURVE('',#166,#165,#108,.T.);
#206=EDGE_CURVE('',#164,#166,#33,.T.);
#207=EDGE_CURVE('',#165,#167,#109,.T.);
#208=EDGE_CURVE('',#168,#167,#110,.T.);
#209=EDGE_CURVE('',#166,#168,#111,.T.);
#210=EDGE_CURVE('',#167,#161,#34,.T.);
#211=EDGE_CURVE('',#168,#162,#35,.T.);
#212=ORIENTED_EDGE('',*,*,#169,.F.);
#213=ORIENTED_EDGE('',*,*,#170,.F.);
#214=ORIENTED_EDGE('',*,*,#171,.F.);
#215=ORIENTED_EDGE('',*,*,#172,.F.);
#216=ORIENTED_EDGE('',*,*,#173,.F.);
#217=ORIENTED_EDGE('',*,*,#172,.T.);
#218=ORIENTED_EDGE('',*,*,#174,.T.);
#219=ORIENTED_EDGE('',*,*,#175,.T.);
#220=ORIENTED_EDGE('',*,*,#176,.F.);
#221=ORIENTED_EDGE('',*,*,#171,.T.);
#222=ORIENTED_EDGE('',*,*,#177,.T.);
#223=ORIENTED_EDGE('',*,*,#178,.T.);
#224=ORIENTED_EDGE('',*,*,#174,.F.);
#225=ORIENTED_EDGE('',*,*,#179,.F.);
#226=ORIENTED_EDGE('',*,*,#180,.T.);
#227=ORIENTED_EDGE('',*,*,#181,.F.);
#228=ORIENTED_EDGE('',*,*,#180,.F.);
#229=ORIENTED_EDGE('',*,*,#182,.T.);
#230=ORIENTED_EDGE('',*,*,#183,.T.);
#231=ORIENTED_EDGE('',*,*,#184,.T.);
#232=ORIENTED_EDGE('',*,*,#183,.F.);
#233=ORIENTED_EDGE('',*,*,#184,.F.);
#234=ORIENTED_EDGE('',*,*,#185,.T.);
#235=ORIENTED_EDGE('',*,*,#186,.F.);
#236=ORIENTED_EDGE('',*,*,#185,.F.);
#237=ORIENTED_EDGE('',*,*,#187,.T.);
#238=ORIENTED_EDGE('',*,*,#188,.F.);
#239=ORIENTED_EDGE('',*,*,#189,.F.);
#240=ORIENTED_EDGE('',*,*,#190,.T.);
#241=ORIENTED_EDGE('',*,*,#182,.F.);
#242=ORIENTED_EDGE('',*,*,#191,.T.);
#243=ORIENTED_EDGE('',*,*,#192,.T.);
#244=ORIENTED_EDGE('',*,*,#193,.T.);
#245=ORIENTED_EDGE('',*,*,#192,.F.);
#246=ORIENTED_EDGE('',*,*,#193,.F.);
#247=ORIENTED_EDGE('',*,*,#194,.T.);
#248=ORIENTED_EDGE('',*,*,#195,.F.);
#249=ORIENTED_EDGE('',*,*,#194,.F.);
#250=ORIENTED_EDGE('',*,*,#170,.T.);
#251=ORIENTED_EDGE('',*,*,#196,.F.);
#252=ORIENTED_EDGE('',*,*,#188,.T.);
#253=ORIENTED_EDGE('',*,*,#197,.T.);
#254=ORIENTED_EDGE('',*,*,#177,.F.);
#255=ORIENTED_EDGE('',*,*,#179,.T.);
#256=ORIENTED_EDGE('',*,*,#191,.F.);
#257=ORIENTED_EDGE('',*,*,#198,.T.);
#258=ORIENTED_EDGE('',*,*,#190,.F.);
#259=ORIENTED_EDGE('',*,*,#199,.F.);
#260=ORIENTED_EDGE('',*,*,#200,.T.);
#261=ORIENTED_EDGE('',*,*,#173,.T.);
#262=ORIENTED_EDGE('',*,*,#176,.T.);
#263=ORIENTED_EDGE('',*,*,#201,.T.);
#264=ORIENTED_EDGE('',*,*,#202,.F.);
#265=ORIENTED_EDGE('',*,*,#203,.F.);
#266=ORIENTED_EDGE('',*,*,#181,.T.);
#267=ORIENTED_EDGE('',*,*,#195,.T.);
#268=ORIENTED_EDGE('',*,*,#204,.T.);
#269=ORIENTED_EDGE('',*,*,#205,.F.);
#270=ORIENTED_EDGE('',*,*,#206,.F.);
#271=ORIENTED_EDGE('',*,*,#202,.T.);
#272=ORIENTED_EDGE('',*,*,#207,.T.);
#273=ORIENTED_EDGE('',*,*,#208,.F.);
#274=ORIENTED_EDGE('',*,*,#209,.F.);
#275=ORIENTED_EDGE('',*,*,#205,.T.);
#276=ORIENTED_EDGE('',*,*,#186,.T.);
#277=ORIENTED_EDGE('',*,*,#210,.T.);
#278=ORIENTED_EDGE('',*,*,#200,.F.);
#279=ORIENTED_EDGE('',*,*,#211,.F.);
#280=ORIENTED_EDGE('',*,*,#208,.T.);
#281=ORIENTED_EDGE('',*,*,#169,.T.);
#282=ORIENTED_EDGE('',*,*,#203,.T.);
#283=ORIENTED_EDGE('',*,*,#206,.T.);
#284=ORIENTED_EDGE('',*,*,#209,.T.);
#285=ORIENTED_EDGE('',*,*,#211,.T.);
#286=ORIENTED_EDGE('',*,*,#199,.T.);
#287=ORIENTED_EDGE('',*,*,#189,.T.);
#288=ORIENTED_EDGE('',*,*,#196,.T.);
#289=ORIENTED_EDGE('',*,*,#198,.F.);
#290=ORIENTED_EDGE('',*,*,#210,.F.);
#291=ORIENTED_EDGE('',*,*,#207,.F.);
#292=ORIENTED_EDGE('',*,*,#204,.F.);
#293=ORIENTED_EDGE('',*,*,#201,.F.);
#294=ORIENTED_EDGE('',*,*,#175,.F.);
#295=ORIENTED_EDGE('',*,*,#178,.F.);
#296=ORIENTED_EDGE('',*,*,#197,.F.);
#297=ORIENTED_EDGE('',*,*,#187,.F.);
#298=PLANE('',#338);
#299=PLANE('',#342);
#300=PLANE('',#351);
#301=PLANE('',#357);
#302=PLANE('',#358);
#303=PLANE('',#359);
#304=PLANE('',#363);
#305=PLANE('',#367);
#306=PLANE('',#368);
#307=ADVANCED_FACE('',(#42),#298,.F.);
#308=ADVANCED_FACE('',(#43),#36,.T.);
#309=ADVANCED_FACE('',(#44),#299,.F.);
#310=ADVANCED_FACE('',(#45),#37,.F.);
#311=ADVANCED_FACE('',(#46),#21,.F.);
#312=ADVANCED_FACE('',(#47),#38,.F.);
#313=ADVANCED_FACE('',(#48,#15),#300,.F.);
#314=ADVANCED_FACE('',(#49),#22,.F.);
#315=ADVANCED_FACE('',(#50),#39,.F.);
#316=ADVANCED_FACE('',(#51,#16,#17),#301,.F.);
#317=ADVANCED_FACE('',(#52),#302,.F.);
#318=ADVANCED_FACE('',(#53,#18,#19),#303,.F.);
#319=ADVANCED_FACE('',(#54),#40,.F.);
#320=ADVANCED_FACE('',(#55,#20),#304,.F.);
#321=ADVANCED_FACE('',(#56),#41,.T.);
#322=ADVANCED_FACE('',(#57),#305,.F.);
#323=ADVANCED_FACE('',(#58),#306,.T.);
#324=CLOSED_SHELL('',(#307,#308,#309,#310,#311,#312,#313,#314,#315,#316,
#317,#318,#319,#320,#321,#322,#323));
#325=DERIVED_UNIT_ELEMENT(#327,1.);
#326=DERIVED_UNIT_ELEMENT(#558,-3.);
#327=(
MASS_UNIT()
NAMED_UNIT(*)
SI_UNIT(.KILO.,.GRAM.)
);
#328=DERIVED_UNIT((#325,#326));
#329=MEASURE_REPRESENTATION_ITEM('density measure',
POSITIVE_RATIO_MEASURE(7850.),#328);
#330=PROPERTY_DEFINITION_REPRESENTATION(#335,#332);
#331=PROPERTY_DEFINITION_REPRESENTATION(#336,#333);
#332=REPRESENTATION('material name',(#334),#553);
#333=REPRESENTATION('density',(#329),#553);
#334=DESCRIPTIVE_REPRESENTATION_ITEM('Steel','Steel');
#335=PROPERTY_DEFINITION('material property','material name',#566);
#336=PROPERTY_DEFINITION('material property','density of part',#566);
#337=AXIS2_PLACEMENT_3D('',#462,#369,#370);
#338=AXIS2_PLACEMENT_3D('',#463,#371,#372);
#339=AXIS2_PLACEMENT_3D('',#472,#376,#377);
#340=AXIS2_PLACEMENT_3D('',#474,#379,#380);
#341=AXIS2_PLACEMENT_3D('',#478,#382,#383);
#342=AXIS2_PLACEMENT_3D('',#480,#385,#386);
#343=AXIS2_PLACEMENT_3D('',#484,#389,#390);
#344=AXIS2_PLACEMENT_3D('',#486,#391,#392);
#345=AXIS2_PLACEMENT_3D('',#489,#394,#395);
#346=AXIS2_PLACEMENT_3D('',#490,#396,#397);
#347=AXIS2_PLACEMENT_3D('',#492,#398,#399);
#348=AXIS2_PLACEMENT_3D('',#495,#401,#402);
#349=AXIS2_PLACEMENT_3D('',#496,#403,#404);
#350=AXIS2_PLACEMENT_3D('',#499,#406,#407);
#351=AXIS2_PLACEMENT_3D('',#500,#408,#409);
#352=AXIS2_PLACEMENT_3D('',#509,#414,#415);
#353=AXIS2_PLACEMENT_3D('',#511,#416,#417);
#354=AXIS2_PLACEMENT_3D('',#514,#419,#420);
#355=AXIS2_PLACEMENT_3D('',#515,#421,#422);
#356=AXIS2_PLACEMENT_3D('',#518,#424,#425);
#357=AXIS2_PLACEMENT_3D('',#519,#426,#427);
#358=AXIS2_PLACEMENT_3D('',#522,#430,#431);
#359=AXIS2_PLACEMENT_3D('',#528,#435,#436);
#360=AXIS2_PLACEMENT_3D('',#534,#440,#441);
#361=AXIS2_PLACEMENT_3D('',#536,#442,#443);
#362=AXIS2_PLACEMENT_3D('',#539,#445,#446);
#363=AXIS2_PLACEMENT_3D('',#540,#447,#448);
#364=AXIS2_PLACEMENT_3D('',#546,#452,#453);
#365=AXIS2_PLACEMENT_3D('',#547,#454,#455);
#366=AXIS2_PLACEMENT_3D('',#548,#456,#457);
#367=AXIS2_PLACEMENT_3D('',#549,#458,#459);
#368=AXIS2_PLACEMENT_3D('',#550,#460,#461);
#369=DIRECTION('axis',(0.,0.,1.));
#370=DIRECTION('refdir',(1.,0.,0.));
#371=DIRECTION('center_axis',(0.,-0.707106781186522,-0.707106781186573));
#372=DIRECTION('ref_axis',(1.39452226455164E-31,-0.707106781186573,0.707106781186522));
#373=DIRECTION('',(-1.,0.,0.));
#374=DIRECTION('',(9.65854120745468E-17,-0.707106781186573,0.707106781186522));
#375=DIRECTION('',(1.,0.,0.));
#376=DIRECTION('center_axis',(0.,-0.707106781186522,-0.707106781186573));
#377=DIRECTION('ref_axis',(0.,0.707106781186573,-0.707106781186522));
#378=DIRECTION('',(0.,0.707106781186573,-0.707106781186522));
#379=DIRECTION('center_axis',(0.,0.,-1.));
#380=DIRECTION('ref_axis',(-1.,0.,0.));
#381=DIRECTION('',(0.,0.,-1.));
#382=DIRECTION('center_axis',(0.,0.,1.));
#383=DIRECTION('ref_axis',(-1.,0.,0.));
#384=DIRECTION('',(0.,0.,-1.));
#385=DIRECTION('center_axis',(0.,-1.,0.));
#386=DIRECTION('ref_axis',(0.,0.,-1.));
#387=DIRECTION('',(0.,0.,-1.));
#388=DIRECTION('',(-1.,0.,0.));
#389=DIRECTION('center_axis',(-1.,0.,0.));
#390=DIRECTION('ref_axis',(0.,1.,-2.67189073236363E-24));
#391=DIRECTION('center_axis',(-1.,-1.36592399683213E-16,0.));
#392=DIRECTION('ref_axis',(0.,1.,-2.67189073236363E-24));
#393=DIRECTION('',(-1.,0.,0.));
#394=DIRECTION('center_axis',(1.,0.,0.));
#395=DIRECTION('ref_axis',(0.,1.,-2.67189073236363E-24));
#396=DIRECTION('center_axis',(2.42830932770157E-16,-1.,0.));
#397=DIRECTION('ref_axis',(1.,9.13173907994515E-17,-1.07936250203655E-39));
#398=DIRECTION('center_axis',(1.36592399683213E-16,-1.,0.));
#399=DIRECTION('ref_axis',(1.,1.36592399683213E-16,-1.07936250203655E-39));
#400=DIRECTION('',(0.707106781186548,0.707106781186547,8.65956056235494E-17));
#401=DIRECTION('center_axis',(-1.36592399683213E-16,1.,0.));
#402=DIRECTION('ref_axis',(1.,0.,-1.07936250203655E-39));
#403=DIRECTION('center_axis',(0.,1.,0.));
#404=DIRECTION('ref_axis',(1.,0.,-1.07936250203655E-39));
#405=DIRECTION('',(0.,1.,0.));
#406=DIRECTION('center_axis',(0.,-1.,0.));
#407=DIRECTION('ref_axis',(1.,0.,-1.07936250203655E-39));
#408=DIRECTION('center_axis',(-1.36592399683213E-16,1.,0.));
#409=DIRECTION('ref_axis',(-1.,-1.36592399683213E-16,0.));
#410=DIRECTION('',(1.,1.36592399683213E-16,0.));
#411=DIRECTION('',(0.,0.,-1.));
#412=DIRECTION('',(1.,1.36592399683213E-16,0.));
#413=DIRECTION('',(0.,0.,-1.));
#414=DIRECTION('center_axis',(1.,2.42830932770157E-16,0.));
#415=DIRECTION('ref_axis',(-9.13173907994515E-17,1.,0.));
#416=DIRECTION('center_axis',(1.,1.36592399683213E-16,0.));
#417=DIRECTION('ref_axis',(-1.36592399683213E-16,1.,0.));
#418=DIRECTION('',(-0.707106781186547,0.707106781186548,8.65956056235495E-17));
#419=DIRECTION('center_axis',(-1.,-1.36592399683213E-16,0.));
#420=DIRECTION('ref_axis',(0.,1.,0.));
#421=DIRECTION('center_axis',(-1.,0.,0.));
#422=DIRECTION('ref_axis',(0.,1.,0.));
#423=DIRECTION('',(-1.,0.,0.));
#424=DIRECTION('center_axis',(1.,0.,0.));
#425=DIRECTION('ref_axis',(0.,1.,0.));
#426=DIRECTION('center_axis',(-1.,-1.36592399683213E-16,0.));
#427=DIRECTION('ref_axis',(1.36592399683213E-16,-1.,0.));
#428=DIRECTION('',(-1.36592399683213E-16,1.,0.));
#429=DIRECTION('',(-1.36592399683213E-16,1.,0.));
#430=DIRECTION('center_axis',(1.,0.,0.));
#431=DIRECTION('ref_axis',(0.,0.,-1.));
#432=DIRECTION('',(0.,-1.,0.));
#433=DIRECTION('',(0.,-1.,0.));
#434=DIRECTION('',(0.,0.,-1.));
#435=DIRECTION('center_axis',(1.,0.,0.));
#436=DIRECTION('ref_axis',(0.,0.,-1.));
#437=DIRECTION('',(0.,-1.,0.));
#438=DIRECTION('',(0.,0.,-1.));
#439=DIRECTION('',(0.,-1.,0.));
#440=DIRECTION('center_axis',(0.,0.,-1.));
#441=DIRECTION('ref_axis',(-1.,0.,0.));
#442=DIRECTION('center_axis',(0.,0.,-1.));
#443=DIRECTION('ref_axis',(-1.,0.,0.));
#444=DIRECTION('',(0.,0.,-1.));
#445=DIRECTION('center_axis',(0.,0.,-1.));
#446=DIRECTION('ref_axis',(-1.,0.,0.));
#447=DIRECTION('center_axis',(0.,-1.,0.));
#448=DIRECTION('ref_axis',(0.,0.,-1.));
#449=DIRECTION('',(-1.,0.,0.));
#450=DIRECTION('',(0.,0.,-1.));
#451=DIRECTION('',(-1.,0.,0.));
#452=DIRECTION('center_axis',(0.,0.,-1.));
#453=DIRECTION('ref_axis',(-1.,0.,0.));
#454=DIRECTION('center_axis',(0.,0.,1.));
#455=DIRECTION('ref_axis',(-1.,0.,0.));
#456=DIRECTION('center_axis',(0.,0.,1.));
#457=DIRECTION('ref_axis',(-1.,0.,0.));
#458=DIRECTION('center_axis',(0.,0.,-1.));
#459=DIRECTION('ref_axis',(-1.,0.,0.));
#460=DIRECTION('center_axis',(0.,0.,-1.));
#461=DIRECTION('ref_axis',(-1.,0.,0.));
#462=CARTESIAN_POINT('',(0.,0.,0.));
#463=CARTESIAN_POINT('Origin',(0.5,0.50217786355611,4.86915955595808));
#464=CARTESIAN_POINT('',(0.5,-0.048662580485846,5.42));
#465=CARTESIAN_POINT('',(0.3125,-0.0486625804858459,5.42));
#466=CARTESIAN_POINT('',(0.453125,-0.0486625804858462,5.42));
#467=CARTESIAN_POINT('',(0.5,0.5,4.87133741951419));
#468=CARTESIAN_POINT('',(0.5,0.113923286656585,5.25741413285758));
#469=CARTESIAN_POINT('',(0.40625,0.5,4.87133741951419));
#470=CARTESIAN_POINT('',(0.453125,0.5,4.87133741951419));
#471=CARTESIAN_POINT('',(0.3125,0.40625,4.96508741951419));
#472=CARTESIAN_POINT('Origin',(0.40625,0.40625,4.96508741951419));
#473=CARTESIAN_POINT('',(0.3125,0.340485786656602,5.03085163285758));
#474=CARTESIAN_POINT('Origin',(0.40625,0.40625,5.42));
#475=CARTESIAN_POINT('',(0.40625,0.5,-5.42));
#476=CARTESIAN_POINT('',(0.40625,0.5,5.42));
#477=CARTESIAN_POINT('',(0.3125,0.40625,-5.42));
#478=CARTESIAN_POINT('Origin',(0.40625,0.40625,-5.42));
#479=CARTESIAN_POINT('',(0.3125,0.40625,5.42));
#480=CARTESIAN_POINT('Origin',(0.40625,0.5,5.42));
#481=CARTESIAN_POINT('',(0.5,0.5,-5.42));
#482=CARTESIAN_POINT('',(0.5,0.5,5.42));
#483=CARTESIAN_POINT('',(0.40625,0.5,-5.42));
#484=CARTESIAN_POINT('Origin',(0.5,0.0370078740157485,4.86670049912919));
#485=CARTESIAN_POINT('',(0.5,-0.0309921259842513,4.86670049912919));
#486=CARTESIAN_POINT('Origin',(0.5,0.0370078740157485,4.86670049912919));
#487=CARTESIAN_POINT('',(0.3125,-0.0309921259842513,4.86670049912919));
#488=CARTESIAN_POINT('',(0.5,-0.0309921259842513,4.86670049912919));
#489=CARTESIAN_POINT('Origin',(0.3125,0.0370078740157485,4.86670049912919));
#490=CARTESIAN_POINT('Origin',(-0.101673228346457,-0.455,-5.02));
#491=CARTESIAN_POINT('',(-0.280173228346457,-0.5,-5.02));
#492=CARTESIAN_POINT('Origin',(-0.101673228346457,-0.5,-5.02));
#493=CARTESIAN_POINT('',(-0.190173228346457,-0.41,-5.02));
#494=CARTESIAN_POINT('',(-0.235173228346457,-0.455,-5.02));
#495=CARTESIAN_POINT('Origin',(-0.101673228346457,-0.41,-5.02));
#496=CARTESIAN_POINT('Origin',(-0.101673228346457,-0.5,-5.02));
#497=CARTESIAN_POINT('',(-0.190173228346457,-0.3125,-5.02));
#498=CARTESIAN_POINT('',(-0.190173228346457,-0.5,-5.02));
#499=CARTESIAN_POINT('Origin',(-0.101673228346457,-0.3125,-5.02));
#500=CARTESIAN_POINT('Origin',(-0.5,-0.5,5.42));
#501=CARTESIAN_POINT('',(-0.5,-0.5,-5.42));
#502=CARTESIAN_POINT('',(0.5,-0.5,-5.42));
#503=CARTESIAN_POINT('',(-0.5,-0.5,-5.42));
#504=CARTESIAN_POINT('',(0.5,-0.5,5.42));
#505=CARTESIAN_POINT('',(0.5,-0.5,5.42));
#506=CARTESIAN_POINT('',(-0.5,-0.5,5.42));
#507=CARTESIAN_POINT('',(-0.5,-0.5,5.42));
#508=CARTESIAN_POINT('',(-0.5,-0.5,5.42));
#509=CARTESIAN_POINT('Origin',(0.455,0.1,-5.02));
#510=CARTESIAN_POINT('',(0.5,-0.0785,-5.02));
#511=CARTESIAN_POINT('Origin',(0.5,0.1,-5.02));
#512=CARTESIAN_POINT('',(0.41,0.0115,-5.02));
#513=CARTESIAN_POINT('',(0.455,-0.0335,-5.02));
#514=CARTESIAN_POINT('Origin',(0.41,0.1,-5.02));
#515=CARTESIAN_POINT('Origin',(0.5,0.1,-5.02));
#516=CARTESIAN_POINT('',(0.3125,0.0115,-5.02));
#517=CARTESIAN_POINT('',(0.5,0.0115,-5.02));
#518=CARTESIAN_POINT('Origin',(0.3125,0.1,-5.02));
#519=CARTESIAN_POINT('Origin',(0.5,-0.5,5.42));
#520=CARTESIAN_POINT('',(0.5,-0.5,5.42));
#521=CARTESIAN_POINT('',(0.5,-0.5,-5.42));
#522=CARTESIAN_POINT('Origin',(-0.5,-0.40625,5.42));
#523=CARTESIAN_POINT('',(-0.5,-0.40625,-5.42));
#524=CARTESIAN_POINT('',(-0.5,-0.40625,-5.42));
#525=CARTESIAN_POINT('',(-0.5,-0.40625,5.42));
#526=CARTESIAN_POINT('',(-0.5,-0.40625,5.42));
#527=CARTESIAN_POINT('',(-0.5,-0.40625,5.42));
#528=CARTESIAN_POINT('Origin',(0.3125,0.40625,5.42));
#529=CARTESIAN_POINT('',(0.3125,-0.1875,-5.42));
#530=CARTESIAN_POINT('',(0.3125,0.40625,-5.42));
#531=CARTESIAN_POINT('',(0.3125,-0.1875,5.42));
#532=CARTESIAN_POINT('',(0.3125,-0.1875,5.42));
#533=CARTESIAN_POINT('',(0.3125,0.40625,5.42));
#534=CARTESIAN_POINT('Origin',(0.1875,-0.1875,5.42));
#535=CARTESIAN_POINT('',(0.1875,-0.3125,-5.42));
#536=CARTESIAN_POINT('Origin',(0.1875,-0.1875,-5.42));
#537=CARTESIAN_POINT('',(0.1875,-0.3125,5.42));
#538=CARTESIAN_POINT('',(0.1875,-0.3125,5.42));
#539=CARTESIAN_POINT('Origin',(0.1875,-0.1875,5.42));
#540=CARTESIAN_POINT('Origin',(0.1875,-0.3125,5.42));
#541=CARTESIAN_POINT('',(-0.40625,-0.3125,-5.42));
#542=CARTESIAN_POINT('',(0.1875,-0.3125,-5.42));
#543=CARTESIAN_POINT('',(-0.40625,-0.3125,5.42));
#544=CARTESIAN_POINT('',(-0.40625,-0.3125,5.42));
#545=CARTESIAN_POINT('',(0.1875,-0.3125,5.42));
#546=CARTESIAN_POINT('Origin',(-0.40625,-0.40625,5.42));
#547=CARTESIAN_POINT('Origin',(-0.40625,-0.40625,-5.42));
#548=CARTESIAN_POINT('Origin',(-0.40625,-0.40625,5.42));
#549=CARTESIAN_POINT('Origin',(0.40625,0.40625,5.42));
#550=CARTESIAN_POINT('Origin',(0.40625,0.40625,-5.42));
#551=UNCERTAINTY_MEASURE_WITH_UNIT(LENGTH_MEASURE(0.000393700787401575),
#556,'DISTANCE_ACCURACY_VALUE',
'Maximum model space distance between geometric entities at asserted c
onnectivities');
#552=UNCERTAINTY_MEASURE_WITH_UNIT(LENGTH_MEASURE(0.000393700787401575),
#556,'DISTANCE_ACCURACY_VALUE',
'Maximum model space distance between geometric entities at asserted c
onnectivities');
#553=(
GEOMETRIC_REPRESENTATION_CONTEXT(3)
GLOBAL_UNCERTAINTY_ASSIGNED_CONTEXT((#551))
GLOBAL_UNIT_ASSIGNED_CONTEXT((#556,#560,#561))
REPRESENTATION_CONTEXT('','3D')
);
#554=(
GEOMETRIC_REPRESENTATION_CONTEXT(3)
GLOBAL_UNCERTAINTY_ASSIGNED_CONTEXT((#552))
GLOBAL_UNIT_ASSIGNED_CONTEXT((#556,#560,#561))
REPRESENTATION_CONTEXT('','3D')
);
#555=DIMENSIONAL_EXPONENTS(1.,0.,0.,0.,0.,0.,0.);
#556=(
CONVERSION_BASED_UNIT('inch',#559)
LENGTH_UNIT()
NAMED_UNIT(#555)
);
#557=(
LENGTH_UNIT()
NAMED_UNIT(*)
SI_UNIT(.MILLI.,.METRE.)
);
#558=(
LENGTH_UNIT()
NAMED_UNIT(*)
SI_UNIT($,.METRE.)
);
#559=LENGTH_MEASURE_WITH_UNIT(LENGTH_MEASURE(25.4),#557);
#560=(
NAMED_UNIT(*)
PLANE_ANGLE_UNIT()
SI_UNIT($,.RADIAN.)
);
#561=(
NAMED_UNIT(*)
SI_UNIT($,.STERADIAN.)
SOLID_ANGLE_UNIT()
);
#562=SHAPE_DEFINITION_REPRESENTATION(#563,#564);
#563=PRODUCT_DEFINITION_SHAPE('',$,#566);
#564=SHAPE_REPRESENTATION('',(#337),#553);
#565=PRODUCT_DEFINITION_CONTEXT('part definition',#570,'design');
#566=PRODUCT_DEFINITION(
'8982K154_Multipurpose 6061 Aluminum 90 Degree Angle',
'8982K154_Multipurpose 6061 Aluminum 90 Degree Angle v7',#567,#565);
#567=PRODUCT_DEFINITION_FORMATION('',$,#572);
#568=PRODUCT_RELATED_PRODUCT_CATEGORY(
'8982K154_Multipurpose 6061 Aluminum 90 Degree Angle v7',
'8982K154_Multipurpose 6061 Aluminum 90 Degree Angle v7',(#572));
#569=APPLICATION_PROTOCOL_DEFINITION('international standard',
'automotive_design',2009,#570);
#570=APPLICATION_CONTEXT(
'Core Data for Automotive Mechanical Design Process');
#571=PRODUCT_CONTEXT('part definition',#570,'mechanical');
#572=PRODUCT('8982K154_Multipurpose 6061 Aluminum 90 Degree Angle',
'8982K154_Multipurpose 6061 Aluminum 90 Degree Angle v7','STEP AP214',(#571));
#573=PRESENTATION_STYLE_ASSIGNMENT((#575));
#574=PRESENTATION_STYLE_ASSIGNMENT((#576));
#575=SURFACE_STYLE_USAGE(.BOTH.,#577);
#576=SURFACE_STYLE_USAGE(.BOTH.,#578);
#577=SURFACE_SIDE_STYLE('',(#579));
#578=SURFACE_SIDE_STYLE('',(#580));
#579=SURFACE_STYLE_FILL_AREA(#581);
#580=SURFACE_STYLE_FILL_AREA(#582);
#581=FILL_AREA_STYLE('Steel - Satin',(#583));
#582=FILL_AREA_STYLE('Opaque(202,209,238)',(#584));
#583=FILL_AREA_STYLE_COLOUR('Steel - Satin',#585);
#584=FILL_AREA_STYLE_COLOUR('Opaque(202,209,238)',#586);
#585=COLOUR_RGB('Steel - Satin',0.627450980392157,0.627450980392157,0.627450980392157);
#586=COLOUR_RGB('Opaque(202,209,238)',0.792156862745098,0.819607843137255,
0.933333333333333);
ENDSEC;
END-ISO-10303-21;
