ISO-10303-21;
HEADER;
FILE_DESCRIPTION (( 'STEP AP214' ),
    '1' );
FILE_NAME ('camera_mount-shroud.STEP',
    '2025-04-29T15:13:33',
    ( '' ),
    ( '' ),
    'SwSTEP 2.0',
    'SolidWorks 2025',
    '' );
FILE_SCHEMA (( 'AUTOMOTIVE_DESIGN' ));
ENDSEC;

DATA;
#1 = DIRECTION ( 'NONE',  ( 0.000000000000000000, 0.000000000000000000, 1.000000000000000000 ) ) ;
#2 = EDGE_CURVE ( 'NONE', #110, #895, #661, .T. ) ;
#3 = ORIENTED_EDGE ( 'NONE', *, *, #61, .F. ) ;
#4 = VECTOR ( 'NONE', #85, 1000.000000000000000 ) ;
#5 = DIRECTION ( 'NONE',  ( -0.1953967085268146497, -0.000000000000000000, 0.9807242865846073077 ) ) ;
#6 = CARTESIAN_POINT ( 'NONE',  ( 0.000000000000000000, 0.000000000000000000, 0.000000000000000000 ) ) ;
#7 = VERTEX_POINT ( 'NONE', #308 ) ;
#8 = CARTESIAN_POINT ( 'NONE',  ( 54.12264458888088825, 15.25000000000000000, -13.84745525482255246 ) ) ;
#9 = CARTESIAN_POINT ( 'NONE',  ( 48.11696047379833630, -17.75000000000000711, -21.83605493188440860 ) ) ;
#10 = PLANE ( 'NONE',  #927 ) ;
#11 = CARTESIAN_POINT ( 'NONE',  ( -22.50000000000000355, 0.000000000000000000, 35.00000000000000000 ) ) ;
#12 = CIRCLE ( 'NONE', #939, 2.178645877522431107 ) ;
#13 = ORIENTED_EDGE ( 'NONE', *, *, #349, .T. ) ;
#14 = VECTOR ( 'NONE', #492, 1000.000000000000000 ) ;
#15 = ADVANCED_FACE ( 'NONE', ( #877 ), #751, .T. ) ;
#16 = FACE_OUTER_BOUND ( 'NONE', #724, .T. ) ;
#17 = FACE_BOUND ( 'NONE', #936, .T. ) ;
#18 = VERTEX_POINT ( 'NONE', #99 ) ;
#19 = DIRECTION ( 'NONE',  ( -1.000000000000000000, 9.473348544150036705E-17, 0.000000000000000000 ) ) ;
#20 = VECTOR ( 'NONE', #192, 1000.000000000000000 ) ;
#21 = ORIENTED_EDGE ( 'NONE', *, *, #347, .F. ) ;
#22 = DIRECTION ( 'NONE',  ( 0.000000000000000000, 0.000000000000000000, 1.000000000000000000 ) ) ;
#23 = DIRECTION ( 'NONE',  ( 0.9807242865846074187, 0.000000000000000000, 0.1953967085268147053 ) ) ;
#24 = ORIENTED_EDGE ( 'NONE', *, *, #573, .T. ) ;
#25 = ORIENTED_EDGE ( 'NONE', *, *, #510, .T. ) ;
#26 = DIRECTION ( 'NONE',  ( -0.5735764363510468256, 0.000000000000000000, -0.8191520442889912434 ) ) ;
#27 = EDGE_CURVE ( 'NONE', #245, #376, #388, .T. ) ;
#28 = CARTESIAN_POINT ( 'NONE',  ( 12.74011098918154872, -15.25000000000000000, 18.19476411487289269 ) ) ;
#29 = VECTOR ( 'NONE', #627, 1000.000000000000227 ) ;
#30 = CARTESIAN_POINT ( 'NONE',  ( 0.000000000000000000, 0.000000000000000000, 35.00000000000000000 ) ) ;
#31 = ORIENTED_EDGE ( 'NONE', *, *, #938, .F. ) ;
#32 = DIRECTION ( 'NONE',  ( 0.6009111292642108637, 0.000000000000000000, 0.7993158416586093606 ) ) ;
#33 = EDGE_CURVE ( 'NONE', #737, #504, #327, .T. ) ;
#34 = FACE_OUTER_BOUND ( 'NONE', #313, .T. ) ;
#35 = ORIENTED_EDGE ( 'NONE', *, *, #558, .F. ) ;
#36 = DIRECTION ( 'NONE',  ( 1.000000000000000000, 0.000000000000000000, 0.000000000000000000 ) ) ;
#37 = DIRECTION ( 'NONE',  ( 0.6009111292642106417, 0.000000000000000000, 0.7993158416586094717 ) ) ;
#38 = DIRECTION ( 'NONE',  ( -0.7993158416586093606, -0.000000000000000000, 0.6009111292642108637 ) ) ;
#39 = LINE ( 'NONE', #258, #585 ) ;
#40 = EDGE_CURVE ( 'NONE', #275, #18, #12, .T. ) ;
#41 = AXIS2_PLACEMENT_3D ( 'NONE', #850, #934, #353 ) ;
#42 = ORIENTED_EDGE ( 'NONE', *, *, #916, .F. ) ;
#43 = DIRECTION ( 'NONE',  ( -0.6009111292642123070, 0.000000000000000000, -0.7993158416586082504 ) ) ;
#44 = CARTESIAN_POINT ( 'NONE',  ( 49.30514175788400166, -17.75000000000000711, -24.41591708016293794 ) ) ;
#45 = EDGE_CURVE ( 'NONE', #509, #802, #270, .T. ) ;
#46 = AXIS2_PLACEMENT_3D ( 'NONE', #678, #324, #452 ) ;
#47 = FACE_OUTER_BOUND ( 'NONE', #87, .T. ) ;
#48 = EDGE_LOOP ( 'NONE', ( #325, #542, #364, #926 ) ) ;
#49 = DIRECTION ( 'NONE',  ( -0.8191520442889909104, 0.000000000000000000, 0.5735764363510472696 ) ) ;
#50 = DIRECTION ( 'NONE',  ( 0.7993158416586095827, 0.000000000000000000, -0.6009111292642106417 ) ) ;
#51 = DIRECTION ( 'NONE',  ( 0.8191520442889911324, -0.000000000000000000, -0.5735764363510473807 ) ) ;
#52 = VERTEX_POINT ( 'NONE', #609 ) ;
#53 = CARTESIAN_POINT ( 'NONE',  ( 30.71210459951671012, -15.24999999999999645, 5.610638712259431671 ) ) ;
#54 = ORIENTED_EDGE ( 'NONE', *, *, #383, .T. ) ;
#55 = FACE_OUTER_BOUND ( 'NONE', #81, .T. ) ;
#56 = AXIS2_PLACEMENT_3D ( 'NONE', #918, #116, #409 ) ;
#57 = FACE_OUTER_BOUND ( 'NONE', #702, .T. ) ;
#58 = ORIENTED_EDGE ( 'NONE', *, *, #835, .F. ) ;
#59 = CARTESIAN_POINT ( 'NONE',  ( 22.50000000000000355, 2.755455298081545172E-15, -3.898866102110543075 ) ) ;
#60 = CARTESIAN_POINT ( 'NONE',  ( 0.000000000000000000, 15.25000000000000000, 0.000000000000000000 ) ) ;
#61 = EDGE_CURVE ( 'NONE', #504, #331, #902, .T. ) ;
#62 = CARTESIAN_POINT ( 'NONE',  ( 18.53206680324674949, 15.25000000000000000, 0.000000000000000000 ) ) ;
#63 = CYLINDRICAL_SURFACE ( 'NONE', #870, 22.50000000000000355 ) ;
#64 = ORIENTED_EDGE ( 'NONE', *, *, #752, .F. ) ;
#65 = VECTOR ( 'NONE', #463, 1000.000000000000227 ) ;
#66 = PLANE ( 'NONE',  #730 ) ;
#67 = CARTESIAN_POINT ( 'NONE',  ( 48.11696047379833630, -17.75000000000000711, -18.45226369544804967 ) ) ;
#68 = VERTEX_POINT ( 'NONE', #550 ) ;
#69 = CARTESIAN_POINT ( 'NONE',  ( 16.93184214771645202, -14.81764898642199668, 0.000000000000000000 ) ) ;
#70 = ADVANCED_FACE ( 'NONE', ( #262 ), #411, .F. ) ;
#71 = ORIENTED_EDGE ( 'NONE', *, *, #689, .F. ) ;
#72 = CARTESIAN_POINT ( 'NONE',  ( 48.11696047379835051, 15.24999999999999822, -8.364155566106216355 ) ) ;
#73 = ORIENTED_EDGE ( 'NONE', *, *, #489, .T. ) ;
#74 = CARTESIAN_POINT ( 'NONE',  ( 22.50000000000000711, -5.511256032345745126, -3.898866102110540410 ) ) ;
#75 = CARTESIAN_POINT ( 'NONE',  ( -22.50000000000000355, 0.000000000000000000, 35.00000000000000000 ) ) ;
#76 = ORIENTED_EDGE ( 'NONE', *, *, #666, .F. ) ;
#77 = EDGE_CURVE ( 'NONE', #405, #571, #475, .T. ) ;
#78 = CARTESIAN_POINT ( 'NONE',  ( 0.000000000000000000, 0.000000000000000000, 0.000000000000000000 ) ) ;
#79 = ORIENTED_EDGE ( 'NONE', *, *, #138, .F. ) ;
#80 = CARTESIAN_POINT ( 'NONE',  ( 16.93184214771645202, -15.25000000000000000, 0.000000000000000000 ) ) ;
#81 = EDGE_LOOP ( 'NONE', ( #879, #698, #214, #611, #370, #161, #154 ) ) ;
#82 = EDGE_CURVE ( 'NONE', #185, #376, #416, .T. ) ;
#83 = STYLED_ITEM ( 'NONE', ( #700 ), #196 ) ;
#84 = CARTESIAN_POINT ( 'NONE',  ( 0.000000000000000000, -15.25000000000000000, 0.000000000000000000 ) ) ;
#85 = DIRECTION ( 'NONE',  ( 0.000000000000000000, 1.000000000000000000, 0.000000000000000000 ) ) ;
#86 = VECTOR ( 'NONE', #253, 1000.000000000000000 ) ;
#87 = EDGE_LOOP ( 'NONE', ( #194, #635, #367, #105 ) ) ;
#88 = ORIENTED_EDGE ( 'NONE', *, *, #109, .F. ) ;
#89 = FACE_BOUND ( 'NONE', #304, .T. ) ;
#90 = ORIENTED_EDGE ( 'NONE', *, *, #529, .T. ) ;
#91 = DIRECTION ( 'NONE',  ( -0.8191520442889910214, 0.000000000000000000, 0.5735764363510472696 ) ) ;
#92 = LINE ( 'NONE', #604, #4 ) ;
#93 = VERTEX_POINT ( 'NONE', #184 ) ;
#94 = ADVANCED_FACE ( 'NONE', ( #115 ), #112, .T. ) ;
#95 = DIRECTION ( 'NONE',  ( -0.6009111292642109747, 0.000000000000000000, -0.7993158416586091386 ) ) ;
#96 = DIRECTION ( 'NONE',  ( -0.000000000000000000, 1.000000000000000000, -0.000000000000000000 ) ) ;
#97 = DIRECTION ( 'NONE',  ( 0.000000000000000000, -1.000000000000000000, 0.000000000000000000 ) ) ;
#98 = VECTOR ( 'NONE', #107, 1000.000000000000000 ) ;
#99 = CARTESIAN_POINT ( 'NONE',  ( 43.69555217226382382, -0.04705556975557040333, -31.87764245456166989 ) ) ;
#100 = VECTOR ( 'NONE', #158, 1000.000000000000000 ) ;
#101 = CARTESIAN_POINT ( 'NONE',  ( 46.31389728132147354, -0.04705556975557066701, -28.39479012802586766 ) ) ;
#102 = CARTESIAN_POINT ( 'NONE',  ( 29.27816350863909278, -15.24999999999999645, 3.562758601536951453 ) ) ;
#103 = ORIENTED_EDGE ( 'NONE', *, *, #33, .T. ) ;
#104 = LINE ( 'NONE', #9, #86 ) ;
#105 = ORIENTED_EDGE ( 'NONE', *, *, #619, .T. ) ;
#106 = PRODUCT_DEFINITION_SHAPE ( 'NONE', 'NONE',  #813 ) ;
#107 = DIRECTION ( 'NONE',  ( 0.000000000000000000, -1.000000000000000000, 0.000000000000000000 ) ) ;
#108 = CARTESIAN_POINT ( 'NONE',  ( 53.85272483730882698, 17.75000000000000355, -13.64453448899446997 ) ) ;
#109 = EDGE_CURVE ( 'NONE', #767, #359, #680, .T. ) ;
#110 = VERTEX_POINT ( 'NONE', #917 ) ;
#111 = ADVANCED_FACE ( 'NONE', ( #845 ), #124, .T. ) ;
#112 = PLANE ( 'NONE',  #746 ) ;
#113 = DIRECTION ( 'NONE',  ( 2.842004563245010888E-16, 1.000000000000000000, -1.989993018810556727E-16 ) ) ;
#114 = LINE ( 'NONE', #473, #418 ) ;
#115 = FACE_OUTER_BOUND ( 'NONE', #679, .T. ) ;
#116 = DIRECTION ( 'NONE',  ( -0.4055797876726404128, -0.7071067811865463515, -0.5792279653395696615 ) ) ;
#117 = ORIENTED_EDGE ( 'NONE', *, *, #476, .T. ) ;
#118 = APPLICATION_CONTEXT ( 'automotive_design' ) ;
#119 = PLANE ( 'NONE',  #223 ) ;
#120 = DIRECTION ( 'NONE',  ( -6.355446462790547535E-16, -0.000000000000000000, -1.000000000000000000 ) ) ;
#121 = ADVANCED_FACE ( 'NONE', ( #407 ), #488, .F. ) ;
#122 = CARTESIAN_POINT ( 'NONE',  ( 18.53206680324674949, -15.25000000000000000, 35.00000000000001421 ) ) ;
#123 = ORIENTED_EDGE ( 'NONE', *, *, #266, .F. ) ;
#124 = PLANE ( 'NONE',  #372 ) ;
#125 = DIRECTION ( 'NONE',  ( 0.8191520442889909104, -1.156482317317871232E-16, -0.5735764363510472696 ) ) ;
#126 = CIRCLE ( 'NONE', #271, 22.50000000000000355 ) ;
#127 = ORIENTED_EDGE ( 'NONE', *, *, #776, .F. ) ;
#128 = DIRECTION ( 'NONE',  ( -0.7993158416586092496, -0.000000000000000000, 0.6009111292642108637 ) ) ;
#129 = LINE ( 'NONE', #701, #100 ) ;
#130 = ORIENTED_EDGE ( 'NONE', *, *, #632, .F. ) ;
#131 = EDGE_CURVE ( 'NONE', #207, #655, #337, .T. ) ;
#132 = VECTOR ( 'NONE', #329, 1000.000000000000000 ) ;
#133 = CARTESIAN_POINT ( 'NONE',  ( 72.29166213522630358, -0.04705556975557066701, -47.92440182911273894 ) ) ;
#134 = DIRECTION ( 'NONE',  ( -0.7993158416586093606, 0.000000000000000000, 0.6009111292642108637 ) ) ;
#135 = VERTEX_POINT ( 'NONE', #911 ) ;
#136 = EDGE_CURVE ( 'NONE', #477, #915, #905, .T. ) ;
#137 = CARTESIAN_POINT ( 'NONE',  ( 20.56134691934311931, 10.67028377862963140, -2.541406601061107828 ) ) ;
#138 = EDGE_CURVE ( 'NONE', #620, #599, #268, .T. ) ;
#139 = CYLINDRICAL_SURFACE ( 'NONE', #246, 22.50000000000000355 ) ;
#140 = VECTOR ( 'NONE', #554, 1000.000000000000227 ) ;
#141 = ORIENTED_EDGE ( 'NONE', *, *, #138, .T. ) ;
#142 = VECTOR ( 'NONE', #206, 1000.000000000000114 ) ;
#143 =( LENGTH_UNIT ( ) NAMED_UNIT ( * ) SI_UNIT ( .MILLI., .METRE. ) );
#144 = CARTESIAN_POINT ( 'NONE',  ( 20.56134691934312286, -10.67028377862962962, -2.541406601061109161 ) ) ;
#145 = EDGE_LOOP ( 'NONE', ( #486, #164, #665, #715, #227, #346, #824, #602 ) ) ;
#146 = DIRECTION ( 'NONE',  ( 1.000000000000000000, 0.000000000000000000, 0.000000000000000000 ) ) ;
#147 = SURFACE_STYLE_USAGE ( .BOTH. , #788 ) ;
#148 = ORIENTED_EDGE ( 'NONE', *, *, #610, .T. ) ;
#149 = DIRECTION ( 'NONE',  ( -0.5735764363510472696, 0.000000000000000000, -0.8191520442889909104 ) ) ;
#150 = EDGE_CURVE ( 'NONE', #504, #620, #555, .T. ) ;
#151 = ORIENTED_EDGE ( 'NONE', *, *, #109, .T. ) ;
#152 = DIRECTION ( 'NONE',  ( -0.5735764363510473807, 0.000000000000000000, -0.8191520442889910214 ) ) ;
#153 = DIRECTION ( 'NONE',  ( -0.000000000000000000, -0.000000000000000000, -1.000000000000000000 ) ) ;
#154 = ORIENTED_EDGE ( 'NONE', *, *, #719, .F. ) ;
#155 = ORIENTED_EDGE ( 'NONE', *, *, #243, .T. ) ;
#156 = AXIS2_PLACEMENT_3D ( 'NONE', #801, #152, #381 ) ;
#157 = LINE ( 'NONE', #450, #65 ) ;
#158 = DIRECTION ( 'NONE',  ( 0.000000000000000000, 1.000000000000000000, 0.000000000000000000 ) ) ;
#159 = DIRECTION ( 'NONE',  ( 0.6009111292642115298, 0.000000000000000000, 0.7993158416586085835 ) ) ;
#160 = ORIENTED_EDGE ( 'NONE', *, *, #266, .T. ) ;
#161 = ORIENTED_EDGE ( 'NONE', *, *, #444, .F. ) ;
#162 = EDGE_CURVE ( 'NONE', #915, #767, #842, .T. ) ;
#163 = FACE_OUTER_BOUND ( 'NONE', #577, .T. ) ;
#164 = ORIENTED_EDGE ( 'NONE', *, *, #347, .T. ) ;
#165 = VECTOR ( 'NONE', #149, 1000.000000000000227 ) ;
#166 = CARTESIAN_POINT ( 'NONE',  ( 18.53206680324674949, -15.25000000000000000, 0.000000000000000000 ) ) ;
#167 = ADVANCED_FACE ( 'NONE', ( #469 ), #119, .T. ) ;
#168 = EDGE_LOOP ( 'NONE', ( #263, #117, #141, #642, #54, #267, #420, #854 ) ) ;
#169 = ORIENTED_EDGE ( 'NONE', *, *, #558, .T. ) ;
#170 = CARTESIAN_POINT ( 'NONE',  ( 12.74011098918154872, 15.25000000000000000, 18.19476411487289269 ) ) ;
#171 = CARTESIAN_POINT ( 'NONE',  ( 48.11696047379835051, 15.25000000000000000, 35.00000000000001421 ) ) ;
#172 = VECTOR ( 'NONE', #5, 1000.000000000000114 ) ;
#173 = VERTEX_POINT ( 'NONE', #397 ) ;
#174 = CARTESIAN_POINT ( 'NONE',  ( 48.11696047379835051, -15.25000000000000000, 35.00000000000001421 ) ) ;
#175 = AXIS2_PLACEMENT_3D ( 'NONE', #6, #454, #593 ) ;
#176 = EDGE_CURVE ( 'NONE', #395, #429, #640, .T. ) ;
#177 = ORIENTED_EDGE ( 'NONE', *, *, #27, .T. ) ;
#178 = CARTESIAN_POINT ( 'NONE',  ( 0.000000000000000000, 0.000000000000000000, 35.00000000000000000 ) ) ;
#179 = DIRECTION ( 'NONE',  ( 0.4055797876726389695, -0.7071067811865487940, 0.5792279653395674410 ) ) ;
#180 = CARTESIAN_POINT ( 'NONE',  ( 48.11696047379833630, 15.25000000000000000, -21.83605493188436597 ) ) ;
#181 = EDGE_CURVE ( 'NONE', #895, #93, #793, .T. ) ;
#182 = VECTOR ( 'NONE', #712, 1000.000000000000227 ) ;
#183 = ORIENTED_EDGE ( 'NONE', *, *, #190, .F. ) ;
#184 = CARTESIAN_POINT ( 'NONE',  ( 17.80663478161814695, -17.75000000000000711, -12.82028228424286986 ) ) ;
#185 = VERTEX_POINT ( 'NONE', #853 ) ;
#186 = CARTESIAN_POINT ( 'NONE',  ( 48.11696047379835051, 17.74999999999999289, -18.45226369544805323 ) ) ;
#187 = FACE_OUTER_BOUND ( 'NONE', #797, .T. ) ;
#188 = VECTOR ( 'NONE', #153, 1000.000000000000000 ) ;
#189 = VECTOR ( 'NONE', #586, 1000.000000000000000 ) ;
#190 = EDGE_CURVE ( 'NONE', #429, #173, #714, .T. ) ;
#191 = CARTESIAN_POINT ( 'NONE',  ( 42.95477254663892097, 15.25000000000000000, -29.20842333048529937 ) ) ;
#192 = DIRECTION ( 'NONE',  ( 1.000000000000000000, 0.000000000000000000, -1.275961849201638685E-18 ) ) ;
#193 = VECTOR ( 'NONE', #521, 999.9999999999998863 ) ;
#194 = ORIENTED_EDGE ( 'NONE', *, *, #804, .F. ) ;
#195 = DIRECTION ( 'NONE',  ( 0.7993158416586081394, 0.000000000000000000, -0.6009111292642121960 ) ) ;
#196 = MANIFOLD_SOLID_BREP ( 'Cut-Extrude4', #898 ) ;
#197 = VECTOR ( 'NONE', #564, 1000.000000000000000 ) ;
#198 = EDGE_LOOP ( 'NONE', ( #21, #375, #123, #3, #446, #810, #127, #512 ) ) ;
#199 = FILL_AREA_STYLE ('',( #863 ) ) ;
#200 = CARTESIAN_POINT ( 'NONE',  ( 48.11696047379833630, -15.25000000000000000, -21.83605493188440860 ) ) ;
#201 = ORIENTED_EDGE ( 'NONE', *, *, #921, .F. ) ;
#202 = ADVANCED_FACE ( 'NONE', ( #205 ), #928, .F. ) ;
#203 =( GEOMETRIC_REPRESENTATION_CONTEXT ( 3 ) GLOBAL_UNCERTAINTY_ASSIGNED_CONTEXT ( ( #614 ) ) GLOBAL_UNIT_ASSIGNED_CONTEXT ( ( #143, #297, #935 ) ) REPRESENTATION_CONTEXT ( 'NONE', 'WORKASPACE' ) );
#204 = VERTEX_POINT ( 'NONE', #582 ) ;
#205 = FACE_OUTER_BOUND ( 'NONE', #783, .T. ) ;
#206 = DIRECTION ( 'NONE',  ( -0.7993158416586092496, -0.000000000000000000, 0.6009111292642108637 ) ) ;
#207 = VERTEX_POINT ( 'NONE', #53 ) ;
#208 = CARTESIAN_POINT ( 'NONE',  ( 48.11696047379835051, -17.75000000000000355, -9.628309044269808936 ) ) ;
#209 = ADVANCED_FACE ( 'NONE', ( #511, #498 ), #66, .T. ) ;
#210 = CARTESIAN_POINT ( 'NONE',  ( 41.58056679527410182, 17.12126774287334641, -30.53059021359728220 ) ) ;
#211 = DIRECTION ( 'NONE',  ( -1.000000000000000000, 0.000000000000000000, 0.000000000000000000 ) ) ;
#212 = DIRECTION ( 'NONE',  ( 0.000000000000000000, 0.000000000000000000, 1.000000000000000000 ) ) ;
#213 = LINE ( 'NONE', #628, #827 ) ;
#214 = ORIENTED_EDGE ( 'NONE', *, *, #921, .T. ) ;
#215 = CARTESIAN_POINT ( 'NONE',  ( 0.000000000000000000, 0.000000000000000000, 0.000000000000000000 ) ) ;
#216 = AXIS2_PLACEMENT_3D ( 'NONE', #846, #653, #228 ) ;
#217 = ORIENTED_EDGE ( 'NONE', *, *, #408, .T. ) ;
#218 = DIRECTION ( 'NONE',  ( -0.5735764363510472696, 0.000000000000000000, -0.8191520442889909104 ) ) ;
#219 = EDGE_LOOP ( 'NONE', ( #819, #775, #497, #151 ) ) ;
#220 = EDGE_CURVE ( 'NONE', #275, #707, #634, .T. ) ;
#221 = CARTESIAN_POINT ( 'NONE',  ( 53.85272483730882698, 17.75000000000000355, -13.64453448899446997 ) ) ;
#222 = DIRECTION ( 'NONE',  ( 1.000000000000000000, 0.000000000000000000, 0.000000000000000000 ) ) ;
#223 = AXIS2_PLACEMENT_3D ( 'NONE', #692, #43, #755 ) ;
#224 = ORIENTED_EDGE ( 'NONE', *, *, #45, .T. ) ;
#225 = CIRCLE ( 'NONE', #943, 22.50000000000000355 ) ;
#226 = CARTESIAN_POINT ( 'NONE',  ( 16.93184214771644491, 14.81764898642199668, -2.160438461719051777E-17 ) ) ;
#227 = ORIENTED_EDGE ( 'NONE', *, *, #400, .F. ) ;
#228 = DIRECTION ( 'NONE',  ( 0.8191520442889909104, -1.156482317317871232E-16, -0.5735764363510472696 ) ) ;
#229 = EDGE_CURVE ( 'NONE', #245, #335, #242, .T. ) ;
#230 = ORIENTED_EDGE ( 'NONE', *, *, #220, .F. ) ;
#231 = DIRECTION ( 'NONE',  ( 0.6009111292642106417, 0.000000000000000000, 0.7993158416586094717 ) ) ;
#232 = DIRECTION ( 'NONE',  ( -0.7993158416586093606, 0.000000000000000000, 0.6009111292642108637 ) ) ;
#233 = PRODUCT_RELATED_PRODUCT_CATEGORY ( 'part', '', ( #748 ) ) ;
#234 = ORIENTED_EDGE ( 'NONE', *, *, #619, .F. ) ;
#235 = CARTESIAN_POINT ( 'NONE',  ( 17.80663478161814695, -15.24999999999999645, -12.82028228424286986 ) ) ;
#236 = ORIENTED_EDGE ( 'NONE', *, *, #419, .T. ) ;
#237 = EDGE_CURVE ( 'NONE', #900, #658, #401, .T. ) ;
#238 = AXIS2_PLACEMENT_3D ( 'NONE', #543, #837, #32 ) ;
#239 = DIRECTION ( 'NONE',  ( 0.000000000000000000, -1.000000000000000000, 0.000000000000000000 ) ) ;
#240 = LINE ( 'NONE', #387, #553 ) ;
#241 = DIRECTION ( 'NONE',  ( 0.5735764363510473807, 0.000000000000000000, 0.8191520442889909104 ) ) ;
#242 =( BOUNDED_CURVE ( )  B_SPLINE_CURVE ( 3, ( #226, #137, #439, #59 ),
 .UNSPECIFIED., .F., .T. ) 
 B_SPLINE_CURVE_WITH_KNOTS ( ( 4, 4 ),
 ( 2.422686155143448872, 3.141592653589793116 ),
 .UNSPECIFIED. ) 
 CURVE ( )  GEOMETRIC_REPRESENTATION_ITEM ( )  RATIONAL_B_SPLINE_CURVE ( ( 1.000000000000000000, 0.9573928599948150486, 0.9573928599948150486, 1.000000000000000000 ) ) 
 REPRESENTATION_ITEM ( '' )  );
#243 = EDGE_CURVE ( 'NONE', #354, #309, #448, .T. ) ;
#244 = CARTESIAN_POINT ( 'NONE',  ( 17.80663478161814695, 17.75000000000001066, -12.82028228424286986 ) ) ;
#245 = VERTEX_POINT ( 'NONE', #631 ) ;
#246 = AXIS2_PLACEMENT_3D ( 'NONE', #490, #404, #684 ) ;
#247 = VECTOR ( 'NONE', #345, 999.9999999999998863 ) ;
#248 = CARTESIAN_POINT ( 'NONE',  ( 42.38119611028788114, 17.75000000000000355, -30.02757537477429040 ) ) ;
#249 = DIRECTION ( 'NONE',  ( -0.8191520442889909104, -0.000000000000000000, 0.5735764363510472696 ) ) ;
#250 = EDGE_CURVE ( 'NONE', #802, #309, #503, .T. ) ;
#251 = ORIENTED_EDGE ( 'NONE', *, *, #573, .F. ) ;
#252 = VECTOR ( 'NONE', #639, 1000.000000000000114 ) ;
#253 = DIRECTION ( 'NONE',  ( -0.6009111292642109747, 0.000000000000000000, -0.7993158416586091386 ) ) ;
#254 = ORIENTED_EDGE ( 'NONE', *, *, #349, .F. ) ;
#255 = LINE ( 'NONE', #828, #132 ) ;
#256 = VECTOR ( 'NONE', #459, 1000.000000000000000 ) ;
#257 = ORIENTED_EDGE ( 'NONE', *, *, #662, .T. ) ;
#258 = CARTESIAN_POINT ( 'NONE',  ( 16.93184214771645202, -15.25000000000000000, 0.000000000000000000 ) ) ;
#259 = EDGE_CURVE ( 'NONE', #110, #579, #302, .T. ) ;
#260 = AXIS2_PLACEMENT_3D ( 'NONE', #178, #22, #547 ) ;
#261 = ORIENTED_EDGE ( 'NONE', *, *, #689, .T. ) ;
#262 = FACE_OUTER_BOUND ( 'NONE', #641, .T. ) ;
#263 = ORIENTED_EDGE ( 'NONE', *, *, #596, .F. ) ;
#264 = CARTESIAN_POINT ( 'NONE',  ( 0.000000000000000000, 0.000000000000000000, 35.00000000000000000 ) ) ;
#265 = DIRECTION ( 'NONE',  ( 0.5735764363510472696, 0.000000000000000000, 0.8191520442889909104 ) ) ;
#266 = EDGE_CURVE ( 'NONE', #331, #405, #305, .T. ) ;
#267 = ORIENTED_EDGE ( 'NONE', *, *, #259, .F. ) ;
#268 = LINE ( 'NONE', #348, #29 ) ;
#269 = LINE ( 'NONE', #180, #713 ) ;
#270 = CIRCLE ( 'NONE', #681, 24.00000000000000355 ) ;
#271 = AXIS2_PLACEMENT_3D ( 'NONE', #30, #685, #146 ) ;
#272 = ORIENTED_EDGE ( 'NONE', *, *, #419, .F. ) ;
#273 = DIRECTION ( 'NONE',  ( -0.6009111292642115298, 0.000000000000000000, -0.7993158416586085835 ) ) ;
#274 = PLANE ( 'NONE',  #909 ) ;
#275 = VERTEX_POINT ( 'NONE', #101 ) ;
#276 = CARTESIAN_POINT ( 'NONE',  ( 0.000000000000000000, 0.000000000000000000, 0.000000000000000000 ) ) ;
#277 = CARTESIAN_POINT ( 'NONE',  ( 30.71210459951671368, -17.75000000000000000, 5.610638712259431671 ) ) ;
#278 = DIRECTION ( 'NONE',  ( 0.000000000000000000, 1.000000000000000000, 0.000000000000000000 ) ) ;
#279 = ORIENTED_EDGE ( 'NONE', *, *, #662, .F. ) ;
#280 = DIRECTION ( 'NONE',  ( -0.6009111292642106417, 0.000000000000000000, -0.7993158416586094717 ) ) ;
#281 = ORIENTED_EDGE ( 'NONE', *, *, #502, .F. ) ;
#282 = ADVANCED_FACE ( 'NONE', ( #16 ), #817, .T. ) ;
#283 = VECTOR ( 'NONE', #239, 1000.000000000000000 ) ;
#284 = LINE ( 'NONE', #855, #247 ) ;
#285 = VERTEX_POINT ( 'NONE', #244 ) ;
#286 = DIRECTION ( 'NONE',  ( 0.000000000000000000, 0.000000000000000000, 1.000000000000000000 ) ) ;
#287 = CARTESIAN_POINT ( 'NONE',  ( 69.67331702616866096, -0.04705556975557040333, -51.40725415564855183 ) ) ;
#288 = ORIENTED_EDGE ( 'NONE', *, *, #745, .F. ) ;
#289 = CARTESIAN_POINT ( 'NONE',  ( 43.00643512264615254, -0.04705556975557066701, -28.63393846813326604 ) ) ;
#290 = ORIENTED_EDGE ( 'NONE', *, *, #790, .F. ) ;
#291 = CARTESIAN_POINT ( 'NONE',  ( 49.30514175788400166, 17.74999999999999289, -24.41591708016293794 ) ) ;
#292 = DIRECTION ( 'NONE',  ( -0.5735764363510472696, 0.000000000000000000, -0.8191520442889909104 ) ) ;
#293 = ORIENTED_EDGE ( 'NONE', *, *, #745, .T. ) ;
#294 =( NAMED_UNIT ( * ) PLANE_ANGLE_UNIT ( ) SI_UNIT ( $, .RADIAN. ) );
#295 = ORIENTED_EDGE ( 'NONE', *, *, #136, .T. ) ;
#296 = ADVANCED_FACE ( 'NONE', ( #668 ), #882, .T. ) ;
#297 =( NAMED_UNIT ( * ) PLANE_ANGLE_UNIT ( ) SI_UNIT ( $, .RADIAN. ) );
#298 = EDGE_LOOP ( 'NONE', ( #443, #517, #472, #201, #73, #424 ) ) ;
#299 = APPLICATION_PROTOCOL_DEFINITION ( 'draft international standard', 'automotive_design', 1998, #118 ) ;
#300 = ADVANCED_BREP_SHAPE_REPRESENTATION ( 'camera_mount-shroud', ( #196, #426 ), #908 ) ;
#301 = AXIS2_PLACEMENT_3D ( 'NONE', #84, #822, #445 ) ;
#302 = LINE ( 'NONE', #887, #885 ) ;
#303 = DIRECTION ( 'NONE',  ( 0.000000000000000000, 1.000000000000000000, 0.000000000000000000 ) ) ;
#304 = EDGE_LOOP ( 'NONE', ( #76, #281 ) ) ;
#305 = LINE ( 'NONE', #873, #695 ) ;
#306 = LINE ( 'NONE', #860, #544 ) ;
#307 = CIRCLE ( 'NONE', #831, 2.178645877522431107 ) ;
#308 = CARTESIAN_POINT ( 'NONE',  ( 42.10442004785844006, -17.75000000000000711, -29.83377468946519429 ) ) ;
#309 = VERTEX_POINT ( 'NONE', #166 ) ;
#310 = CARTESIAN_POINT ( 'NONE',  ( 0.000000000000000000, 0.000000000000000000, 35.00000000000000000 ) ) ;
#311 = CARTESIAN_POINT ( 'NONE',  ( 35.79868239381419670, -17.75000000000000711, -38.22149752360932240 ) ) ;
#312 = CARTESIAN_POINT ( 'NONE',  ( 48.11696047379835051, 17.74999999999999289, -18.45226369544805323 ) ) ;
#313 = EDGE_LOOP ( 'NONE', ( #236, #257, #254, #580, #705, #365 ) ) ;
#314 = EDGE_CURVE ( 'NONE', #331, #599, #876, .T. ) ;
#315 = ORIENTED_EDGE ( 'NONE', *, *, #250, .F. ) ;
#316 = VECTOR ( 'NONE', #292, 1000.000000000000227 ) ;
#317 = AXIS2_PLACEMENT_3D ( 'NONE', #722, #369, #406 ) ;
#318 = CARTESIAN_POINT ( 'NONE',  ( 37.79697199796071061, 17.74999999999999289, -39.72377534676985533 ) ) ;
#319 = ORIENTED_EDGE ( 'NONE', *, *, #903, .F. ) ;
#320 = DIRECTION ( 'NONE',  ( -0.8191520442889911324, 0.000000000000000000, 0.5735764363510471586 ) ) ;
#321 = LINE ( 'NONE', #102, #373 ) ;
#322 = DIRECTION ( 'NONE',  ( 0.000000000000000000, 1.000000000000000000, 0.000000000000000000 ) ) ;
#323 = EDGE_CURVE ( 'NONE', #285, #737, #726, .T. ) ;
#324 = DIRECTION ( 'NONE',  ( 0.8191520442889910214, -0.000000000000000000, -0.5735764363510473807 ) ) ;
#325 = ORIENTED_EDGE ( 'NONE', *, *, #383, .F. ) ;
#326 = DIRECTION ( 'NONE',  ( 0.1953967085268146775, 0.000000000000000000, -0.9807242865846073077 ) ) ;
#327 = LINE ( 'NONE', #605, #513 ) ;
#328 = ORIENTED_EDGE ( 'NONE', *, *, #841, .T. ) ;
#329 = DIRECTION ( 'NONE',  ( -0.000000000000000000, -0.000000000000000000, -1.000000000000000000 ) ) ;
#330 = DIRECTION ( 'NONE',  ( 0.8191520442889910214, 0.000000000000000000, -0.5735764363510472696 ) ) ;
#331 = VERTEX_POINT ( 'NONE', #318 ) ;
#332 = DIRECTION ( 'NONE',  ( 0.000000000000000000, 0.000000000000000000, 1.000000000000000000 ) ) ;
#333 = CARTESIAN_POINT ( 'NONE',  ( 45.00472472679265223, -0.04705556975557066701, -30.13621629129377055 ) ) ;
#334 = ADVANCED_FACE ( 'NONE', ( #456, #89 ), #10, .T. ) ;
#335 = VERTEX_POINT ( 'NONE', #527 ) ;
#336 = PLANE ( 'NONE',  #539 ) ;
#337 = LINE ( 'NONE', #28, #913 ) ;
#338 = DIRECTION ( 'NONE',  ( 1.000000000000000000, 0.000000000000000000, -1.275961849201638685E-18 ) ) ;
#339 = DIRECTION ( 'NONE',  ( 0.000000000000000000, 0.000000000000000000, 1.000000000000000000 ) ) ;
#340 = LINE ( 'NONE', #617, #140 ) ;
#341 = CARTESIAN_POINT ( 'NONE',  ( 53.85272483730882698, 15.25000000000000000, -13.64453448899446997 ) ) ;
#342 = FACE_OUTER_BOUND ( 'NONE', #415, .T. ) ;
#343 = COLOUR_RGB ( '',0.7921568627450980005, 0.8196078431372548767, 0.9333333333333333481 ) ;
#344 = CIRCLE ( 'NONE', #46, 2.499999999999998668 ) ;
#345 = DIRECTION ( 'NONE',  ( -0.8191520442889910214, 1.156482317317870985E-16, 0.5735764363510472696 ) ) ;
#346 = ORIENTED_EDGE ( 'NONE', *, *, #357, .T. ) ;
#347 = EDGE_CURVE ( 'NONE', #571, #429, #734, .T. ) ;
#348 = CARTESIAN_POINT ( 'NONE',  ( 35.79868239381419670, -17.75000000000000711, -38.22149752360932240 ) ) ;
#349 = EDGE_CURVE ( 'NONE', #93, #515, #743, .T. ) ;
#350 = CARTESIAN_POINT ( 'NONE',  ( 18.53206680324674949, 15.25000000000000000, 35.00000000000001421 ) ) ;
#351 = DIRECTION ( 'NONE',  ( 1.000000000000000000, 0.000000000000000000, 0.000000000000000000 ) ) ;
#352 = ORIENTED_EDGE ( 'NONE', *, *, #45, .F. ) ;
#353 = DIRECTION ( 'NONE',  ( -1.000000000000000000, 0.000000000000000000, 0.000000000000000000 ) ) ;
#354 = VERTEX_POINT ( 'NONE', #598 ) ;
#355 = DIRECTION ( 'NONE',  ( 1.000000000000000000, 0.000000000000000000, 0.000000000000000000 ) ) ;
#356 =( NAMED_UNIT ( * ) SI_UNIT ( $, .STERADIAN. ) SOLID_ANGLE_UNIT ( ) );
#357 = EDGE_CURVE ( 'NONE', #528, #655, #524, .T. ) ;
#358 = VECTOR ( 'NONE', #374, 1000.000000000000000 ) ;
#359 = VERTEX_POINT ( 'NONE', #600 ) ;
#360 = DIRECTION ( 'NONE',  ( 0.5735764363510463815, -1.387778780781446267E-15, 0.8191520442889916875 ) ) ;
#361 = ORIENTED_EDGE ( 'NONE', *, *, #891, .T. ) ;
#362 = EDGE_CURVE ( 'NONE', #173, #607, #892, .T. ) ;
#363 = ORIENTED_EDGE ( 'NONE', *, *, #323, .T. ) ;
#364 = ORIENTED_EDGE ( 'NONE', *, *, #77, .T. ) ;
#365 = ORIENTED_EDGE ( 'NONE', *, *, #677, .T. ) ;
#366 =( LENGTH_UNIT ( ) NAMED_UNIT ( * ) SI_UNIT ( .MILLI., .METRE. ) );
#367 = ORIENTED_EDGE ( 'NONE', *, *, #444, .T. ) ;
#368 = DIRECTION ( 'NONE',  ( 0.000000000000000000, 0.000000000000000000, 1.000000000000000000 ) ) ;
#369 = DIRECTION ( 'NONE',  ( -0.7993158416586092496, 0.000000000000000000, 0.6009111292642109747 ) ) ;
#370 = ORIENTED_EDGE ( 'NONE', *, *, #880, .T. ) ;
#371 = EDGE_LOOP ( 'NONE', ( #251, #588, #435, #551 ) ) ;
#372 = AXIS2_PLACEMENT_3D ( 'NONE', #341, #402, #683 ) ;
#373 = VECTOR ( 'NONE', #893, 1000.000000000000227 ) ;
#374 = DIRECTION ( 'NONE',  ( 0.8191520442889909104, -3.469446951953613696E-16, -0.5735764363510472696 ) ) ;
#375 = ORIENTED_EDGE ( 'NONE', *, *, #77, .F. ) ;
#376 = VERTEX_POINT ( 'NONE', #386 ) ;
#377 = CARTESIAN_POINT ( 'NONE',  ( 48.11696047379834340, 17.75000000000000355, -13.64453448899446286 ) ) ;
#378 = DIRECTION ( 'NONE',  ( 0.000000000000000000, -1.000000000000000000, 0.000000000000000000 ) ) ;
#379 = EDGE_CURVE ( 'NONE', #691, #185, #157, .T. ) ;
#380 = ORIENTED_EDGE ( 'NONE', *, *, #610, .F. ) ;
#381 = DIRECTION ( 'NONE',  ( -0.8191520442889909104, 0.000000000000000000, 0.5735764363510472696 ) ) ;
#382 = ORIENTED_EDGE ( 'NONE', *, *, #162, .F. ) ;
#383 = EDGE_CURVE ( 'NONE', #871, #579, #660, .T. ) ;
#384 = VECTOR ( 'NONE', #421, 1000.000000000000000 ) ;
#385 = AXIS2_PLACEMENT_3D ( 'NONE', #794, #378, #888 ) ;
#386 = CARTESIAN_POINT ( 'NONE',  ( 16.93184214771645202, 15.25000000000000000, 0.000000000000000000 ) ) ;
#387 = CARTESIAN_POINT ( 'NONE',  ( 48.11696047379835051, 17.74999999999999289, -18.45226369544805323 ) ) ;
#388 = LINE ( 'NONE', #670, #809 ) ;
#389 = ADVANCED_FACE ( 'NONE', ( #163 ), #453, .F. ) ;
#390 = CARTESIAN_POINT ( 'NONE',  ( 54.12264458888088825, -15.25000000000000000, -13.84745525482255246 ) ) ;
#391 = DIRECTION ( 'NONE',  ( 9.473348544150036705E-17, 1.000000000000000000, -6.633310062701856580E-17 ) ) ;
#392 = CARTESIAN_POINT ( 'NONE',  ( 29.27816350863909278, 17.75000000000001066, 3.562758601536951453 ) ) ;
#393 = LINE ( 'NONE', #823, #772 ) ;
#394 = ORIENTED_EDGE ( 'NONE', *, *, #413, .F. ) ;
#395 = VERTEX_POINT ( 'NONE', #392 ) ;
#396 = CARTESIAN_POINT ( 'NONE',  ( 12.74011098918154872, -17.75000000000000000, 18.19476411487288914 ) ) ;
#397 = CARTESIAN_POINT ( 'NONE',  ( 48.11696047379834340, 15.25000000000000000, -6.576372572366150138 ) ) ;
#398 =( BOUNDED_CURVE ( )  B_SPLINE_CURVE ( 3, ( #636, #779, #495, #208 ),
 .UNSPECIFIED., .F., .F. ) 
 B_SPLINE_CURVE_WITH_KNOTS ( ( 4, 4 ),
 ( 4.712388980384689674, 6.283185307179586232 ),
 .UNSPECIFIED. ) 
 CURVE ( )  GEOMETRIC_REPRESENTATION_ITEM ( )  RATIONAL_B_SPLINE_CURVE ( ( 1.000000000000000000, 0.8047378541243649375, 0.8047378541243649375, 1.000000000000000000 ) ) 
 REPRESENTATION_ITEM ( '' )  );
#399 = ORIENTED_EDGE ( 'NONE', *, *, #706, .F. ) ;
#400 = EDGE_CURVE ( 'NONE', #528, #652, #940, .T. ) ;
#401 = CIRCLE ( 'NONE', #852, 22.50000000000000355 ) ;
#402 = DIRECTION ( 'NONE',  ( 0.000000000000000000, -1.000000000000000000, 0.000000000000000000 ) ) ;
#403 = LINE ( 'NONE', #864, #514 ) ;
#404 = DIRECTION ( 'NONE',  ( -0.000000000000000000, -0.000000000000000000, -1.000000000000000000 ) ) ;
#405 = VERTEX_POINT ( 'NONE', #438 ) ;
#406 = DIRECTION ( 'NONE',  ( 0.6009111292642108637, 0.000000000000000000, 0.7993158416586091386 ) ) ;
#407 = FACE_OUTER_BOUND ( 'NONE', #371, .T. ) ;
#408 = EDGE_CURVE ( 'NONE', #770, #900, #519, .T. ) ;
#409 = DIRECTION ( 'NONE',  ( 0.8191520442889909104, 0.000000000000000000, -0.5735764363510472696 ) ) ;
#410 = CIRCLE ( 'NONE', #704, 2.178645877522431107 ) ;
#411 = CYLINDRICAL_SURFACE ( 'NONE', #238, 2.178645877522433327 ) ;
#412 = LINE ( 'NONE', #174, #791 ) ;
#413 = EDGE_CURVE ( 'NONE', #599, #871, #829, .T. ) ;
#414 = CARTESIAN_POINT ( 'NONE',  ( 0.000000000000000000, 0.000000000000000000, 0.000000000000000000 ) ) ;
#415 = EDGE_LOOP ( 'NONE', ( #288, #591, #279, #58 ) ) ;
#416 = LINE ( 'NONE', #479, #606 ) ;
#417 = VECTOR ( 'NONE', #49, 1000.000000000000000 ) ;
#418 = VECTOR ( 'NONE', #464, 1000.000000000000114 ) ;
#419 = EDGE_CURVE ( 'NONE', #135, #501, #340, .T. ) ;
#420 = ORIENTED_EDGE ( 'NONE', *, *, #2, .T. ) ;
#421 = DIRECTION ( 'NONE',  ( 0.8191520442889909104, -3.469446951953613696E-16, -0.5735764363510472696 ) ) ;
#422 = AXIS2_PLACEMENT_3D ( 'NONE', #312, #23, #326 ) ;
#423 = CARTESIAN_POINT ( 'NONE',  ( 17.80663478161814695, -16.24999999999999289, -12.82028228424286986 ) ) ;
#424 = ORIENTED_EDGE ( 'NONE', *, *, #776, .T. ) ;
#425 = CARTESIAN_POINT ( 'NONE',  ( 48.11696047379835051, 16.28553390593274131, -9.628309044269798278 ) ) ;
#426 = AXIS2_PLACEMENT_3D ( 'NONE', #215, #865, #222 ) ;
#427 = VECTOR ( 'NONE', #919, 1000.000000000000000 ) ;
#428 = CARTESIAN_POINT ( 'NONE',  ( -24.00000000000000355, 0.000000000000000000, 35.00000000000000000 ) ) ;
#429 = VERTEX_POINT ( 'NONE', #623 ) ;
#430 = CARTESIAN_POINT ( 'NONE',  ( 18.53206680324674949, -15.25000000000000000, 35.00000000000001421 ) ) ;
#431 = EDGE_LOOP ( 'NONE', ( #79, #754, #851, #933 ) ) ;
#432 = PLANE ( 'NONE',  #676 ) ;
#433 = VECTOR ( 'NONE', #37, 999.9999999999998863 ) ;
#434 = CIRCLE ( 'NONE', #175, 24.00000000000000355 ) ;
#435 = ORIENTED_EDGE ( 'NONE', *, *, #220, .T. ) ;
#436 = CARTESIAN_POINT ( 'NONE',  ( 45.00472472679265223, -0.04705556975557066701, -30.13621629129377055 ) ) ;
#437 = ORIENTED_EDGE ( 'NONE', *, *, #250, .T. ) ;
#438 = CARTESIAN_POINT ( 'NONE',  ( 49.30514175788400166, 17.74999999999999289, -24.41591708016293794 ) ) ;
#439 = CARTESIAN_POINT ( 'NONE',  ( 22.50000000000000711, 5.511256032345750455, -3.898866102110539522 ) ) ;
#440 = PLANE ( 'NONE',  #317 ) ;
#441 = ORIENTED_EDGE ( 'NONE', *, *, #229, .F. ) ;
#442 = CARTESIAN_POINT ( 'NONE',  ( 16.93184214771645202, -15.25000000000000000, 0.000000000000000000 ) ) ;
#443 = ORIENTED_EDGE ( 'NONE', *, *, #510, .F. ) ;
#444 = EDGE_CURVE ( 'NONE', #68, #792, #487, .T. ) ;
#445 = DIRECTION ( 'NONE',  ( 0.000000000000000000, -0.000000000000000000, -1.000000000000000000 ) ) ;
#446 = ORIENTED_EDGE ( 'NONE', *, *, #33, .F. ) ;
#447 = ORIENTED_EDGE ( 'NONE', *, *, #314, .F. ) ;
#448 = CIRCLE ( 'NONE', #760, 24.00000000000000355 ) ;
#449 = ADVANCED_FACE ( 'NONE', ( #773 ), #733, .T. ) ;
#450 = CARTESIAN_POINT ( 'NONE',  ( 16.93184214771645202, 15.25000000000000000, 0.000000000000000000 ) ) ;
#451 = ORIENTED_EDGE ( 'NONE', *, *, #811, .F. ) ;
#452 = DIRECTION ( 'NONE',  ( 0.5735764363510464925, 0.000000000000000000, 0.8191520442889914655 ) ) ;
#453 = CYLINDRICAL_SURFACE ( 'NONE', #595, 2.500000000000000444 ) ;
#454 = DIRECTION ( 'NONE',  ( 0.000000000000000000, 0.000000000000000000, 1.000000000000000000 ) ) ;
#455 = ORIENTED_EDGE ( 'NONE', *, *, #476, .F. ) ;
#456 = FACE_OUTER_BOUND ( 'NONE', #682, .T. ) ;
#457 = CARTESIAN_POINT ( 'NONE',  ( 42.10442004785842585, 0.000000000000000000, -29.83377468946518718 ) ) ;
#458 = CARTESIAN_POINT ( 'NONE',  ( 18.38021121796919033, 15.25000000000000000, -12.00113023995387884 ) ) ;
#459 = DIRECTION ( 'NONE',  ( -0.8191520442889909104, 0.000000000000000000, 0.5735764363510472696 ) ) ;
#460 = EDGE_CURVE ( 'NONE', #185, #767, #816, .T. ) ;
#461 = PRESENTATION_LAYER_ASSIGNMENT (  '', '', ( #83 ) ) ;
#462 = AXIS2_PLACEMENT_3D ( 'NONE', #785, #480, #759 ) ;
#463 = DIRECTION ( 'NONE',  ( -0.8191520442889909104, -0.000000000000000000, 0.5735764363510472696 ) ) ;
#464 = DIRECTION ( 'NONE',  ( -0.4055797876726370821, -0.7071067811865520136, -0.5792279653395647765 ) ) ;
#465 = ORIENTED_EDGE ( 'NONE', *, *, #567, .T. ) ;
#466 = DIRECTION ( 'NONE',  ( -0.5735764363510472696, 0.000000000000000000, -0.8191520442889909104 ) ) ;
#467 = ORIENTED_EDGE ( 'NONE', *, *, #840, .T. ) ;
#468 = FACE_OUTER_BOUND ( 'NONE', #616, .T. ) ;
#469 = FACE_OUTER_BOUND ( 'NONE', #431, .T. ) ;
#470 = DIRECTION ( 'NONE',  ( 1.000000000000000000, -0.000000000000000000, -0.000000000000000000 ) ) ;
#471 = VECTOR ( 'NONE', #736, 1000.000000000000114 ) ;
#472 = ORIENTED_EDGE ( 'NONE', *, *, #460, .F. ) ;
#473 = CARTESIAN_POINT ( 'NONE',  ( 23.82918736330406873, -5.749999999999987566, -4.219185819208568056 ) ) ;
#474 = VECTOR ( 'NONE', #303, 1000.000000000000000 ) ;
#475 = LINE ( 'NONE', #186, #771 ) ;
#476 = EDGE_CURVE ( 'NONE', #7, #620, #104, .T. ) ;
#477 = VERTEX_POINT ( 'NONE', #805 ) ;
#478 = VECTOR ( 'NONE', #96, 1000.000000000000000 ) ;
#479 = CARTESIAN_POINT ( 'NONE',  ( 16.93184214771645202, 15.25000000000000000, 0.000000000000000000 ) ) ;
#480 = DIRECTION ( 'NONE',  ( -0.000000000000000000, -0.000000000000000000, -1.000000000000000000 ) ) ;
#481 = UNCERTAINTY_MEASURE_WITH_UNIT (LENGTH_MEASURE( 1.000000000000000082E-05 ), #366, 'distance_accuracy_value', 'NONE');
#482 = CARTESIAN_POINT ( 'NONE',  ( 29.27816350863909278, -15.24999999999999645, 3.562758601536951453 ) ) ;
#483 = ORIENTED_EDGE ( 'NONE', *, *, #932, .F. ) ;
#484 = DIRECTION ( 'NONE',  ( -0.8191520442889909104, 0.000000000000000000, 0.5735764363510472696 ) ) ;
#485 = PLANE ( 'NONE',  #56 ) ;
#486 = ORIENTED_EDGE ( 'NONE', *, *, #638, .F. ) ;
#487 = LINE ( 'NONE', #350, #14 ) ;
#488 = CYLINDRICAL_SURFACE ( 'NONE', #868, 2.178645877522433327 ) ;
#489 = EDGE_CURVE ( 'NONE', #607, #395, #344, .T. ) ;
#490 = CARTESIAN_POINT ( 'NONE',  ( 0.000000000000000000, 0.000000000000000000, 35.00000000000000000 ) ) ;
#491 = ORIENTED_EDGE ( 'NONE', *, *, #150, .T. ) ;
#492 = DIRECTION ( 'NONE',  ( -0.000000000000000000, -0.000000000000000000, -1.000000000000000000 ) ) ;
#493 = CARTESIAN_POINT ( 'NONE',  ( 30.71210459951671368, 15.25000000000000000, 5.610638712259433447 ) ) ;
#494 = VERTEX_POINT ( 'NONE', #530 ) ;
#495 = CARTESIAN_POINT ( 'NONE',  ( 48.11696047379835051, -16.28553390593273775, -9.628309044269792949 ) ) ;
#496 = VECTOR ( 'NONE', #466, 1000.000000000000227 ) ;
#497 = ORIENTED_EDGE ( 'NONE', *, *, #460, .T. ) ;
#498 = FACE_OUTER_BOUND ( 'NONE', #723, .T. ) ;
#499 = CARTESIAN_POINT ( 'NONE',  ( -22.50000000000000355, 0.000000000000000000, 0.000000000000000000 ) ) ;
#500 = CARTESIAN_POINT ( 'NONE',  ( -0.1653588287170160154, 0.000000000000000000, -0.2361568816294148387 ) ) ;
#501 = VERTEX_POINT ( 'NONE', #881 ) ;
#502 = EDGE_CURVE ( 'NONE', #204, #770, #126, .T. ) ;
#503 = LINE ( 'NONE', #430, #566 ) ;
#504 = VERTEX_POINT ( 'NONE', #721 ) ;
#505 = DIRECTION ( 'NONE',  ( 0.000000000000000000, -1.000000000000000000, 0.000000000000000000 ) ) ;
#506 = ORIENTED_EDGE ( 'NONE', *, *, #400, .T. ) ;
#507 = FACE_OUTER_BOUND ( 'NONE', #648, .T. ) ;
#508 = CYLINDRICAL_SURFACE ( 'NONE', #462, 24.00000000000000355 ) ;
#509 = VERTEX_POINT ( 'NONE', #649 ) ;
#510 = EDGE_CURVE ( 'NONE', #915, #285, #872, .T. ) ;
#511 = FACE_BOUND ( 'NONE', #808, .T. ) ;
#512 = ORIENTED_EDGE ( 'NONE', *, *, #176, .T. ) ;
#513 = VECTOR ( 'NONE', #897, 1000.000000000000000 ) ;
#514 = VECTOR ( 'NONE', #125, 1000.000000000000000 ) ;
#515 = VERTEX_POINT ( 'NONE', #423 ) ;
#516 = SURFACE_STYLE_FILL_AREA ( #199 ) ;
#517 = ORIENTED_EDGE ( 'NONE', *, *, #162, .T. ) ;
#518 = DIRECTION ( 'NONE',  ( 0.000000000000000000, -0.000000000000000000, -1.000000000000000000 ) ) ;
#519 = LINE ( 'NONE', #75, #188 ) ;
#520 = ADVANCED_FACE ( 'NONE', ( #57 ), #63, .F. ) ;
#521 = DIRECTION ( 'NONE',  ( 0.6009111292642109747, -3.905307558276106874E-18, 0.7993158416586091386 ) ) ;
#522 = DIRECTION ( 'NONE',  ( -0.000000000000000000, -0.000000000000000000, -1.000000000000000000 ) ) ;
#523 = ADVANCED_FACE ( 'NONE', ( #782 ), #508, .T. ) ;
#524 = LINE ( 'NONE', #812, #552 ) ;
#525 = ORIENTED_EDGE ( 'NONE', *, *, #666, .T. ) ;
#526 = VECTOR ( 'NONE', #590, 1000.000000000000000 ) ;
#527 = CARTESIAN_POINT ( 'NONE',  ( 22.50000000000000355, 2.755455298081545172E-15, -3.898866102110543075 ) ) ;
#528 = VERTEX_POINT ( 'NONE', #675 ) ;
#529 = EDGE_CURVE ( 'NONE', #494, #309, #39, .T. ) ;
#530 = CARTESIAN_POINT ( 'NONE',  ( 16.93184214771645202, -15.25000000000000000, 0.000000000000000000 ) ) ;
#531 = CARTESIAN_POINT ( 'NONE',  ( 48.11696047379835051, -17.75000000000000711, -18.45226369544805323 ) ) ;
#532 = ORIENTED_EDGE ( 'NONE', *, *, #489, .F. ) ;
#533 = CARTESIAN_POINT ( 'NONE',  ( 42.10442004785844006, 17.75000000000000355, -29.83377468946519429 ) ) ;
#534 = DIRECTION ( 'NONE',  ( -1.136801825298002383E-15, 0.000000000000000000, -1.000000000000000000 ) ) ;
#535 = FACE_OUTER_BOUND ( 'NONE', #145, .T. ) ;
#536 = AXIS2_PLACEMENT_3D ( 'NONE', #277, #51, #360 ) ;
#537 = ORIENTED_EDGE ( 'NONE', *, *, #379, .F. ) ;
#538 = MECHANICAL_DESIGN_GEOMETRIC_PRESENTATION_REPRESENTATION (  '', ( #83 ), #203 ) ;
#539 = AXIS2_PLACEMENT_3D ( 'NONE', #750, #612, #836 ) ;
#540 = CARTESIAN_POINT ( 'NONE',  ( -0.1653588287170160154, 0.000000000000000000, -0.2361568816294148387 ) ) ;
#541 = ADVANCED_FACE ( 'NONE', ( #766 ), #912, .T. ) ;
#542 = ORIENTED_EDGE ( 'NONE', *, *, #841, .F. ) ;
#543 = CARTESIAN_POINT ( 'NONE',  ( 70.98248958069748937, -0.04705556975557066701, -49.66582799238064894 ) ) ;
#544 = VECTOR ( 'NONE', #218, 1000.000000000000227 ) ;
#545 = EDGE_CURVE ( 'NONE', #652, #173, #269, .T. ) ;
#546 = ORIENTED_EDGE ( 'NONE', *, *, #706, .T. ) ;
#547 = DIRECTION ( 'NONE',  ( 1.000000000000000000, 0.000000000000000000, 0.000000000000000000 ) ) ;
#548 = PRODUCT_DEFINITION_FORMATION_WITH_SPECIFIED_SOURCE ( 'ANY', '', #748, .NOT_KNOWN. ) ;
#549 = CARTESIAN_POINT ( 'NONE',  ( 37.79697199796071061, -17.75000000000000711, -39.72377534676985533 ) ) ;
#550 = CARTESIAN_POINT ( 'NONE',  ( 18.53206680324674949, 15.25000000000000000, 35.00000000000001421 ) ) ;
#551 = ORIENTED_EDGE ( 'NONE', *, *, #752, .T. ) ;
#552 = VECTOR ( 'NONE', #806, 1000.000000000000000 ) ;
#553 = VECTOR ( 'NONE', #669, 1000.000000000000000 ) ;
#554 = DIRECTION ( 'NONE',  ( -0.5735764363510472696, 0.000000000000000000, -0.8191520442889909104 ) ) ;
#555 = LINE ( 'NONE', #830, #98 ) ;
#556 = CYLINDRICAL_SURFACE ( 'NONE', #41, 24.00000000000000355 ) ;
#557 = ORIENTED_EDGE ( 'NONE', *, *, #237, .F. ) ;
#558 = EDGE_CURVE ( 'NONE', #802, #528, #412, .T. ) ;
#559 = DIRECTION ( 'NONE',  ( 1.000000000000000000, 0.000000000000000000, 0.000000000000000000 ) ) ;
#560 = PLANE ( 'NONE',  #216 ) ;
#561 = DIRECTION ( 'NONE',  ( 0.8191520442889909104, 0.000000000000000000, -0.5735764363510472696 ) ) ;
#562 = DIRECTION ( 'NONE',  ( -0.8191520442889909104, 0.000000000000000000, 0.5735764363510472696 ) ) ;
#563 = PRODUCT_DEFINITION_CONTEXT ( 'detailed design', #118, 'design' ) ;
#564 = DIRECTION ( 'NONE',  ( -0.000000000000000000, -0.000000000000000000, -1.000000000000000000 ) ) ;
#565 = ORIENTED_EDGE ( 'NONE', *, *, #176, .F. ) ;
#566 = VECTOR ( 'NONE', #522, 1000.000000000000000 ) ;
#567 = EDGE_CURVE ( 'NONE', #515, #744, #403, .T. ) ;
#568 = CARTESIAN_POINT ( 'NONE',  ( 0.000000000000000000, 0.000000000000000000, 35.00000000000000000 ) ) ;
#569 = ORIENTED_EDGE ( 'NONE', *, *, #741, .T. ) ;
#570 = DIRECTION ( 'NONE',  ( 1.000000000000000000, 0.000000000000000000, -0.000000000000000000 ) ) ;
#571 = VERTEX_POINT ( 'NONE', #929 ) ;
#572 = ORIENTED_EDGE ( 'NONE', *, *, #40, .T. ) ;
#573 = EDGE_CURVE ( 'NONE', #18, #867, #924, .T. ) ;
#574 = FACE_OUTER_BOUND ( 'NONE', #764, .T. ) ;
#575 = VECTOR ( 'NONE', #656, 1000.000000000000000 ) ;
#576 = ORIENTED_EDGE ( 'NONE', *, *, #938, .T. ) ;
#577 = EDGE_LOOP ( 'NONE', ( #183, #565, #532, #866 ) ) ;
#578 = APPLICATION_PROTOCOL_DEFINITION ( 'draft international standard', 'automotive_design', 1998, #780 ) ;
#579 = VERTEX_POINT ( 'NONE', #67 ) ;
#580 = ORIENTED_EDGE ( 'NONE', *, *, #181, .F. ) ;
#581 = EDGE_CURVE ( 'NONE', #18, #275, #747, .T. ) ;
#582 = CARTESIAN_POINT ( 'NONE',  ( 22.50000000000000355, 2.755455298081545172E-15, 35.00000000000000000 ) ) ;
#583 = FACE_OUTER_BOUND ( 'NONE', #848, .T. ) ;
#584 = VECTOR ( 'NONE', #128, 1000.000000000000114 ) ;
#585 = VECTOR ( 'NONE', #338, 1000.000000000000000 ) ;
#586 = DIRECTION ( 'NONE',  ( -0.000000000000000000, 1.000000000000000000, -0.000000000000000000 ) ) ;
#587 = PRODUCT_CONTEXT ( 'NONE', #780, 'mechanical' ) ;
#588 = ORIENTED_EDGE ( 'NONE', *, *, #581, .T. ) ;
#589 = CARTESIAN_POINT ( 'NONE',  ( 41.58056679527410182, -17.12126774287333930, -30.53059021359727154 ) ) ;
#590 = DIRECTION ( 'NONE',  ( 1.136801825298002383E-15, 1.989993018810553523E-16, 1.000000000000000000 ) ) ;
#591 = ORIENTED_EDGE ( 'NONE', *, *, #567, .F. ) ;
#592 = CARTESIAN_POINT ( 'NONE',  ( 37.79697199796071061, 17.74999999999999289, -39.72377534676985533 ) ) ;
#593 = DIRECTION ( 'NONE',  ( 1.000000000000000000, 0.000000000000000000, 0.000000000000000000 ) ) ;
#594 = CARTESIAN_POINT ( 'NONE',  ( 29.27816350863909278, 15.25000000000000000, 3.562758601536951453 ) ) ;
#595 = AXIS2_PLACEMENT_3D ( 'NONE', #739, #91, #749 ) ;
#596 = EDGE_CURVE ( 'NONE', #7, #93, #213, .T. ) ;
#597 = VERTEX_POINT ( 'NONE', #200 ) ;
#598 = CARTESIAN_POINT ( 'NONE',  ( -24.00000000000000355, 0.000000000000000000, 0.000000000000000000 ) ) ;
#599 = VERTEX_POINT ( 'NONE', #774 ) ;
#600 = CARTESIAN_POINT ( 'NONE',  ( 42.70567409045242613, 15.25000000000000178, -29.03400271370711039 ) ) ;
#601 = CARTESIAN_POINT ( 'NONE',  ( 0.000000000000000000, 0.000000000000000000, 35.00000000000000000 ) ) ;
#602 = ORIENTED_EDGE ( 'NONE', *, *, #259, .T. ) ;
#603 = CYLINDRICAL_SURFACE ( 'NONE', #738, 2.500000000000000444 ) ;
#604 = CARTESIAN_POINT ( 'NONE',  ( 48.11696047379833630, -15.25000000000000000, -21.83605493188436597 ) ) ;
#605 = CARTESIAN_POINT ( 'NONE',  ( 48.11696047379833630, 17.74999999999999289, -21.83605493188440860 ) ) ;
#606 = VECTOR ( 'NONE', #834, 1000.000000000000227 ) ;
#607 = VERTEX_POINT ( 'NONE', #493 ) ;
#608 = CARTESIAN_POINT ( 'NONE',  ( 44.31560767717497384, -0.04705556975557066701, -26.89251230486535960 ) ) ;
#609 = CARTESIAN_POINT ( 'NONE',  ( 42.70567409045241192, -15.25000000000000000, -29.03400271370711749 ) ) ;
#610 = EDGE_CURVE ( 'NONE', #7, #744, #129, .T. ) ;
#611 = ORIENTED_EDGE ( 'NONE', *, *, #82, .T. ) ;
#612 = DIRECTION ( 'NONE',  ( 1.000000000000000000, 0.000000000000000000, -6.355446462790546549E-16 ) ) ;
#613 = CARTESIAN_POINT ( 'NONE',  ( 70.98248958069748937, -0.04705556975557066701, -49.66582799238064894 ) ) ;
#614 = UNCERTAINTY_MEASURE_WITH_UNIT (LENGTH_MEASURE( 1.000000000000000082E-05 ), #143, 'distance_accuracy_value', 'NONE');
#615 = ADVANCED_FACE ( 'NONE', ( #727 ), #735, .T. ) ;
#616 = EDGE_LOOP ( 'NONE', ( #290, #894, #319, #647 ) ) ;
#617 = CARTESIAN_POINT ( 'NONE',  ( 29.27816350863909278, -15.24999999999999645, 3.562758601536951453 ) ) ;
#618 = CARTESIAN_POINT ( 'NONE',  ( 17.80663478161814339, 16.25000000000000000, -12.82028228424286986 ) ) ;
#619 = EDGE_CURVE ( 'NONE', #792, #354, #434, .T. ) ;
#620 = VERTEX_POINT ( 'NONE', #311 ) ;
#621 = AXIS2_PLACEMENT_3D ( 'NONE', #594, #674, #241 ) ;
#622 = VECTOR ( 'NONE', #97, 1000.000000000000000 ) ;
#623 = CARTESIAN_POINT ( 'NONE',  ( 48.11696047379835051, 17.75000000000000711, -9.628309044269805383 ) ) ;
#624 = DIRECTION ( 'NONE',  ( 0.000000000000000000, 0.000000000000000000, 1.000000000000000000 ) ) ;
#625 = LINE ( 'NONE', #291, #427 ) ;
#626 = ORIENTED_EDGE ( 'NONE', *, *, #131, .T. ) ;
#627 = DIRECTION ( 'NONE',  ( 0.7993158416586081394, 0.000000000000000000, -0.6009111292642121960 ) ) ;
#628 = CARTESIAN_POINT ( 'NONE',  ( 42.38119611028788114, -17.75000000000000711, -30.02757537477429040 ) ) ;
#629 = LINE ( 'NONE', #428, #197 ) ;
#630 = EDGE_LOOP ( 'NONE', ( #352, #925, #155, #315 ) ) ;
#631 = CARTESIAN_POINT ( 'NONE',  ( 16.93184214771644491, 14.81764898642199668, -2.160438461719051777E-17 ) ) ;
#632 = EDGE_CURVE ( 'NONE', #737, #477, #883, .T. ) ;
#633 = ORIENTED_EDGE ( 'NONE', *, *, #581, .F. ) ;
#634 = LINE ( 'NONE', #133, #584 ) ;
#635 = ORIENTED_EDGE ( 'NONE', *, *, #650, .F. ) ;
#636 = CARTESIAN_POINT ( 'NONE',  ( 48.11696047379834340, -15.25000000000000000, -6.576372572366152802 ) ) ;
#637 = VECTOR ( 'NONE', #195, 1000.000000000000227 ) ;
#638 = EDGE_CURVE ( 'NONE', #571, #579, #240, .T. ) ;
#639 = DIRECTION ( 'NONE',  ( -0.4250295206894810218, 0.7069050527390664529, -0.5653628507024917038 ) ) ;
#640 = LINE ( 'NONE', #221, #384 ) ;
#641 = EDGE_LOOP ( 'NONE', ( #572, #24, #859, #230 ) ) ;
#642 = ORIENTED_EDGE ( 'NONE', *, *, #413, .T. ) ;
#643 = ADVANCED_FACE ( 'NONE', ( #17, #583 ), #440, .T. ) ;
#644 = ORIENTED_EDGE ( 'NONE', *, *, #529, .F. ) ;
#645 = CARTESIAN_POINT ( 'NONE',  ( 37.79697199796071061, 17.74999999999999289, -39.72377534676985533 ) ) ;
#646 = DIRECTION ( 'NONE',  ( -0.6009111292642115298, 0.000000000000000000, -0.7993158416586085835 ) ) ;
#647 = ORIENTED_EDGE ( 'NONE', *, *, #131, .F. ) ;
#648 = EDGE_LOOP ( 'NONE', ( #525, #546, #795, #557, #869 ) ) ;
#649 = CARTESIAN_POINT ( 'NONE',  ( -24.00000000000000355, 0.000000000000000000, 35.00000000000000000 ) ) ;
#650 = EDGE_CURVE ( 'NONE', #68, #509, #696, .T. ) ;
#651 = CARTESIAN_POINT ( 'NONE',  ( 0.000000000000000000, 0.000000000000000000, 0.000000000000000000 ) ) ;
#652 = VERTEX_POINT ( 'NONE', #171 ) ;
#653 = DIRECTION ( 'NONE',  ( 0.4055797876726422446, -0.7071067811865431318, 0.5792279653395723260 ) ) ;
#654 = VECTOR ( 'NONE', #179, 1000.000000000000114 ) ;
#655 = VERTEX_POINT ( 'NONE', #757 ) ;
#656 = DIRECTION ( 'NONE',  ( -1.000000000000000000, -0.000000000000000000, -0.000000000000000000 ) ) ;
#657 = DIRECTION ( 'NONE',  ( 1.000000000000000000, 0.000000000000000000, -0.000000000000000000 ) ) ;
#658 = VERTEX_POINT ( 'NONE', #673 ) ;
#659 = CIRCLE ( 'NONE', #536, 2.499999999999999112 ) ;
#660 = LINE ( 'NONE', #531, #172 ) ;
#661 = LINE ( 'NONE', #889, #256 ) ;
#662 = EDGE_CURVE ( 'NONE', #501, #515, #114, .T. ) ;
#663 = LINE ( 'NONE', #8, #815 ) ;
#664 = CARTESIAN_POINT ( 'NONE',  ( 48.11696047379835051, 15.25000000000000000, 35.00000000000001421 ) ) ;
#665 = ORIENTED_EDGE ( 'NONE', *, *, #190, .T. ) ;
#666 = EDGE_CURVE ( 'NONE', #770, #204, #225, .T. ) ;
#667 = AXIS2_PLACEMENT_3D ( 'NONE', #436, #50, #646 ) ;
#668 = FACE_OUTER_BOUND ( 'NONE', #803, .T. ) ;
#669 = DIRECTION ( 'NONE',  ( 0.000000000000000000, -1.000000000000000000, 0.000000000000000000 ) ) ;
#670 = CARTESIAN_POINT ( 'NONE',  ( 16.93184214771645202, -15.25000000000000000, 0.000000000000000000 ) ) ;
#671 = ADVANCED_FACE ( 'NONE', ( #535 ), #336, .T. ) ;
#672 = ORIENTED_EDGE ( 'NONE', *, *, #40, .F. ) ;
#673 = CARTESIAN_POINT ( 'NONE',  ( 16.93184214771645202, -14.81764898642199668, 0.000000000000000000 ) ) ;
#674 = DIRECTION ( 'NONE',  ( -0.8191520442889909104, 0.000000000000000000, 0.5735764363510473807 ) ) ;
#675 = CARTESIAN_POINT ( 'NONE',  ( 48.11696047379835051, -15.25000000000000000, 35.00000000000001421 ) ) ;
#676 = AXIS2_PLACEMENT_3D ( 'NONE', #60, #505, #518 ) ;
#677 = EDGE_CURVE ( 'NONE', #207, #135, #321, .T. ) ;
#678 = CARTESIAN_POINT ( 'NONE',  ( 30.71210459951671368, 17.75000000000000000, 5.610638712259431671 ) ) ;
#679 = EDGE_LOOP ( 'NONE', ( #380, #786, #13, #465 ) ) ;
#680 = LINE ( 'NONE', #191, #787 ) ;
#681 = AXIS2_PLACEMENT_3D ( 'NONE', #264, #624, #559 ) ;
#682 = EDGE_LOOP ( 'NONE', ( #710, #224, #169, #506, #884 ) ) ;
#683 = DIRECTION ( 'NONE',  ( 0.000000000000000000, -0.000000000000000000, -1.000000000000000000 ) ) ;
#684 = DIRECTION ( 'NONE',  ( -1.000000000000000000, 0.000000000000000000, 0.000000000000000000 ) ) ;
#685 = DIRECTION ( 'NONE',  ( 0.000000000000000000, 0.000000000000000000, 1.000000000000000000 ) ) ;
#686 = ORIENTED_EDGE ( 'NONE', *, *, #632, .T. ) ;
#687 = DIRECTION ( 'NONE',  ( -0.5735764363510473807, 0.000000000000000000, -0.8191520442889910214 ) ) ;
#688 = LINE ( 'NONE', #844, #20 ) ;
#689 = EDGE_CURVE ( 'NONE', #135, #494, #393, .T. ) ;
#690 = CIRCLE ( 'NONE', #725, 22.50000000000000355 ) ;
#691 = VERTEX_POINT ( 'NONE', #833 ) ;
#692 = CARTESIAN_POINT ( 'NONE',  ( 35.79868239381419670, 17.74999999999999289, -38.22149752360932240 ) ) ;
#693 = DIRECTION ( 'NONE',  ( -0.8191520442889910214, 0.000000000000000000, 0.5735764363510473807 ) ) ;
#694 = DIRECTION ( 'NONE',  ( 1.000000000000000000, 0.000000000000000000, 0.000000000000000000 ) ) ;
#695 = VECTOR ( 'NONE', #231, 999.9999999999998863 ) ;
#696 = CIRCLE ( 'NONE', #260, 24.00000000000000355 ) ;
#697 = DIRECTION ( 'NONE',  ( 0.7993158416586095827, 0.000000000000000000, -0.6009111292642106417 ) ) ;
#698 = ORIENTED_EDGE ( 'NONE', *, *, #362, .T. ) ;
#699 = ADVANCED_FACE ( 'NONE', ( #468 ), #603, .F. ) ;
#700 = PRESENTATION_STYLE_ASSIGNMENT (( #147 ) ) ;
#701 = CARTESIAN_POINT ( 'NONE',  ( 42.10442004785842585, 0.000000000000000000, -29.83377468946518718 ) ) ;
#702 = EDGE_LOOP ( 'NONE', ( #399, #941, #217, #451, #861 ) ) ;
#703 = LINE ( 'NONE', #80, #182 ) ;
#704 = AXIS2_PLACEMENT_3D ( 'NONE', #289, #134, #796 ) ;
#705 = ORIENTED_EDGE ( 'NONE', *, *, #790, .T. ) ;
#706 = EDGE_CURVE ( 'NONE', #204, #335, #255, .T. ) ;
#707 = VERTEX_POINT ( 'NONE', #608 ) ;
#708 = CARTESIAN_POINT ( 'NONE',  ( 17.80663478161814695, 16.25000000000000000, -12.82028228424286986 ) ) ;
#709 = LINE ( 'NONE', #210, #252 ) ;
#710 = ORIENTED_EDGE ( 'NONE', *, *, #650, .T. ) ;
#711 = VECTOR ( 'NONE', #320, 1000.000000000000000 ) ;
#712 = DIRECTION ( 'NONE',  ( -0.8191520442889909104, -0.000000000000000000, 0.5735764363510472696 ) ) ;
#713 = VECTOR ( 'NONE', #120, 1000.000000000000000 ) ;
#714 =( BOUNDED_CURVE ( )  B_SPLINE_CURVE ( 3, ( #923, #425, #72, #777 ),
 .UNSPECIFIED., .F., .T. ) 
 B_SPLINE_CURVE_WITH_KNOTS ( ( 4, 4 ),
 ( 3.141592653589790451, 4.712388980384689674 ),
 .UNSPECIFIED. ) 
 CURVE ( )  GEOMETRIC_REPRESENTATION_ITEM ( )  RATIONAL_B_SPLINE_CURVE ( ( 1.000000000000000000, 0.8047378541243643824, 0.8047378541243643824, 1.000000000000000000 ) ) 
 REPRESENTATION_ITEM ( '' )  );
#715 = ORIENTED_EDGE ( 'NONE', *, *, #545, .F. ) ;
#716 = ORIENTED_EDGE ( 'NONE', *, *, #82, .F. ) ;
#717 = ORIENTED_EDGE ( 'NONE', *, *, #732, .T. ) ;
#718 = CARTESIAN_POINT ( 'NONE',  ( 29.27816350863909278, 15.25000000000000000, 3.562758601536951453 ) ) ;
#719 = EDGE_CURVE ( 'NONE', #652, #68, #901, .T. ) ;
#720 = ORIENTED_EDGE ( 'NONE', *, *, #769, .F. ) ;
#721 = CARTESIAN_POINT ( 'NONE',  ( 35.79868239381419670, 17.74999999999999289, -38.22149752360932240 ) ) ;
#722 = CARTESIAN_POINT ( 'NONE',  ( 48.11696047379833630, 17.74999999999999289, -21.83605493188440860 ) ) ;
#723 = EDGE_LOOP ( 'NONE', ( #394, #447, #160, #328 ) ) ;
#724 = EDGE_LOOP ( 'NONE', ( #441, #177, #716, #537, #720, #361, #261, #576, #483 ) ) ;
#725 = AXIS2_PLACEMENT_3D ( 'NONE', #414, #339, #694 ) ;
#726 = LINE ( 'NONE', #248, #358 ) ;
#727 = FACE_OUTER_BOUND ( 'NONE', #168, .T. ) ;
#728 = FACE_OUTER_BOUND ( 'NONE', #48, .T. ) ;
#729 = ORIENTED_EDGE ( 'NONE', *, *, #243, .F. ) ;
#730 = AXIS2_PLACEMENT_3D ( 'NONE', #645, #858, #280 ) ;
#731 = ORIENTED_EDGE ( 'NONE', *, *, #357, .F. ) ;
#732 = EDGE_CURVE ( 'NONE', #691, #359, #663, .T. ) ;
#733 = PLANE ( 'NONE',  #899 ) ;
#734 = LINE ( 'NONE', #377, #526 ) ;
#735 = PLANE ( 'NONE',  #385 ) ;
#736 = DIRECTION ( 'NONE',  ( 0.4250295206894790234, 0.7069050527390695615, 0.5653628507024890393 ) ) ;
#737 = VERTEX_POINT ( 'NONE', #533 ) ;
#738 = AXIS2_PLACEMENT_3D ( 'NONE', #396, #896, #26 ) ;
#739 = CARTESIAN_POINT ( 'NONE',  ( 12.74011098918154872, 17.75000000000000000, 18.19476411487288914 ) ) ;
#740 = PLANE ( 'NONE',  #422 ) ;
#741 = EDGE_CURVE ( 'NONE', #52, #597, #820, .T. ) ;
#742 = ORIENTED_EDGE ( 'NONE', *, *, #677, .F. ) ;
#743 = LINE ( 'NONE', #235, #478 ) ;
#744 = VERTEX_POINT ( 'NONE', #798 ) ;
#745 = EDGE_CURVE ( 'NONE', #744, #52, #944, .T. ) ;
#746 = AXIS2_PLACEMENT_3D ( 'NONE', #540, #687, #484 ) ;
#747 = CIRCLE ( 'NONE', #667, 2.178645877522431107 ) ;
#748 = PRODUCT ( 'camera_mount-shroud', 'camera_mount-shroud', '', ( #587 ) ) ;
#749 = DIRECTION ( 'NONE',  ( 0.5735764363510468256, 0.000000000000000000, 0.8191520442889912434 ) ) ;
#750 = CARTESIAN_POINT ( 'NONE',  ( 48.11696047379833630, -15.25000000000000000, -21.83605493188436597 ) ) ;
#751 = PLANE ( 'NONE',  #621 ) ;
#752 = EDGE_CURVE ( 'NONE', #707, #867, #307, .T. ) ;
#753 = CARTESIAN_POINT ( 'NONE',  ( 29.27816350863909278, 15.25000000000000000, 3.562758601536951453 ) ) ;
#754 = ORIENTED_EDGE ( 'NONE', *, *, #150, .F. ) ;
#755 = DIRECTION ( 'NONE',  ( -0.7993158416586081394, 0.000000000000000000, 0.6009111292642121960 ) ) ;
#756 = ORIENTED_EDGE ( 'NONE', *, *, #891, .F. ) ;
#757 = CARTESIAN_POINT ( 'NONE',  ( 48.11696047379834340, -15.25000000000000000, -6.576372572366152802 ) ) ;
#758 = CARTESIAN_POINT ( 'NONE',  ( 35.79868239381419670, 17.74999999999999289, -38.22149752360932240 ) ) ;
#759 = DIRECTION ( 'NONE',  ( -1.000000000000000000, 0.000000000000000000, 0.000000000000000000 ) ) ;
#760 = AXIS2_PLACEMENT_3D ( 'NONE', #651, #286, #351 ) ;
#761 = ORIENTED_EDGE ( 'NONE', *, *, #811, .T. ) ;
#762 = ADVANCED_FACE ( 'NONE', ( #728 ), #740, .T. ) ;
#763 = DIRECTION ( 'NONE',  ( -0.1953967085268146497, -0.000000000000000000, 0.9807242865846073077 ) ) ;
#764 = EDGE_LOOP ( 'NONE', ( #363, #686, #295, #25 ) ) ;
#765 = DIRECTION ( 'NONE',  ( 0.8191520442889911324, 0.000000000000000000, -0.5735764363510471586 ) ) ;
#766 = FACE_OUTER_BOUND ( 'NONE', #198, .T. ) ;
#767 = VERTEX_POINT ( 'NONE', #458 ) ;
#768 = DIRECTION ( 'NONE',  ( 0.6009111292642108637, 0.000000000000000000, 0.7993158416586093606 ) ) ;
#769 = EDGE_CURVE ( 'NONE', #597, #691, #92, .T. ) ;
#770 = VERTEX_POINT ( 'NONE', #11 ) ;
#771 = VECTOR ( 'NONE', #763, 1000.000000000000114 ) ;
#772 = VECTOR ( 'NONE', #249, 1000.000000000000227 ) ;
#773 = FACE_OUTER_BOUND ( 'NONE', #832, .T. ) ;
#774 = CARTESIAN_POINT ( 'NONE',  ( 37.79697199796071061, -17.75000000000000711, -39.72377534676985533 ) ) ;
#775 = ORIENTED_EDGE ( 'NONE', *, *, #379, .T. ) ;
#776 = EDGE_CURVE ( 'NONE', #395, #285, #306, .T. ) ;
#777 = CARTESIAN_POINT ( 'NONE',  ( 48.11696047379834340, 15.25000000000000000, -6.576372572366150138 ) ) ;
#778 = ORIENTED_EDGE ( 'NONE', *, *, #840, .F. ) ;
#779 = CARTESIAN_POINT ( 'NONE',  ( 48.11696047379835051, -15.24999999999999822, -8.364155566106209250 ) ) ;
#780 = APPLICATION_CONTEXT ( 'automotive_design' ) ;
#781 = DIRECTION ( 'NONE',  ( 0.5735764363510473807, -0.000000000000000000, 0.8191520442889910214 ) ) ;
#782 = FACE_OUTER_BOUND ( 'NONE', #630, .T. ) ;
#783 = EDGE_LOOP ( 'NONE', ( #910, #857, #761, #814, #31, #90, #729, #234 ) ) ;
#784 = LINE ( 'NONE', #442, #474 ) ;
#785 = CARTESIAN_POINT ( 'NONE',  ( 0.000000000000000000, 0.000000000000000000, 35.00000000000000000 ) ) ;
#786 = ORIENTED_EDGE ( 'NONE', *, *, #596, .T. ) ;
#787 = VECTOR ( 'NONE', #330, 999.9999999999998863 ) ;
#788 = SURFACE_SIDE_STYLE ('',( #516 ) ) ;
#789 = CARTESIAN_POINT ( 'NONE',  ( 29.27816350863909278, -17.75000000000000711, 3.562758601536951453 ) ) ;
#790 = EDGE_CURVE ( 'NONE', #895, #207, #659, .T. ) ;
#791 = VECTOR ( 'NONE', #470, 1000.000000000000000 ) ;
#792 = VERTEX_POINT ( 'NONE', #62 ) ;
#793 = LINE ( 'NONE', #937, #316 ) ;
#794 = CARTESIAN_POINT ( 'NONE',  ( 53.85272483730882698, -17.75000000000000711, -13.64453448899446997 ) ) ;
#795 = ORIENTED_EDGE ( 'NONE', *, *, #932, .T. ) ;
#796 = DIRECTION ( 'NONE',  ( 0.6009111292642115298, 0.000000000000000000, 0.7993158416586085835 ) ) ;
#797 = EDGE_LOOP ( 'NONE', ( #778, #88, #382, #875 ) ) ;
#798 = CARTESIAN_POINT ( 'NONE',  ( 42.10442004785843295, -16.25000000000000000, -29.83377468946519073 ) ) ;
#799 = CARTESIAN_POINT ( 'NONE',  ( 17.80663478161814695, 15.25000000000000000, -12.82028228424286986 ) ) ;
#800 = AXIS2_PLACEMENT_3D ( 'NONE', #482, #693, #265 ) ;
#801 = CARTESIAN_POINT ( 'NONE',  ( 16.93184214771645202, -15.25000000000000000, 0.000000000000000000 ) ) ;
#802 = VERTEX_POINT ( 'NONE', #122 ) ;
#803 = EDGE_LOOP ( 'NONE', ( #742, #626, #731, #35, #437, #644, #71 ) ) ;
#804 = EDGE_CURVE ( 'NONE', #509, #354, #629, .T. ) ;
#805 = CARTESIAN_POINT ( 'NONE',  ( 42.10442004785844006, 16.25000000000000000, -29.83377468946518718 ) ) ;
#806 = DIRECTION ( 'NONE',  ( -6.355446462790547535E-16, -0.000000000000000000, -1.000000000000000000 ) ) ;
#807 = CARTESIAN_POINT ( 'NONE',  ( 43.00643512264615254, -0.04705556975557066701, -28.63393846813326604 ) ) ;
#808 = EDGE_LOOP ( 'NONE', ( #672, #633 ) ) ;
#809 = VECTOR ( 'NONE', #322, 1000.000000000000000 ) ;
#810 = ORIENTED_EDGE ( 'NONE', *, *, #323, .F. ) ;
#811 = EDGE_CURVE ( 'NONE', #245, #900, #690, .T. ) ;
#812 = CARTESIAN_POINT ( 'NONE',  ( 48.11696047379833630, -15.25000000000000000, -21.83605493188436597 ) ) ;
#813 = PRODUCT_DEFINITION ( 'UNKNOWN', '', #548, #563 ) ;
#814 = ORIENTED_EDGE ( 'NONE', *, *, #237, .T. ) ;
#815 = VECTOR ( 'NONE', #95, 999.9999999999998863 ) ;
#816 = LINE ( 'NONE', #753, #496 ) ;
#817 = PLANE ( 'NONE',  #156 ) ;
#818 =( BOUNDED_CURVE ( )  B_SPLINE_CURVE ( 3, ( #931, #74, #144, #69 ),
 .UNSPECIFIED., .F., .F. ) 
 B_SPLINE_CURVE_WITH_KNOTS ( ( 4, 4 ),
 ( 3.141592653589793116, 3.860499152036137360 ),
 .UNSPECIFIED. ) 
 CURVE ( )  GEOMETRIC_REPRESENTATION_ITEM ( )  RATIONAL_B_SPLINE_CURVE ( ( 1.000000000000000000, 0.9573928599948150486, 0.9573928599948150486, 1.000000000000000000 ) ) 
 REPRESENTATION_ITEM ( '' )  );
#819 = ORIENTED_EDGE ( 'NONE', *, *, #732, .F. ) ;
#820 = LINE ( 'NONE', #390, #193 ) ;
#821 = CARTESIAN_POINT ( 'NONE',  ( 53.85272483730882698, -15.25000000000000000, -13.64453448899446997 ) ) ;
#822 = DIRECTION ( 'NONE',  ( 0.000000000000000000, -1.000000000000000000, 0.000000000000000000 ) ) ;
#823 = CARTESIAN_POINT ( 'NONE',  ( 16.93184214771645202, -15.25000000000000000, 0.000000000000000000 ) ) ;
#824 = ORIENTED_EDGE ( 'NONE', *, *, #903, .T. ) ;
#825 = ADVANCED_FACE ( 'NONE', ( #47 ), #556, .T. ) ;
#826 = AXIS2_PLACEMENT_3D ( 'NONE', #276, #212, #570 ) ;
#827 = VECTOR ( 'NONE', #562, 1000.000000000000000 ) ;
#828 = CARTESIAN_POINT ( 'NONE',  ( 22.50000000000000355, 2.755455298081545172E-15, 35.00000000000000000 ) ) ;
#829 = LINE ( 'NONE', #549, #433 ) ;
#830 = CARTESIAN_POINT ( 'NONE',  ( 35.79868239381419670, 17.74999999999999289, -38.22149752360932240 ) ) ;
#831 = AXIS2_PLACEMENT_3D ( 'NONE', #807, #232, #159 ) ;
#832 = EDGE_LOOP ( 'NONE', ( #920, #930, #272, #756 ) ) ;
#833 = CARTESIAN_POINT ( 'NONE',  ( 48.11696047379833630, 15.25000000000000000, -21.83605493188440860 ) ) ;
#834 = DIRECTION ( 'NONE',  ( -0.8191520442889909104, -0.000000000000000000, 0.5735764363510472696 ) ) ;
#835 = EDGE_CURVE ( 'NONE', #52, #501, #284, .T. ) ;
#836 = DIRECTION ( 'NONE',  ( -6.355446462790546549E-16, 0.000000000000000000, -1.000000000000000000 ) ) ;
#837 = DIRECTION ( 'NONE',  ( -0.7993158416586093606, -0.000000000000000000, 0.6009111292642108637 ) ) ;
#838 = CARTESIAN_POINT ( 'NONE',  ( 41.69726256811733123, -0.04705556975557040333, -30.37536463140116538 ) ) ;
#839 = VECTOR ( 'NONE', #278, 1000.000000000000000 ) ;
#840 = EDGE_CURVE ( 'NONE', #359, #477, #709, .T. ) ;
#841 = EDGE_CURVE ( 'NONE', #405, #871, #625, .T. ) ;
#842 = LINE ( 'NONE', #922, #654 ) ;
#843 = DIRECTION ( 'NONE',  ( -1.000000000000000000, 2.842004563245010888E-16, 0.000000000000000000 ) ) ;
#844 = CARTESIAN_POINT ( 'NONE',  ( 16.93184214771645202, 15.25000000000000000, 0.000000000000000000 ) ) ;
#845 = FACE_OUTER_BOUND ( 'NONE', #219, .T. ) ;
#846 = CARTESIAN_POINT ( 'NONE',  ( -0.1653588287170175697, -16.24999999999999645, -0.2361568816294137285 ) ) ;
#847 = ADVANCED_FACE ( 'NONE', ( #574 ), #274, .F. ) ;
#848 = EDGE_LOOP ( 'NONE', ( #293, #569, #904, #717, #467, #130, #103, #491, #455, #148 ) ) ;
#849 = ADVANCED_FACE ( 'NONE', ( #507 ), #139, .F. ) ;
#850 = CARTESIAN_POINT ( 'NONE',  ( 0.000000000000000000, 0.000000000000000000, 35.00000000000000000 ) ) ;
#851 = ORIENTED_EDGE ( 'NONE', *, *, #61, .T. ) ;
#852 = AXIS2_PLACEMENT_3D ( 'NONE', #78, #368, #355 ) ;
#853 = CARTESIAN_POINT ( 'NONE',  ( 23.54239914512862342, 15.25000000000000000, -4.628761841352954320 ) ) ;
#854 = ORIENTED_EDGE ( 'NONE', *, *, #181, .T. ) ;
#855 = CARTESIAN_POINT ( 'NONE',  ( 42.95477254663892097, -15.25000000000000000, -29.20842333048530648 ) ) ;
#856 = DIRECTION ( 'NONE',  ( -0.000000000000000000, -0.000000000000000000, -1.000000000000000000 ) ) ;
#857 = ORIENTED_EDGE ( 'NONE', *, *, #27, .F. ) ;
#858 = DIRECTION ( 'NONE',  ( 0.7993158416586094717, 0.000000000000000000, -0.6009111292642106417 ) ) ;
#859 = ORIENTED_EDGE ( 'NONE', *, *, #916, .T. ) ;
#860 = CARTESIAN_POINT ( 'NONE',  ( 29.27816350863909278, 17.75000000000001066, 3.562758601536951453 ) ) ;
#861 = ORIENTED_EDGE ( 'NONE', *, *, #229, .T. ) ;
#862 = ADVANCED_FACE ( 'NONE', ( #34 ), #906, .T. ) ;
#863 = FILL_AREA_STYLE_COLOUR ( '', #343 ) ;
#864 = CARTESIAN_POINT ( 'NONE',  ( -0.1653588287170175697, -16.24999999999998934, -0.2361568816294137285 ) ) ;
#865 = DIRECTION ( 'NONE',  ( 0.000000000000000000, 0.000000000000000000, 1.000000000000000000 ) ) ;
#866 = ORIENTED_EDGE ( 'NONE', *, *, #362, .F. ) ;
#867 = VERTEX_POINT ( 'NONE', #838 ) ;
#868 = AXIS2_PLACEMENT_3D ( 'NONE', #613, #38, #768 ) ;
#869 = ORIENTED_EDGE ( 'NONE', *, *, #408, .F. ) ;
#870 = AXIS2_PLACEMENT_3D ( 'NONE', #568, #856, #211 ) ;
#871 = VERTEX_POINT ( 'NONE', #44 ) ;
#872 = LINE ( 'NONE', #799, #839 ) ;
#873 = CARTESIAN_POINT ( 'NONE',  ( 37.79697199796071061, 17.74999999999999289, -39.72377534676985533 ) ) ;
#874 = SHAPE_DEFINITION_REPRESENTATION ( #106, #300 ) ;
#875 = ORIENTED_EDGE ( 'NONE', *, *, #136, .F. ) ;
#876 = LINE ( 'NONE', #592, #283 ) ;
#877 = FACE_OUTER_BOUND ( 'NONE', #298, .T. ) ;
#878 = ADVANCED_FACE ( 'NONE', ( #187 ), #485, .T. ) ;
#879 = ORIENTED_EDGE ( 'NONE', *, *, #545, .T. ) ;
#880 = EDGE_CURVE ( 'NONE', #376, #792, #688, .T. ) ;
#881 = CARTESIAN_POINT ( 'NONE',  ( 18.38021121796918322, -15.24999999999999645, -12.00113023995388772 ) ) ;
#882 = PLANE ( 'NONE',  #301 ) ;
#883 = LINE ( 'NONE', #457, #622 ) ;
#884 = ORIENTED_EDGE ( 'NONE', *, *, #719, .T. ) ;
#885 = VECTOR ( 'NONE', #534, 1000.000000000000000 ) ;
#886 = ADVANCED_FACE ( 'NONE', ( #342 ), #560, .F. ) ;
#887 = CARTESIAN_POINT ( 'NONE',  ( 48.11696047379834340, -17.75000000000000711, -13.64453448899446286 ) ) ;
#888 = DIRECTION ( 'NONE',  ( 0.000000000000000000, -0.000000000000000000, -1.000000000000000000 ) ) ;
#889 = CARTESIAN_POINT ( 'NONE',  ( 53.85272483730882698, -17.75000000000000711, -13.64453448899446997 ) ) ;
#890 = CARTESIAN_POINT ( 'NONE',  ( 18.53206680324674949, 15.25000000000000000, 35.00000000000001421 ) ) ;
#891 = EDGE_CURVE ( 'NONE', #597, #135, #703, .T. ) ;
#892 = LINE ( 'NONE', #170, #711 ) ;
#893 = DIRECTION ( 'NONE',  ( -0.5735764363510472696, 0.000000000000000000, -0.8191520442889909104 ) ) ;
#894 = ORIENTED_EDGE ( 'NONE', *, *, #2, .F. ) ;
#895 = VERTEX_POINT ( 'NONE', #789 ) ;
#896 = DIRECTION ( 'NONE',  ( 0.8191520442889910214, 0.000000000000000000, -0.5735764363510472696 ) ) ;
#897 = DIRECTION ( 'NONE',  ( -0.6009111292642109747, 0.000000000000000000, -0.7993158416586091386 ) ) ;
#898 = CLOSED_SHELL ( 'NONE', ( #70, #849, #523, #825, #202, #334, #520, #282, #671, #296, #907, #111, #541, #15, #847, #449, #862, #615, #94, #699, #389, #886, #878, #762, #209, #167, #643, #121 ) ) ;
#899 = AXIS2_PLACEMENT_3D ( 'NONE', #821, #391, #19 ) ;
#900 = VERTEX_POINT ( 'NONE', #499 ) ;
#901 = LINE ( 'NONE', #890, #575 ) ;
#902 = LINE ( 'NONE', #758, #637 ) ;
#903 = EDGE_CURVE ( 'NONE', #655, #110, #398, .T. ) ;
#904 = ORIENTED_EDGE ( 'NONE', *, *, #769, .T. ) ;
#905 = LINE ( 'NONE', #618, #417 ) ;
#906 = PLANE ( 'NONE',  #800 ) ;
#907 = ADVANCED_FACE ( 'NONE', ( #55 ), #432, .F. ) ;
#908 =( GEOMETRIC_REPRESENTATION_CONTEXT ( 3 ) GLOBAL_UNCERTAINTY_ASSIGNED_CONTEXT ( ( #481 ) ) GLOBAL_UNIT_ASSIGNED_CONTEXT ( ( #366, #294, #356 ) ) REPRESENTATION_CONTEXT ( 'NONE', 'WORKASPACE' ) );
#909 = AXIS2_PLACEMENT_3D ( 'NONE', #500, #781, #561 ) ;
#910 = ORIENTED_EDGE ( 'NONE', *, *, #880, .F. ) ;
#911 = CARTESIAN_POINT ( 'NONE',  ( 23.54239914512861986, -15.24999999999999645, -4.628761841352956097 ) ) ;
#912 = PLANE ( 'NONE',  #914 ) ;
#913 = VECTOR ( 'NONE', #765, 1000.000000000000000 ) ;
#914 = AXIS2_PLACEMENT_3D ( 'NONE', #108, #113, #843 ) ;
#915 = VERTEX_POINT ( 'NONE', #708 ) ;
#916 = EDGE_CURVE ( 'NONE', #867, #707, #410, .T. ) ;
#917 = CARTESIAN_POINT ( 'NONE',  ( 48.11696047379835051, -17.75000000000000355, -9.628309044269808936 ) ) ;
#918 = CARTESIAN_POINT ( 'NONE',  ( -0.1653588287170160154, 16.25000000000000000, -0.2361568816294148387 ) ) ;
#919 = DIRECTION ( 'NONE',  ( 0.000000000000000000, -1.000000000000000000, 0.000000000000000000 ) ) ;
#920 = ORIENTED_EDGE ( 'NONE', *, *, #741, .F. ) ;
#921 = EDGE_CURVE ( 'NONE', #607, #185, #942, .T. ) ;
#922 = CARTESIAN_POINT ( 'NONE',  ( 23.82918736330412202, 5.749999999999998224, -4.219185819208492561 ) ) ;
#923 = CARTESIAN_POINT ( 'NONE',  ( 48.11696047379835051, 17.75000000000000711, -9.628309044269805383 ) ) ;
#924 = LINE ( 'NONE', #287, #142 ) ;
#925 = ORIENTED_EDGE ( 'NONE', *, *, #804, .T. ) ;
#926 = ORIENTED_EDGE ( 'NONE', *, *, #638, .T. ) ;
#927 = AXIS2_PLACEMENT_3D ( 'NONE', #310, #1, #657 ) ;
#928 = PLANE ( 'NONE',  #826 ) ;
#929 = CARTESIAN_POINT ( 'NONE',  ( 48.11696047379833630, 17.75000000000000355, -18.45226369544804967 ) ) ;
#930 = ORIENTED_EDGE ( 'NONE', *, *, #835, .T. ) ;
#931 = CARTESIAN_POINT ( 'NONE',  ( 22.50000000000000355, 2.755455298081545172E-15, -3.898866102110543075 ) ) ;
#932 = EDGE_CURVE ( 'NONE', #335, #658, #818, .T. ) ;
#933 = ORIENTED_EDGE ( 'NONE', *, *, #314, .T. ) ;
#934 = DIRECTION ( 'NONE',  ( -0.000000000000000000, -0.000000000000000000, -1.000000000000000000 ) ) ;
#935 =( NAMED_UNIT ( * ) SI_UNIT ( $, .STERADIAN. ) SOLID_ANGLE_UNIT ( ) );
#936 = EDGE_LOOP ( 'NONE', ( #64, #42 ) ) ;
#937 = CARTESIAN_POINT ( 'NONE',  ( 29.27816350863909278, -17.75000000000000711, 3.562758601536951453 ) ) ;
#938 = EDGE_CURVE ( 'NONE', #494, #658, #784, .T. ) ;
#939 = AXIS2_PLACEMENT_3D ( 'NONE', #333, #697, #273 ) ;
#940 = LINE ( 'NONE', #664, #189 ) ;
#941 = ORIENTED_EDGE ( 'NONE', *, *, #502, .T. ) ;
#942 = LINE ( 'NONE', #718, #165 ) ;
#943 = AXIS2_PLACEMENT_3D ( 'NONE', #601, #332, #36 ) ;
#944 = LINE ( 'NONE', #589, #471 ) ;
ENDSEC;
END-ISO-10303-21;
