ISO-10303-21;
HEADER;
FILE_DESCRIPTION (( 'STEP AP214' ),
    '1' );
FILE_NAME ('cap.STEP',
    '2025-04-29T15:15:52',
    ( '' ),
    ( '' ),
    'SwSTEP 2.0',
    'SolidWorks 2025',
    '' );
FILE_SCHEMA (( 'AUTOMOTIVE_DESIGN' ));
ENDSEC;

DATA;
#1 = DIRECTION ( 'NONE',  ( 1.000000000000000000, 0.000000000000000000, 5.176635134660949682E-15 ) ) ;
#2 =( NAMED_UNIT ( * ) SI_UNIT ( $, .STERADIAN. ) SOLID_ANGLE_UNIT ( ) );
#3 = EDGE_CURVE ( 'NONE', #185, #244, #411, .T. ) ;
#4 = CARTESIAN_POINT ( 'NONE',  ( -16.65304183490741607, -57.30771583061514463, 22.88596281087220063 ) ) ;
#5 = CARTESIAN_POINT ( 'NONE',  ( 13.84695816509263544, -57.63571665902831143, 20.67408228594322850 ) ) ;
#6 = B_SPLINE_CURVE_WITH_KNOTS ( 'NONE', 3,
 ( #493, #318, #138, #49 ),
 .UNSPECIFIED., .F., .F.,
 ( 4, 4 ),
 ( 3.469446951953614189E-18, 0.001059724623435721403 ),
 .UNSPECIFIED. ) ;
#7 = VECTOR ( 'NONE', #769, 1000.000000000000114 ) ;
#8 = ORIENTED_EDGE ( 'NONE', *, *, #798, .T. ) ;
#9 = DIRECTION ( 'NONE',  ( -0.000000000000000000, -0.5735764363510480468, -0.8191520442889905773 ) ) ;
#10 = VERTEX_POINT ( 'NONE', #768 ) ;
#11 = LINE ( 'NONE', #813, #481 ) ;
#12 = ORIENTED_EDGE ( 'NONE', *, *, #839, .F. ) ;
#13 = PLANE ( 'NONE',  #545 ) ;
#14 = ORIENTED_EDGE ( 'NONE', *, *, #393, .F. ) ;
#15 = PLANE ( 'NONE',  #615 ) ;
#16 = DIRECTION ( 'NONE',  ( 0.000000000000000000, -0.5735764363510476027, -0.8191520442889907994 ) ) ;
#17 = ORIENTED_EDGE ( 'NONE', *, *, #1106, .T. ) ;
#18 = ADVANCED_FACE ( 'NONE', ( #763 ), #507, .F. ) ;
#19 = ORIENTED_EDGE ( 'NONE', *, *, #287, .F. ) ;
#20 = LINE ( 'NONE', #282, #711 ) ;
#21 = CARTESIAN_POINT ( 'NONE',  ( 17.34695816509255906, -86.95999149627436964, 24.99601771193151833 ) ) ;
#22 = VECTOR ( 'NONE', #497, 1000.000000000000000 ) ;
#23 = STYLED_ITEM ( 'NONE', ( #665 ), #945 ) ;
#24 = EDGE_CURVE ( 'NONE', #1132, #662, #512, .T. ) ;
#25 = ORIENTED_EDGE ( 'NONE', *, *, #371, .T. ) ;
#26 = FACE_OUTER_BOUND ( 'NONE', #1002, .T. ) ;
#27 = PRESENTATION_LAYER_ASSIGNMENT (  '', '', ( #619 ) ) ;
#28 = CARTESIAN_POINT ( 'NONE',  ( -16.65304183490741607, -57.30771583061514463, 22.88596281087220063 ) ) ;
#29 = ORIENTED_EDGE ( 'NONE', *, *, #516, .F. ) ;
#30 = VERTEX_POINT ( 'NONE', #495 ) ;
#31 = DIRECTION ( 'NONE',  ( 1.111333213958269158E-16, -0.5735764363510474917, -0.8191520442889909104 ) ) ;
#32 = ADVANCED_FACE ( 'NONE', ( #158, #56 ), #62, .F. ) ;
#33 = FACE_OUTER_BOUND ( 'NONE', #536, .T. ) ;
#34 = ORIENTED_EDGE ( 'NONE', *, *, #398, .T. ) ;
#35 = LINE ( 'NONE', #432, #891 ) ;
#36 = VERTEX_POINT ( 'NONE', #256 ) ;
#37 = FACE_OUTER_BOUND ( 'NONE', #462, .T. ) ;
#38 = EDGE_CURVE ( 'NONE', #10, #659, #946, .T. ) ;
#39 = CARTESIAN_POINT ( 'NONE',  ( -15.65304183490752088, -51.75074141399895211, 40.41110212339562935 ) ) ;
#40 = EDGE_LOOP ( 'NONE', ( #1007, #982, #627, #835 ) ) ;
#41 = APPLICATION_CONTEXT ( 'automotive_design' ) ;
#42 = VECTOR ( 'NONE', #970, 1000.000000000000114 ) ;
#43 = EDGE_LOOP ( 'NONE', ( #34, #748, #703, #394 ) ) ;
#44 = VECTOR ( 'NONE', #971, 1000.000000000000000 ) ;
#45 = PLANE ( 'NONE',  #641 ) ;
#46 = PRESENTATION_LAYER_ASSIGNMENT (  '', '', ( #985 ) ) ;
#47 = VECTOR ( 'NONE', #727, 1000.000000000000000 ) ;
#48 = EDGE_LOOP ( 'NONE', ( #643, #115, #955, #539 ) ) ;
#49 = CARTESIAN_POINT ( 'NONE',  ( -1.903041834907660323, -22.33563241719633297, 71.08782723374407908 ) ) ;
#50 = ADVANCED_FACE ( 'NONE', ( #1115 ), #774, .T. ) ;
#51 = ORIENTED_EDGE ( 'NONE', *, *, #398, .F. ) ;
#52 = CARTESIAN_POINT ( 'NONE',  ( 13.84695816509248445, -52.97946948043244220, 41.27146677792234186 ) ) ;
#53 = DIRECTION ( 'NONE',  ( 2.977067850650932983E-15, 0.8191520442889909104, -0.5735764363510474917 ) ) ;
#54 = ORIENTED_EDGE ( 'NONE', *, *, #937, .F. ) ;
#55 = EDGE_CURVE ( 'NONE', #1090, #149, #147, .T. ) ;
#56 = FACE_OUTER_BOUND ( 'NONE', #137, .T. ) ;
#57 = DIRECTION ( 'NONE',  ( 0.000000000000000000, 0.8191520442889909104, -0.5735764363510473807 ) ) ;
#58 = FACE_OUTER_BOUND ( 'NONE', #195, .T. ) ;
#59 = ORIENTED_EDGE ( 'NONE', *, *, #663, .F. ) ;
#60 = LINE ( 'NONE', #1109, #524 ) ;
#61 = VECTOR ( 'NONE', #53, 1000.000000000000114 ) ;
#62 = PLANE ( 'NONE',  #355 ) ;
#63 = CARTESIAN_POINT ( 'NONE',  ( -19.15304183490735568, -64.43331027832699931, 9.222665712277635208 ) ) ;
#64 = VECTOR ( 'NONE', #400, 1000.000000000000000 ) ;
#65 = CARTESIAN_POINT ( 'NONE',  ( -0.9030418349075678419, -35.11382625266845992, 51.09522838222908803 ) ) ;
#66 = EDGE_LOOP ( 'NONE', ( #935, #8, #725 ) ) ;
#67 = DIRECTION ( 'NONE',  ( -1.000000000000000000, 2.506536964654980299E-15, -1.610653634666519493E-15 ) ) ;
#68 = VECTOR ( 'NONE', #875, 1000.000000000000000 ) ;
#69 = ORIENTED_EDGE ( 'NONE', *, *, #342, .T. ) ;
#70 = CARTESIAN_POINT ( 'NONE',  ( 14.84695816509258748, -58.45486870331731666, 21.24765872229427188 ) ) ;
#71 = ADVANCED_FACE ( 'NONE', ( #579 ), #399, .T. ) ;
#72 = DIRECTION ( 'NONE',  ( -3.035766082959354434E-15, -0.8191520442889909104, 0.5735764363510477137 ) ) ;
#73 = ORIENTED_EDGE ( 'NONE', *, *, #264, .T. ) ;
#74 = LINE ( 'NONE', #775, #1032 ) ;
#75 = DIRECTION ( 'NONE',  ( 2.438671215847742689E-15, 1.000000000000000000, 0.000000000000000000 ) ) ;
#76 = EDGE_CURVE ( 'NONE', #120, #295, #409, .T. ) ;
#77 = ORIENTED_EDGE ( 'NONE', *, *, #919, .T. ) ;
#78 = LINE ( 'NONE', #331, #203 ) ;
#79 = VERTEX_POINT ( 'NONE', #1119 ) ;
#80 = CARTESIAN_POINT ( 'NONE',  ( 0.09695816509234186920, -21.29217032706444712, 71.27276815396876941 ) ) ;
#81 = DIRECTION ( 'NONE',  ( -2.977067850650932194E-15, -0.8191520442889909104, 0.5735764363510473807 ) ) ;
#82 = AXIS2_PLACEMENT_3D ( 'NONE', #186, #454, #896 ) ;
#83 = ORIENTED_EDGE ( 'NONE', *, *, #566, .T. ) ;
#84 = PRESENTATION_STYLE_ASSIGNMENT (( #506 ) ) ;
#85 = PRODUCT_RELATED_PRODUCT_CATEGORY ( 'part', '', ( #1085 ) ) ;
#86 = ADVANCED_FACE ( 'NONE', ( #882 ), #13, .F. ) ;
#87 = VECTOR ( 'NONE', #405, 1000.000000000000000 ) ;
#88 = COLOUR_RGB ( '',0.7921568627450980005, 0.8196078431372548767, 0.9333333333333333481 ) ;
#89 = SURFACE_SIDE_STYLE ('',( #876 ) ) ;
#90 = CARTESIAN_POINT ( 'NONE',  ( -16.65304183490748713, -45.87793979658122367, 35.72248108014425583 ) ) ;
#91 = DIRECTION ( 'NONE',  ( 2.977067850650932983E-15, 0.8191520442889909104, -0.5735764363510474917 ) ) ;
#92 = EDGE_CURVE ( 'NONE', #109, #220, #532, .T. ) ;
#93 = CARTESIAN_POINT ( 'NONE',  ( -16.65304183490735568, -62.99936918744946013, 11.27054582300000618 ) ) ;
#94 = ORIENTED_EDGE ( 'NONE', *, *, #107, .F. ) ;
#95 = LINE ( 'NONE', #436, #42 ) ;
#96 = DIRECTION ( 'NONE',  ( -9.593925669369547955E-17, 0.5735764363510474917, 0.8191520442889907994 ) ) ;
#97 = ORIENTED_EDGE ( 'NONE', *, *, #457, .T. ) ;
#98 = CARTESIAN_POINT ( 'NONE',  ( -1.903041834907658103, -21.29217032706442936, 71.27276815396875520 ) ) ;
#99 = PLANE ( 'NONE',  #139 ) ;
#100 = AXIS2_PLACEMENT_3D ( 'NONE', #856, #872, #1113 ) ;
#101 = DIRECTION ( 'NONE',  ( -4.881584643547392995E-15, 0.5735764363510474917, 0.8191520442889907994 ) ) ;
#102 = VECTOR ( 'NONE', #333, 1000.000000000000000 ) ;
#103 = ORIENTED_EDGE ( 'NONE', *, *, #883, .F. ) ;
#104 = VECTOR ( 'NONE', #520, 1000.000000000000114 ) ;
#105 = VERTEX_POINT ( 'NONE', #887 ) ;
#106 = LINE ( 'NONE', #4, #1122 ) ;
#107 = EDGE_CURVE ( 'NONE', #30, #295, #967, .T. ) ;
#108 = DIRECTION ( 'NONE',  ( 0.000000000000000000, 0.5735764363510432728, 0.8191520442889936859 ) ) ;
#109 = VERTEX_POINT ( 'NONE', #93 ) ;
#110 = LINE ( 'NONE', #176, #104 ) ;
#111 = ORIENTED_EDGE ( 'NONE', *, *, #509, .F. ) ;
#112 = CARTESIAN_POINT ( 'NONE',  ( -16.65304183490737699, -69.14300951961696740, 15.57236909563290617 ) ) ;
#113 = DIRECTION ( 'NONE',  ( 2.977067850650933772E-15, 0.8191520442889909104, -0.5735764363510476027 ) ) ;
#114 = ADVANCED_FACE ( 'NONE', ( #267 ), #370, .F. ) ;
#115 = ORIENTED_EDGE ( 'NONE', *, *, #129, .T. ) ;
#116 = EDGE_LOOP ( 'NONE', ( #606, #199, #1024, #373 ) ) ;
#117 = DIRECTION ( 'NONE',  ( 5.182688860570757449E-15, 0.000000000000000000, -1.000000000000000000 ) ) ;
#118 = FACE_OUTER_BOUND ( 'NONE', #273, .T. ) ;
#119 = CIRCLE ( 'NONE', #1068, 27.00000000000001421 ) ;
#120 = VERTEX_POINT ( 'NONE', #980 ) ;
#121 = B_SPLINE_CURVE_WITH_KNOTS ( 'NONE', 3,
 ( #757, #1095, #231, #923 ),
 .UNSPECIFIED., .F., .F.,
 ( 4, 4 ),
 ( 1.951563910473907981E-18, 0.001003698525236779984 ),
 .UNSPECIFIED. ) ;
#122 = VECTOR ( 'NONE', #957, 1000.000000000000114 ) ;
#123 = EDGE_CURVE ( 'NONE', #820, #325, #110, .T. ) ;
#124 = ORIENTED_EDGE ( 'NONE', *, *, #234, .T. ) ;
#125 = LINE ( 'NONE', #818, #777 ) ;
#126 = VECTOR ( 'NONE', #589, 1000.000000000000114 ) ;
#127 = CARTESIAN_POINT ( 'NONE',  ( 14.84695816509258748, -57.30771583061520857, 22.88596281087225393 ) ) ;
#128 = ORIENTED_EDGE ( 'NONE', *, *, #1118, .T. ) ;
#129 = EDGE_CURVE ( 'NONE', #301, #10, #1055, .T. ) ;
#130 = ORIENTED_EDGE ( 'NONE', *, *, #476, .T. ) ;
#131 = CARTESIAN_POINT ( 'NONE',  ( 13.84695816509248445, -52.97946948043244220, 41.27146677792234186 ) ) ;
#132 = PLANE ( 'NONE',  #690 ) ;
#133 = VERTEX_POINT ( 'NONE', #193 ) ;
#134 = CARTESIAN_POINT ( 'NONE',  ( 13.84695816509248267, -69.79816114969938212, 17.25188579444861858 ) ) ;
#135 = VERTEX_POINT ( 'NONE', #277 ) ;
#136 = FILL_AREA_STYLE_COLOUR ( '', #744 ) ;
#137 = EDGE_LOOP ( 'NONE', ( #103, #418, #222, #54 ) ) ;
#138 = CARTESIAN_POINT ( 'NONE',  ( -1.903041834907659657, -21.98780934911613016, 71.14946082606141431 ) ) ;
#139 = AXIS2_PLACEMENT_3D ( 'NONE', #797, #540, #890 ) ;
#140 = ORIENTED_EDGE ( 'NONE', *, *, #167, .T. ) ;
#141 = DIRECTION ( 'NONE',  ( 2.958228394578794270E-30, 0.5735764363510479358, 0.8191520442889904663 ) ) ;
#142 = FACE_OUTER_BOUND ( 'NONE', #750, .T. ) ;
#143 = ADVANCED_FACE ( 'NONE', ( #963, #188 ), #343, .T. ) ;
#144 = VECTOR ( 'NONE', #1099, 1000.000000000000227 ) ;
#145 = ORIENTED_EDGE ( 'NONE', *, *, #966, .F. ) ;
#146 = LINE ( 'NONE', #134, #600 ) ;
#147 = LINE ( 'NONE', #233, #1001 ) ;
#148 = CARTESIAN_POINT ( 'NONE',  ( 14.84695816509258748, -57.30771583061520857, 22.88596281087225393 ) ) ;
#149 = VERTEX_POINT ( 'NONE', #98 ) ;
#150 = CARTESIAN_POINT ( 'NONE',  ( 14.84695816509263722, -62.99936918744946013, 11.27054582300016961 ) ) ;
#151 = ORIENTED_EDGE ( 'NONE', *, *, #642, .F. ) ;
#152 = CARTESIAN_POINT ( 'NONE',  ( -19.15304183490743384, -86.95999149627428437, 24.99601771193145794 ) ) ;
#153 = LINE ( 'NONE', #172, #178 ) ;
#154 = EDGE_LOOP ( 'NONE', ( #140, #381, #689, #385 ) ) ;
#155 = CARTESIAN_POINT ( 'NONE',  ( 13.84695816509248623, -68.56943308326590625, 16.39152113992205884 ) ) ;
#156 = ADVANCED_FACE ( 'NONE', ( #184 ), #527, .T. ) ;
#157 = VECTOR ( 'NONE', #382, 1000.000000000000000 ) ;
#158 = FACE_BOUND ( 'NONE', #969, .T. ) ;
#159 = LINE ( 'NONE', #947, #501 ) ;
#160 = AXIS2_PLACEMENT_3D ( 'NONE', #841, #609, #939 ) ;
#161 = DIRECTION ( 'NONE',  ( -2.958228394578793920E-30, -0.5735764363510480468, -0.8191520442889905773 ) ) ;
#162 = EDGE_LOOP ( 'NONE', ( #630, #544, #874, #547 ) ) ;
#163 = FACE_OUTER_BOUND ( 'NONE', #889, .T. ) ;
#164 = AXIS2_PLACEMENT_3D ( 'NONE', #584, #221, #746 ) ;
#165 = ORIENTED_EDGE ( 'NONE', *, *, #1134, .F. ) ;
#166 = CARTESIAN_POINT ( 'NONE',  ( 14.84695816509248090, -54.06946023947119073, 41.45824544365493125 ) ) ;
#167 = EDGE_CURVE ( 'NONE', #431, #211, #699, .T. ) ;
#168 = PLANE ( 'NONE',  #319 ) ;
#169 = ORIENTED_EDGE ( 'NONE', *, *, #566, .F. ) ;
#170 = VERTEX_POINT ( 'NONE', #801 ) ;
#171 = DIRECTION ( 'NONE',  ( -4.242329511654283660E-15, 0.5735764363510473807, 0.8191520442889909104 ) ) ;
#172 = CARTESIAN_POINT ( 'NONE',  ( -16.65304183490750134, -45.87793979658120946, 35.72248108014425583 ) ) ;
#173 = ADVANCED_FACE ( 'NONE', ( #956 ), #546, .T. ) ;
#174 = VERTEX_POINT ( 'NONE', #719 ) ;
#175 =( NAMED_UNIT ( * ) SI_UNIT ( $, .STERADIAN. ) SOLID_ANGLE_UNIT ( ) );
#176 = CARTESIAN_POINT ( 'NONE',  ( 14.84695816509263722, -62.99936918744946013, 11.27054582300016961 ) ) ;
#177 = PLANE ( 'NONE',  #160 ) ;
#178 = VECTOR ( 'NONE', #81, 1000.000000000000114 ) ;
#179 = CARTESIAN_POINT ( 'NONE',  ( -16.65304183490738765, -71.19088963033944140, 17.00631018651052884 ) ) ;
#180 = VERTEX_POINT ( 'NONE', #791 ) ;
#181 = DIRECTION ( 'NONE',  ( -2.172944164237808710E-15, -0.1736481776669117905, 0.9848077530122113510 ) ) ;
#182 = ADVANCED_FACE ( 'NONE', ( #452 ), #1129, .T. ) ;
#183 = VECTOR ( 'NONE', #9, 1000.000000000000114 ) ;
#184 = FACE_OUTER_BOUND ( 'NONE', #668, .T. ) ;
#185 = VERTEX_POINT ( 'NONE', #1060 ) ;
#186 = CARTESIAN_POINT ( 'NONE',  ( -16.65304183490750844, -58.45486870331723139, 21.24765872229421859 ) ) ;
#187 = DIRECTION ( 'NONE',  ( 4.416671820352404388E-15, -0.5735764363510474917, -0.8191520442889909104 ) ) ;
#188 = FACE_BOUND ( 'NONE', #734, .T. ) ;
#189 = CYLINDRICAL_SURFACE ( 'NONE', #960, 24.50000000000001066 ) ;
#190 = FACE_OUTER_BOUND ( 'NONE', #162, .T. ) ;
#191 = EDGE_LOOP ( 'NONE', ( #1010, #761, #361 ) ) ;
#192 = MANIFOLD_SOLID_BREP ( 'Chamfer2', #324 ) ;
#193 = CARTESIAN_POINT ( 'NONE',  ( 14.84695816509261590, -69.14300951961696740, 15.57236909563306604 ) ) ;
#194 = ADVANCED_FACE ( 'NONE', ( #300 ), #262, .T. ) ;
#195 = EDGE_LOOP ( 'NONE', ( #576, #881, #83 ) ) ;
#196 = DIRECTION ( 'NONE',  ( -2.604503967415291815E-15, -1.000000000000000000, 0.000000000000000000 ) ) ;
#197 = AXIS2_PLACEMENT_3D ( 'NONE', #568, #1005, #993 ) ;
#198 = LINE ( 'NONE', #880, #834 ) ;
#199 = ORIENTED_EDGE ( 'NONE', *, *, #307, .F. ) ;
#200 =( GEOMETRIC_REPRESENTATION_CONTEXT ( 3 ) GLOBAL_UNCERTAINTY_ASSIGNED_CONTEXT ( ( #1093 ) ) GLOBAL_UNIT_ASSIGNED_CONTEXT ( ( #557, #1079, #824 ) ) REPRESENTATION_CONTEXT ( 'NONE', 'WORKASPACE' ) );
#201 = B_SPLINE_CURVE_WITH_KNOTS ( 'NONE', 3,
 ( #263, #677, #764, #1029 ),
 .UNSPECIFIED., .F., .F.,
 ( 4, 4 ),
 ( 0.000000000000000000, 0.001059724623435638786 ),
 .UNSPECIFIED. ) ;
#202 = DIRECTION ( 'NONE',  ( 2.977067850650932983E-15, 0.8191520442889907994, -0.5735764363510474917 ) ) ;
#203 = VECTOR ( 'NONE', #91, 1000.000000000000114 ) ;
#204 = EDGE_CURVE ( 'NONE', #453, #149, #121, .T. ) ;
#205 = CARTESIAN_POINT ( 'NONE',  ( 0.09695816509233931568, -21.98780934911613727, 71.14946082606141431 ) ) ;
#206 = CARTESIAN_POINT ( 'NONE',  ( -16.65304183490752976, -54.06946023947119073, 41.45824544365477493 ) ) ;
#207 = ORIENTED_EDGE ( 'NONE', *, *, #671, .F. ) ;
#208 = FACE_OUTER_BOUND ( 'NONE', #191, .T. ) ;
#209 = DIRECTION ( 'NONE',  ( 0.000000000000000000, 0.5735764363510471586, 0.8191520442889910214 ) ) ;
#210 = EDGE_CURVE ( 'NONE', #10, #517, #146, .T. ) ;
#211 = VERTEX_POINT ( 'NONE', #312 ) ;
#212 = CARTESIAN_POINT ( 'NONE',  ( 0.09695816509233870506, -22.33563241719633652, 71.08782723374407908 ) ) ;
#213 = CARTESIAN_POINT ( 'NONE',  ( 14.84695816509261590, -69.14300951961696740, 15.57236909563306604 ) ) ;
#214 = ORIENTED_EDGE ( 'NONE', *, *, #984, .T. ) ;
#215 = EDGE_CURVE ( 'NONE', #564, #978, #747, .T. ) ;
#216 = VECTOR ( 'NONE', #171, 1000.000000000000114 ) ;
#217 = ORIENTED_EDGE ( 'NONE', *, *, #330, .F. ) ;
#218 = CARTESIAN_POINT ( 'NONE',  ( -15.65304183490750312, -57.63571665902824748, 20.67408228594317521 ) ) ;
#219 = CARTESIAN_POINT ( 'NONE',  ( -16.65304183490750134, -45.87793979658120946, 35.72248108014425583 ) ) ;
#220 = VERTEX_POINT ( 'NONE', #150 ) ;
#221 = DIRECTION ( 'NONE',  ( -1.000000000000000000, 2.374927761401669481E-15, -1.798611055961651480E-15 ) ) ;
#222 = ORIENTED_EDGE ( 'NONE', *, *, #582, .F. ) ;
#223 = ORIENTED_EDGE ( 'NONE', *, *, #1045, .F. ) ;
#224 = PRODUCT_DEFINITION_SHAPE ( 'NONE', 'NONE',  #1096 ) ;
#225 = VERTEX_POINT ( 'NONE', #326 ) ;
#226 =( NAMED_UNIT ( * ) PLANE_ANGLE_UNIT ( ) SI_UNIT ( $, .RADIAN. ) );
#227 = EDGE_CURVE ( 'NONE', #662, #1083, #838, .T. ) ;
#228 = DIRECTION ( 'NONE',  ( 2.438671215847744266E-15, 1.000000000000000000, 0.000000000000000000 ) ) ;
#229 = UNCERTAINTY_MEASURE_WITH_UNIT (LENGTH_MEASURE( 1.000000000000000082E-05 ), #395, 'distance_accuracy_value', 'NONE');
#230 = ORIENTED_EDGE ( 'NONE', *, *, #204, .T. ) ;
#231 = CARTESIAN_POINT ( 'NONE',  ( -1.572143851533848613, -21.23535301259996544, 71.26839854155231535 ) ) ;
#232 = VECTOR ( 'NONE', #760, 1000.000000000000114 ) ;
#233 = CARTESIAN_POINT ( 'NONE',  ( -1.903041834907663210, -22.72460213422201392, 72.27576770331185685 ) ) ;
#234 = EDGE_CURVE ( 'NONE', #1090, #1132, #1100, .T. ) ;
#235 = FACE_OUTER_BOUND ( 'NONE', #48, .T. ) ;
#236 = VECTOR ( 'NONE', #821, 1000.000000000000227 ) ;
#237 = ORIENTED_EDGE ( 'NONE', *, *, #621, .F. ) ;
#238 = CARTESIAN_POINT ( 'NONE',  ( -1.572143851533853276, -22.54226861138150895, 72.18351069562301348 ) ) ;
#239 = CARTESIAN_POINT ( 'NONE',  ( 0.09695816509233647074, -23.15478446148530267, 71.66140367009511181 ) ) ;
#240 = CARTESIAN_POINT ( 'NONE',  ( 13.84695816509248445, -52.97946948043243509, 41.27146677792234186 ) ) ;
#241 = LINE ( 'NONE', #865, #22 ) ;
#242 = CARTESIAN_POINT ( 'NONE',  ( -0.9030418349075900464, -41.25746658483595297, 55.39705165486200400 ) ) ;
#243 = EDGE_CURVE ( 'NONE', #149, #180, #6, .T. ) ;
#244 = VERTEX_POINT ( 'NONE', #1023 ) ;
#245 = DIRECTION ( 'NONE',  ( -2.958228394578793920E-30, -0.5735764363510480468, -0.8191520442889905773 ) ) ;
#246 = CARTESIAN_POINT ( 'NONE',  ( -16.65304183490747292, -47.56863560423500559, 33.30791723243630287 ) ) ;
#247 = EDGE_LOOP ( 'NONE', ( #640, #951, #756, #916 ) ) ;
#248 = LINE ( 'NONE', #867, #68 ) ;
#249 = ADVANCED_FACE ( 'NONE', ( #473 ), #571, .F. ) ;
#250 = VECTOR ( 'NONE', #587, 1000.000000000000000 ) ;
#251 = DIRECTION ( 'NONE',  ( -2.977067850650932983E-15, -0.8191520442889909104, 0.5735764363510474917 ) ) ;
#252 = FACE_OUTER_BOUND ( 'NONE', #1017, .T. ) ;
#253 = CARTESIAN_POINT ( 'NONE',  ( -0.5672382583868278427, -21.20634474524101876, 71.26608241787195652 ) ) ;
#254 = ORIENTED_EDGE ( 'NONE', *, *, #1051, .F. ) ;
#255 = AXIS2_PLACEMENT_3D ( 'NONE', #1088, #930, #565 ) ;
#256 = CARTESIAN_POINT ( 'NONE',  ( -19.15304183490743384, -86.95999149627428437, 24.99601771193145794 ) ) ;
#257 = CARTESIAN_POINT ( 'NONE',  ( -16.65304183490750844, -58.45486870331723139, 21.24765872229421859 ) ) ;
#258 = EDGE_CURVE ( 'NONE', #220, #133, #60, .T. ) ;
#259 = LINE ( 'NONE', #1046, #298 ) ;
#260 = ORIENTED_EDGE ( 'NONE', *, *, #293, .T. ) ;
#261 = DIRECTION ( 'NONE',  ( -2.977067850650932983E-15, -0.8191520442889907994, 0.5735764363510474917 ) ) ;
#262 = PLANE ( 'NONE',  #164 ) ;
#263 = CARTESIAN_POINT ( 'NONE',  ( 0.09695816509233741443, -22.51872985280156669, 72.13161437995283620 ) ) ;
#264 = EDGE_CURVE ( 'NONE', #109, #785, #680, .T. ) ;
#265 = CARTESIAN_POINT ( 'NONE',  ( -0.2339398182814672877, -21.23535301259997610, 71.26839854155231535 ) ) ;
#266 = ORIENTED_EDGE ( 'NONE', *, *, #457, .F. ) ;
#267 = FACE_OUTER_BOUND ( 'NONE', #116, .T. ) ;
#268 = VECTOR ( 'NONE', #357, 1000.000000000000114 ) ;
#269 = DIRECTION ( 'NONE',  ( -2.977067850650932588E-15, -0.8191520442889909104, 0.5735764363510473807 ) ) ;
#270 = VECTOR ( 'NONE', #669, 1000.000000000000000 ) ;
#271 = DIRECTION ( 'NONE',  ( -3.035766082959324063E-15, -0.8191520442889896891, 0.5735764363510489350 ) ) ;
#272 = APPLICATION_PROTOCOL_DEFINITION ( 'draft international standard', 'automotive_design', 1998, #790 ) ;
#273 = EDGE_LOOP ( 'NONE', ( #435, #489, #14, #474 ) ) ;
#274 = CARTESIAN_POINT ( 'NONE',  ( 14.84695816509260879, -71.19088963033944140, 17.00631018651069581 ) ) ;
#275 = FACE_OUTER_BOUND ( 'NONE', #635, .T. ) ;
#276 = EDGE_CURVE ( 'NONE', #354, #185, #936, .T. ) ;
#277 = CARTESIAN_POINT ( 'NONE',  ( 17.34695816509255906, -86.95999149627436964, 24.99601771193151833 ) ) ;
#278 = DIRECTION ( 'NONE',  ( 0.7071067811865500152, 0.5792279653395676631, -0.4055797876726368045 ) ) ;
#279 = DIRECTION ( 'NONE',  ( 0.7071067811865474617, -0.5792279653395701056, 0.4055797876726374152 ) ) ;
#280 = ORIENTED_EDGE ( 'NONE', *, *, #868, .F. ) ;
#281 = CARTESIAN_POINT ( 'NONE',  ( -16.65304183490735568, -62.99936918744946013, 11.27054582300000618 ) ) ;
#282 = CARTESIAN_POINT ( 'NONE',  ( 14.84695816509258748, -58.45486870331731666, 21.24765872229427188 ) ) ;
#283 = PRESENTATION_LAYER_ASSIGNMENT (  '', '', ( #23 ) ) ;
#284 = CARTESIAN_POINT ( 'NONE',  ( -0.9030418349076579920, -21.20634474524101876, 71.26608241787195652 ) ) ;
#285 = VECTOR ( 'NONE', #187, 1000.000000000000114 ) ;
#286 = VECTOR ( 'NONE', #439, 1000.000000000000114 ) ;
#287 = EDGE_CURVE ( 'NONE', #992, #820, #35, .T. ) ;
#288 = CONICAL_SURFACE ( 'NONE', #1125, 16.21768800164299762, 0.7853981633974460586 ) ;
#289 = CARTESIAN_POINT ( 'NONE',  ( -0.9030418349075900464, -41.25746658483595297, 55.39705165486200400 ) ) ;
#290 = CARTESIAN_POINT ( 'NONE',  ( -0.9030418349075900464, -41.25746658483595297, 55.39705165486200400 ) ) ;
#291 = ORIENTED_EDGE ( 'NONE', *, *, #805, .F. ) ;
#292 = CARTESIAN_POINT ( 'NONE',  ( -15.65304183490745160, -56.48856378632618913, 22.31238637452118923 ) ) ;
#293 = EDGE_CURVE ( 'NONE', #438, #468, #78, .T. ) ;
#294 = CARTESIAN_POINT ( 'NONE',  ( -16.31928974216387829, -53.70681074353718287, 41.39428358179320355 ) ) ;
#295 = VERTEX_POINT ( 'NONE', #1042 ) ;
#296 = ORIENTED_EDGE ( 'NONE', *, *, #258, .T. ) ;
#297 = CARTESIAN_POINT ( 'NONE',  ( -0.9030418349076634321, -29.26707977146246975, 62.93214130653208827 ) ) ;
#298 = VECTOR ( 'NONE', #515, 1000.000000000000114 ) ;
#299 = EDGE_LOOP ( 'NONE', ( #124, #17, #230, #922 ) ) ;
#300 = FACE_OUTER_BOUND ( 'NONE', #1049, .T. ) ;
#301 = VERTEX_POINT ( 'NONE', #601 ) ;
#302 = AXIS2_PLACEMENT_3D ( 'NONE', #617, #202, #1133 ) ;
#303 = CARTESIAN_POINT ( 'NONE',  ( 14.84695816509247912, -43.30534669555846961, 56.83099274573964976 ) ) ;
#304 = UNCERTAINTY_MEASURE_WITH_UNIT (LENGTH_MEASURE( 1.000000000000000082E-05 ), #1082, 'distance_accuracy_value', 'NONE');
#305 = ORIENTED_EDGE ( 'NONE', *, *, #494, .F. ) ;
#306 = CARTESIAN_POINT ( 'NONE',  ( -1.238845411428486587, -22.55436646747250862, 72.20997738944888056 ) ) ;
#307 = EDGE_CURVE ( 'NONE', #912, #301, #782, .T. ) ;
#308 = ORIENTED_EDGE ( 'NONE', *, *, #434, .F. ) ;
#309 = CYLINDRICAL_SURFACE ( 'NONE', #1052, 24.50000000000001066 ) ;
#310 = CYLINDRICAL_SURFACE ( 'NONE', #423, 11.45021256904828633 ) ;
#311 = ORIENTED_EDGE ( 'NONE', *, *, #1009, .T. ) ;
#312 = CARTESIAN_POINT ( 'NONE',  ( 14.84695816509259281, -56.81656461473932751, 20.10050584959217446 ) ) ;
#313 = ADVANCED_FACE ( 'NONE', ( #163 ), #789, .T. ) ;
#314 = CARTESIAN_POINT ( 'NONE',  ( -0.9030418349075678419, -35.11382625266845992, 51.09522838222908803 ) ) ;
#315 =( NAMED_UNIT ( * ) SI_UNIT ( $, .STERADIAN. ) SOLID_ANGLE_UNIT ( ) );
#316 = LINE ( 'NONE', #672, #232 ) ;
#317 = ORIENTED_EDGE ( 'NONE', *, *, #805, .T. ) ;
#318 = CARTESIAN_POINT ( 'NONE',  ( -1.903041834907658991, -21.63998854385850024, 71.21110719016782298 ) ) ;
#319 = AXIS2_PLACEMENT_3D ( 'NONE', #90, #765, #1121 ) ;
#320 = VECTOR ( 'NONE', #759, 1000.000000000000114 ) ;
#321 = CARTESIAN_POINT ( 'NONE',  ( -0.2339398182814718952, -22.54226861138150895, 72.18351069562301348 ) ) ;
#322 = CARTESIAN_POINT ( 'NONE',  ( 14.84695816509251109, -45.87793979658122367, 35.72248108014441215 ) ) ;
#323 = LINE ( 'NONE', #219, #460 ) ;
#324 = CLOSED_SHELL ( 'NONE', ( #407, #531, #450, #816, #71, #1097, #383 ) ) ;
#325 = VERTEX_POINT ( 'NONE', #1034 ) ;
#326 = CARTESIAN_POINT ( 'NONE',  ( -19.15304183490735568, -64.43331027832699931, 9.222665712277635208 ) ) ;
#327 = CARTESIAN_POINT ( 'NONE',  ( 17.34695816509264077, -64.43331027832707036, 9.222665712277700933 ) ) ;
#328 = CARTESIAN_POINT ( 'NONE',  ( 17.34695816509264077, -46.52695245678080482, 34.79559494313000556 ) ) ;
#329 = CARTESIAN_POINT ( 'NONE',  ( 14.84695816509258748, -58.45486870331731666, 21.24765872229427188 ) ) ;
#330 = EDGE_CURVE ( 'NONE', #978, #109, #961, .T. ) ;
#331 = CARTESIAN_POINT ( 'NONE',  ( -16.65304183490741607, -57.30771583061514463, 22.88596281087220063 ) ) ;
#332 = DIRECTION ( 'NONE',  ( 2.977067850650932983E-15, 0.8191520442889909104, -0.5735764363510474917 ) ) ;
#333 = DIRECTION ( 'NONE',  ( -2.958228394578794270E-30, -0.5735764363510479358, -0.8191520442889904663 ) ) ;
#334 = PLANE ( 'NONE',  #996 ) ;
#335 = LINE ( 'NONE', #349, #1127 ) ;
#336 = VECTOR ( 'NONE', #905, 1000.000000000000114 ) ;
#337 = ORIENTED_EDGE ( 'NONE', *, *, #903, .T. ) ;
#338 = CARTESIAN_POINT ( 'NONE',  ( 14.84695816509256261, -83.47817029467422856, 25.60995673177635368 ) ) ;
#339 = VECTOR ( 'NONE', #1063, 1000.000000000000114 ) ;
#340 = PLANE ( 'NONE',  #1014 ) ;
#341 = VECTOR ( 'NONE', #620, 1000.000000000000114 ) ;
#342 = EDGE_CURVE ( 'NONE', #133, #785, #248, .T. ) ;
#343 = PLANE ( 'NONE',  #302 ) ;
#344 = DIRECTION ( 'NONE',  ( 1.709110753479953674E-16, -0.5735764363510473807, -0.8191520442889909104 ) ) ;
#345 = CARTESIAN_POINT ( 'NONE',  ( -15.65304183490750312, -56.48856378632614650, 22.31238637452115725 ) ) ;
#346 = ORIENTED_EDGE ( 'NONE', *, *, #888, .T. ) ;
#347 = CARTESIAN_POINT ( 'NONE',  ( 14.84695816509258748, -58.45486870331731666, 21.24765872229427188 ) ) ;
#348 = LINE ( 'NONE', #726, #268 ) ;
#349 = CARTESIAN_POINT ( 'NONE',  ( -16.65304183490752266, -52.02158012874871673, 40.02430435277715759 ) ) ;
#350 = DIRECTION ( 'NONE',  ( -2.842004563245275551E-15, 0.5735764363510474917, 0.8191520442889909104 ) ) ;
#351 = CARTESIAN_POINT ( 'NONE',  ( 13.84695816509263544, -57.63571665902831143, 20.67408228594322495 ) ) ;
#352 = EDGE_CURVE ( 'NONE', #785, #1028, #335, .T. ) ;
#353 = CYLINDRICAL_SURFACE ( 'NONE', #637, 11.45021256904828633 ) ;
#354 = VERTEX_POINT ( 'NONE', #1053 ) ;
#355 = AXIS2_PLACEMENT_3D ( 'NONE', #314, #1111, #926 ) ;
#356 = DIRECTION ( 'NONE',  ( 0.000000000000000000, 0.8191520442889909104, -0.5735764363510474917 ) ) ;
#357 = DIRECTION ( 'NONE',  ( -2.977067850650932194E-15, -0.8191520442889909104, 0.5735764363510473807 ) ) ;
#358 = CARTESIAN_POINT ( 'NONE',  ( -0.9030418349076423379, -55.59262735989322834, 65.43463929100528276 ) ) ;
#359 = EDGE_CURVE ( 'NONE', #244, #10, #1114, .T. ) ;
#360 = CARTESIAN_POINT ( 'NONE',  ( 14.84695816509263722, -62.99936918744946013, 11.27054582300016961 ) ) ;
#361 = ORIENTED_EDGE ( 'NONE', *, *, #1134, .T. ) ;
#362 = CARTESIAN_POINT ( 'NONE',  ( 17.34695816509264077, -64.43331027832707036, 9.222665712277700933 ) ) ;
#363 = DIRECTION ( 'NONE',  ( -3.035766082959353645E-15, -0.8191520442889906883, 0.5735764363510476027 ) ) ;
#364 = ADVANCED_FACE ( 'NONE', ( #965 ), #950, .T. ) ;
#365 = ORIENTED_EDGE ( 'NONE', *, *, #1045, .T. ) ;
#366 = PLANE ( 'NONE',  #478 ) ;
#367 = AXIS2_PLACEMENT_3D ( 'NONE', #289, #812, #976 ) ;
#368 = CARTESIAN_POINT ( 'NONE',  ( -0.9030418349076634321, -29.26707977146246975, 62.93214130653208827 ) ) ;
#369 = MANIFOLD_SOLID_BREP ( 'Chamfer3', #505 ) ;
#370 = CONICAL_SURFACE ( 'NONE', #924, 24.50000000000002842, 0.7853981633974324028 ) ;
#371 = EDGE_CURVE ( 'NONE', #618, #468, #614, .T. ) ;
#372 = AXIS2_PLACEMENT_3D ( 'NONE', #625, #800, #108 ) ;
#373 = ORIENTED_EDGE ( 'NONE', *, *, #685, .F. ) ;
#374 = DIRECTION ( 'NONE',  ( -2.977067850650932588E-15, -0.8191520442889909104, 0.5735764363510473807 ) ) ;
#375 = CARTESIAN_POINT ( 'NONE',  ( -15.65304183490752088, -68.56943308326583519, 16.39152113992200555 ) ) ;
#376 = ORIENTED_EDGE ( 'NONE', *, *, #559, .F. ) ;
#377 = ORIENTED_EDGE ( 'NONE', *, *, #330, .T. ) ;
#378 = SURFACE_STYLE_FILL_AREA ( #913 ) ;
#379 = FILL_AREA_STYLE_COLOUR ( '', #88 ) ;
#380 = ORIENTED_EDGE ( 'NONE', *, *, #657, .T. ) ;
#381 = ORIENTED_EDGE ( 'NONE', *, *, #722, .F. ) ;
#382 = DIRECTION ( 'NONE',  ( -0.7071067811865423547, 0.5792279653395716599, -0.4055797876726444096 ) ) ;
#383 = ADVANCED_FACE ( 'NONE', ( #766 ), #541, .T. ) ;
#384 = CIRCLE ( 'NONE', #1031, 17.21768800164301538 ) ;
#385 = ORIENTED_EDGE ( 'NONE', *, *, #786, .F. ) ;
#386 = AXIS2_PLACEMENT_3D ( 'NONE', #63, #344, #57 ) ;
#387 = ORIENTED_EDGE ( 'NONE', *, *, #868, .T. ) ;
#388 = AXIS2_PLACEMENT_3D ( 'NONE', #686, #251, #597 ) ;
#389 = CARTESIAN_POINT ( 'NONE',  ( -19.15304183490735568, -64.43331027832699931, 9.222665712277635208 ) ) ;
#390 = B_SPLINE_CURVE_WITH_KNOTS ( 'NONE', 3,
 ( #1030, #265, #253, #1040 ),
 .UNSPECIFIED., .F., .F.,
 ( 4, 4 ),
 ( -0.001003698525236777382, 1.951563910473907981E-18 ),
 .UNSPECIFIED. ) ;
#391 = EDGE_LOOP ( 'NONE', ( #498, #907, #893, #895 ) ) ;
#392 = DIRECTION ( 'NONE',  ( -2.977067850650932194E-15, -0.8191520442889909104, 0.5735764363510473807 ) ) ;
#393 = EDGE_CURVE ( 'NONE', #174, #650, #198, .T. ) ;
#394 = ORIENTED_EDGE ( 'NONE', *, *, #582, .T. ) ;
#395 =( LENGTH_UNIT ( ) NAMED_UNIT ( * ) SI_UNIT ( .MILLI., .METRE. ) );
#396 = PRESENTATION_STYLE_ASSIGNMENT (( #491 ) ) ;
#397 = ORIENTED_EDGE ( 'NONE', *, *, #276, .F. ) ;
#398 = EDGE_CURVE ( 'NONE', #825, #135, #11, .T. ) ;
#399 = PLANE ( 'NONE',  #871 ) ;
#400 = DIRECTION ( 'NONE',  ( 1.000000000000000000, -2.281280187585938734E-15, 1.710960140689454051E-15 ) ) ;
#401 = PLANE ( 'NONE',  #1103 ) ;
#402 = ORIENTED_EDGE ( 'NONE', *, *, #973, .F. ) ;
#403 =( NAMED_UNIT ( * ) SI_UNIT ( $, .STERADIAN. ) SOLID_ANGLE_UNIT ( ) );
#404 = MECHANICAL_DESIGN_GEOMETRIC_PRESENTATION_REPRESENTATION (  '', ( #23 ), #849 ) ;
#405 = DIRECTION ( 'NONE',  ( -1.000000000000000000, 2.352167425053297207E-15, -1.764125568789972905E-15 ) ) ;
#406 = CARTESIAN_POINT ( 'NONE',  ( 14.84695816509261590, -47.56863560423508375, 33.30791723243635971 ) ) ;
#407 = ADVANCED_FACE ( 'NONE', ( #648 ), #288, .T. ) ;
#408 = DIRECTION ( 'NONE',  ( -2.977067850650932588E-15, -0.8191520442889909104, 0.5735764363510473807 ) ) ;
#409 = CIRCLE ( 'NONE', #388, 27.00000000000000711 ) ;
#410 = CARTESIAN_POINT ( 'NONE',  ( -0.9030418349075928219, -71.19088963033939876, 17.00631018651067095 ) ) ;
#411 = LINE ( 'NONE', #1104, #87 ) ;
#412 = LINE ( 'NONE', #338, #216 ) ;
#413 = PLANE ( 'NONE',  #869 ) ;
#414 = DIRECTION ( 'NONE',  ( 0.000000000000000000, 0.5735764363510489350, 0.8191520442889899112 ) ) ;
#415 = ORIENTED_EDGE ( 'NONE', *, *, #984, .F. ) ;
#416 = DIRECTION ( 'NONE',  ( 0.000000000000000000, -0.5735764363510476027, -0.8191520442889907994 ) ) ;
#417 = CARTESIAN_POINT ( 'NONE',  ( -16.65304183490743029, -83.47817029467422856, 25.60995673177619025 ) ) ;
#418 = ORIENTED_EDGE ( 'NONE', *, *, #740, .F. ) ;
#419 = SURFACE_STYLE_FILL_AREA ( #944 ) ;
#420 = EDGE_CURVE ( 'NONE', #590, #656, #902, .T. ) ;
#421 = CARTESIAN_POINT ( 'NONE',  ( -16.65304183490735568, -62.99936918744946013, 11.27054582300000618 ) ) ;
#422 = DIRECTION ( 'NONE',  ( -2.977067850650932194E-15, -0.8191520442889909104, 0.5735764363510473807 ) ) ;
#423 = AXIS2_PLACEMENT_3D ( 'NONE', #297, #471, #915 ) ;
#424 = CARTESIAN_POINT ( 'NONE',  ( -15.65304183490750312, -57.63571665902824037, 20.67408228594316810 ) ) ;
#425 = ORIENTED_EDGE ( 'NONE', *, *, #488, .T. ) ;
#426 = VECTOR ( 'NONE', #1, 1000.000000000000000 ) ;
#427 = AXIS2_PLACEMENT_3D ( 'NONE', #375, #96, #991 ) ;
#428 = EDGE_CURVE ( 'NONE', #79, #908, #921, .T. ) ;
#429 = PRESENTATION_STYLE_ASSIGNMENT (( #974 ) ) ;
#430 = LINE ( 'NONE', #788, #538 ) ;
#431 = VERTEX_POINT ( 'NONE', #897 ) ;
#432 = CARTESIAN_POINT ( 'NONE',  ( 14.84695816509260879, -71.19088963033944140, 17.00631018651068516 ) ) ;
#433 = DIRECTION ( 'NONE',  ( 5.182688860570757449E-15, 0.000000000000000000, -1.000000000000000000 ) ) ;
#434 = EDGE_CURVE ( 'NONE', #618, #590, #550, .T. ) ;
#435 = ORIENTED_EDGE ( 'NONE', *, *, #888, .F. ) ;
#436 = CARTESIAN_POINT ( 'NONE',  ( 14.84695816509258748, -58.45486870331731666, 21.24765872229427188 ) ) ;
#437 = PLANE ( 'NONE',  #692 ) ;
#438 = VERTEX_POINT ( 'NONE', #28 ) ;
#439 = DIRECTION ( 'NONE',  ( -2.977067850650932194E-15, -0.8191520442889909104, 0.5735764363510473807 ) ) ;
#440 = ADVANCED_FACE ( 'NONE', ( #190 ), #1067, .T. ) ;
#441 = ORIENTED_EDGE ( 'NONE', *, *, #701, .F. ) ;
#442 = FACE_OUTER_BOUND ( 'NONE', #949, .T. ) ;
#443 = CONICAL_SURFACE ( 'NONE', #712, 16.21768800164299762, 0.7853981633974460586 ) ;
#444 = CARTESIAN_POINT ( 'NONE',  ( -16.65304183490756529, -66.35674090380599921, 50.06189198892044345 ) ) ;
#445 = AXIS2_PLACEMENT_3D ( 'NONE', #608, #626, #796 ) ;
#446 = DIRECTION ( 'NONE',  ( -1.972152263052529295E-31, -0.5735764363510474917, -0.8191520442889907994 ) ) ;
#447 = EDGE_LOOP ( 'NONE', ( #73, #987, #851, #511 ) ) ;
#448 = DIRECTION ( 'NONE',  ( -5.325501719146885530E-15, 0.000000000000000000, 1.000000000000000000 ) ) ;
#449 = CARTESIAN_POINT ( 'NONE',  ( -16.65304183490750844, -58.45486870331723139, 21.24765872229421859 ) ) ;
#450 = ADVANCED_FACE ( 'NONE', ( #275 ), #353, .T. ) ;
#451 = ORIENTED_EDGE ( 'NONE', *, *, #1106, .F. ) ;
#452 = FACE_OUTER_BOUND ( 'NONE', #66, .T. ) ;
#453 = VERTEX_POINT ( 'NONE', #284 ) ;
#454 = DIRECTION ( 'NONE',  ( 0.000000000000000000, -0.5735764363510474917, -0.8191520442889909104 ) ) ;
#455 = DIRECTION ( 'NONE',  ( 0.000000000000000000, 0.5735764363510472696, 0.8191520442889909104 ) ) ;
#456 = ORIENTED_EDGE ( 'NONE', *, *, #428, .F. ) ;
#457 = EDGE_CURVE ( 'NONE', #453, #170, #737, .T. ) ;
#458 = ORIENTED_EDGE ( 'NONE', *, *, #55, .T. ) ;
#459 = DIRECTION ( 'NONE',  ( 1.000000000000000000, -5.370972726200057222E-18, 5.182688860570757449E-15 ) ) ;
#460 = VECTOR ( 'NONE', #1006, 1000.000000000000114 ) ;
#461 = DIRECTION ( 'NONE',  ( 0.000000000000000000, -0.5735764363510471586, -0.8191520442889909104 ) ) ;
#462 = EDGE_LOOP ( 'NONE', ( #387, #1078, #588, #479 ) ) ;
#463 = ADVANCED_BREP_SHAPE_REPRESENTATION ( 'cap', ( #563, #192, #369, #945, #616 ), #962 ) ;
#464 = AXIS2_PLACEMENT_3D ( 'NONE', #410, #181, #1136 ) ;
#465 = ORIENTED_EDGE ( 'NONE', *, *, #38, .T. ) ;
#466 = DIRECTION ( 'NONE',  ( 0.7071067811865536790, -0.5792279653395634442, 0.4055797876726362494 ) ) ;
#467 = ORIENTED_EDGE ( 'NONE', *, *, #1036, .F. ) ;
#468 = VERTEX_POINT ( 'NONE', #542 ) ;
#469 = CARTESIAN_POINT ( 'NONE',  ( -0.9030418349075678419, -35.11382625266845992, 51.09522838222908803 ) ) ;
#470 = EDGE_CURVE ( 'NONE', #745, #301, #611, .T. ) ;
#471 = DIRECTION ( 'NONE',  ( 2.977067850650933377E-15, 0.8191520442889909104, -0.5735764363510474917 ) ) ;
#472 = ORIENTED_EDGE ( 'NONE', *, *, #470, .F. ) ;
#473 = FACE_OUTER_BOUND ( 'NONE', #681, .T. ) ;
#474 = ORIENTED_EDGE ( 'NONE', *, *, #1080, .T. ) ;
#475 = SURFACE_SIDE_STYLE ('',( #378 ) ) ;
#476 = EDGE_CURVE ( 'NONE', #1028, #105, #779, .T. ) ;
#477 = DIRECTION ( 'NONE',  ( 1.000000000000000000, -2.281280187585938734E-15, 1.806013481838868000E-15 ) ) ;
#478 = AXIS2_PLACEMENT_3D ( 'NONE', #884, #730, #196 ) ;
#479 = ORIENTED_EDGE ( 'NONE', *, *, #215, .F. ) ;
#480 = DIRECTION ( 'NONE',  ( -2.977067850650933377E-15, -0.8191520442889907994, 0.5735764363510474917 ) ) ;
#481 = VECTOR ( 'NONE', #717, 1000.000000000000114 ) ;
#482 = MECHANICAL_DESIGN_GEOMETRIC_PRESENTATION_REPRESENTATION (  '', ( #985 ), #658 ) ;
#483 = EDGE_LOOP ( 'NONE', ( #741, #811, #513, #467 ) ) ;
#484 = AXIS2_PLACEMENT_3D ( 'NONE', #358, #1057, #461 ) ;
#485 = PLANE ( 'NONE',  #556 ) ;
#486 = ORIENTED_EDGE ( 'NONE', *, *, #701, .T. ) ;
#487 = CARTESIAN_POINT ( 'NONE',  ( 0.09695816509233666503, -22.72460213422201747, 72.27576770331185685 ) ) ;
#488 = EDGE_CURVE ( 'NONE', #650, #1123, #731, .T. ) ;
#489 = ORIENTED_EDGE ( 'NONE', *, *, #488, .F. ) ;
#490 = CARTESIAN_POINT ( 'NONE',  ( -16.65304183490756884, -66.35674090380602763, 50.06189198892047187 ) ) ;
#491 = SURFACE_STYLE_USAGE ( .BOTH. , #655 ) ;
#492 = ORIENTED_EDGE ( 'NONE', *, *, #123, .F. ) ;
#493 = CARTESIAN_POINT ( 'NONE',  ( -1.903041834907658103, -21.29217032706442936, 71.27276815396875520 ) ) ;
#494 = EDGE_CURVE ( 'NONE', #659, #745, #1076, .T. ) ;
#495 = CARTESIAN_POINT ( 'NONE',  ( -19.15304183490735923, -46.52695245678092562, 34.79559494312962897 ) ) ;
#496 = DIRECTION ( 'NONE',  ( 1.183203222904024519E-16, 0.5735764363510474917, 0.8191520442889907994 ) ) ;
#497 = DIRECTION ( 'NONE',  ( 0.000000000000000000, 0.5735764363510472696, 0.8191520442889909104 ) ) ;
#498 = ORIENTED_EDGE ( 'NONE', *, *, #107, .T. ) ;
#499 = CARTESIAN_POINT ( 'NONE',  ( 13.84695816509248623, -68.56943308326590625, 16.39152113992205884 ) ) ;
#500 = CIRCLE ( 'NONE', #367, 23.50000000000002487 ) ;
#501 = VECTOR ( 'NONE', #503, 1000.000000000000114 ) ;
#502 = DIRECTION ( 'NONE',  ( 2.438671215847743872E-15, 1.000000000000000000, 0.000000000000000000 ) ) ;
#503 = DIRECTION ( 'NONE',  ( 2.977067850650932983E-15, 0.8191520442889909104, -0.5735764363510474917 ) ) ;
#504 = CARTESIAN_POINT ( 'NONE',  ( -16.65304183490750844, -58.45486870331723139, 21.24765872229421859 ) ) ;
#505 = CLOSED_SHELL ( 'NONE', ( #855, #845, #182, #752, #649 ) ) ;
#506 = SURFACE_STYLE_USAGE ( .BOTH. , #857 ) ;
#507 = PLANE ( 'NONE',  #1037 ) ;
#508 = DIRECTION ( 'NONE',  ( -0.7071067811865464625, 0.5792279653395692174, -0.4055797876726408013 ) ) ;
#509 = EDGE_CURVE ( 'NONE', #908, #1087, #808, .T. ) ;
#510 = CARTESIAN_POINT ( 'NONE',  ( 14.84695816509258748, -57.30771583061520857, 22.88596281087225393 ) ) ;
#511 = ORIENTED_EDGE ( 'NONE', *, *, #92, .F. ) ;
#512 = B_SPLINE_CURVE_WITH_KNOTS ( 'NONE', 3,
 ( #932, #863, #321, #676 ),
 .UNSPECIFIED., .F., .F.,
 ( 4, 4 ),
 ( -3.903127820947815962E-18, 0.001003698525236774997 ),
 .UNSPECIFIED. ) ;
#513 = ORIENTED_EDGE ( 'NONE', *, *, #1126, .T. ) ;
#514 = CARTESIAN_POINT ( 'NONE',  ( -16.65304183490752266, -52.02158012874871673, 40.02430435277715759 ) ) ;
#515 = DIRECTION ( 'NONE',  ( 0.5773502691896227335, -0.8040921632055892943, -0.1417831433493629001 ) ) ;
#516 = EDGE_CURVE ( 'NONE', #135, #120, #535, .T. ) ;
#517 = VERTEX_POINT ( 'NONE', #530 ) ;
#518 = AXIS2_PLACEMENT_3D ( 'NONE', #65, #408, #522 ) ;
#519 = CIRCLE ( 'NONE', #100, 24.50000000000001776 ) ;
#520 = DIRECTION ( 'NONE',  ( -2.977067850650932194E-15, -0.8191520442889909104, 0.5735764363510473807 ) ) ;
#521 = SHAPE_DEFINITION_REPRESENTATION ( #224, #463 ) ;
#522 = DIRECTION ( 'NONE',  ( 0.000000000000000000, -0.5735764363510473807, -0.8191520442889907994 ) ) ;
#523 = EDGE_LOOP ( 'NONE', ( #840, #97, #59, #1081 ) ) ;
#524 = VECTOR ( 'NONE', #392, 1000.000000000000114 ) ;
#525 = CARTESIAN_POINT ( 'NONE',  ( -16.65304183490750134, -56.81656461473924935, 20.10050584959212472 ) ) ;
#526 = ADVANCED_FACE ( 'NONE', ( #118 ), #437, .F. ) ;
#527 = PLANE ( 'NONE',  #445 ) ;
#528 = ORIENTED_EDGE ( 'NONE', *, *, #966, .T. ) ;
#529 = FACE_OUTER_BOUND ( 'NONE', #698, .T. ) ;
#530 = CARTESIAN_POINT ( 'NONE',  ( 13.84695816509248090, -69.79816114969938212, 17.25188579444861858 ) ) ;
#531 = ADVANCED_FACE ( 'NONE', ( #562 ), #310, .T. ) ;
#532 = LINE ( 'NONE', #281, #426 ) ;
#533 = ORIENTED_EDGE ( 'NONE', *, *, #352, .F. ) ;
#534 = CARTESIAN_POINT ( 'NONE',  ( -0.9030418349075678419, -35.11382625266845992, 51.09522838222908803 ) ) ;
#535 = LINE ( 'NONE', #21, #1128 ) ;
#536 = EDGE_LOOP ( 'NONE', ( #1019, #1012, #472, #305 ) ) ;
#537 = CARTESIAN_POINT ( 'NONE',  ( 14.84695816509259281, -56.81656461473932751, 20.10050584959217446 ) ) ;
#538 = VECTOR ( 'NONE', #683, 999.9999999999998863 ) ;
#539 = ORIENTED_EDGE ( 'NONE', *, *, #621, .T. ) ;
#540 = DIRECTION ( 'NONE',  ( -1.000000000000000000, 2.930357696979026095E-14, 3.665948563525599525E-14 ) ) ;
#541 = CONICAL_SURFACE ( 'NONE', #372, 17.21768800164300472, 0.7853981633974524978 ) ;
#542 = CARTESIAN_POINT ( 'NONE',  ( -16.65304183490740897, -55.66941174203715548, 21.73880993817010676 ) ) ;
#543 = COLOUR_RGB ( '',0.7921568627450980005, 0.8196078431372548767, 0.9333333333333333481 ) ;
#544 = ORIENTED_EDGE ( 'NONE', *, *, #210, .T. ) ;
#545 = AXIS2_PLACEMENT_3D ( 'NONE', #360, #894, #433 ) ;
#546 = PLANE ( 'NONE',  #1035 ) ;
#547 = ORIENTED_EDGE ( 'NONE', *, *, #3, .T. ) ;
#548 = CARTESIAN_POINT ( 'NONE',  ( -0.9030418349075678419, -35.11382625266845992, 51.09522838222908803 ) ) ;
#549 = ADVANCED_FACE ( 'NONE', ( #33 ), #45, .T. ) ;
#550 = LINE ( 'NONE', #804, #47 ) ;
#551 = ORIENTED_EDGE ( 'NONE', *, *, #657, .F. ) ;
#552 = FACE_OUTER_BOUND ( 'NONE', #1064, .T. ) ;
#553 = DIRECTION ( 'NONE',  ( -0.000000000000000000, -0.5735764363510480468, -0.8191520442889905773 ) ) ;
#554 = ORIENTED_EDGE ( 'NONE', *, *, #24, .F. ) ;
#555 = CARTESIAN_POINT ( 'NONE',  ( 14.17985808718018070, -53.34349089354176954, 41.33198362480514731 ) ) ;
#556 = AXIS2_PLACEMENT_3D ( 'NONE', #303, #1107, #661 ) ;
#557 =( LENGTH_UNIT ( ) NAMED_UNIT ( * ) SI_UNIT ( .MILLI., .METRE. ) );
#558 = ORIENTED_EDGE ( 'NONE', *, *, #167, .F. ) ;
#559 = EDGE_CURVE ( 'NONE', #105, #133, #581, .T. ) ;
#560 = ORIENTED_EDGE ( 'NONE', *, *, #736, .F. ) ;
#561 = LINE ( 'NONE', #1044, #122 ) ;
#562 = FACE_OUTER_BOUND ( 'NONE', #299, .T. ) ;
#563 = MANIFOLD_SOLID_BREP ( 'Chamfer1', #906 ) ;
#564 = VERTEX_POINT ( 'NONE', #928 ) ;
#565 = DIRECTION ( 'NONE',  ( 0.000000000000000000, -0.5735764363510473807, -0.8191520442889909104 ) ) ;
#566 = EDGE_CURVE ( 'NONE', #650, #431, #1000, .T. ) ;
#567 = ORIENTED_EDGE ( 'NONE', *, *, #559, .T. ) ;
#568 = CARTESIAN_POINT ( 'NONE',  ( -0.9030418349076423379, -55.59262735989327098, 65.43463929100529697 ) ) ;
#569 = DIRECTION ( 'NONE',  ( 1.000000000000000000, -2.438671215847744266E-15, 1.707575968551634976E-15 ) ) ;
#570 = VERTEX_POINT ( 'NONE', #39 ) ;
#571 = CYLINDRICAL_SURFACE ( 'NONE', #732, 23.50000000000001776 ) ;
#572 = ORIENTED_EDGE ( 'NONE', *, *, #728, .T. ) ;
#573 = CARTESIAN_POINT ( 'NONE',  ( -15.65304183490752088, -51.75074141399895211, 40.41110212339562935 ) ) ;
#574 = ADVANCED_FACE ( 'NONE', ( #235 ), #132, .T. ) ;
#575 = LINE ( 'NONE', #389, #595 ) ;
#576 = ORIENTED_EDGE ( 'NONE', *, *, #786, .T. ) ;
#577 =( NAMED_UNIT ( * ) PLANE_ANGLE_UNIT ( ) SI_UNIT ( $, .RADIAN. ) );
#578 = COLOUR_RGB ( '',0.7921568627450980005, 0.8196078431372548767, 0.9333333333333333481 ) ;
#579 = FACE_OUTER_BOUND ( 'NONE', #651, .T. ) ;
#580 = LINE ( 'NONE', #836, #336 ) ;
#581 = LINE ( 'NONE', #213, #144 ) ;
#582 = EDGE_CURVE ( 'NONE', #225, #825, #575, .T. ) ;
#583 = ORIENTED_EDGE ( 'NONE', *, *, #92, .T. ) ;
#584 = CARTESIAN_POINT ( 'NONE',  ( -19.15304183490735923, -46.52695245678092562, 34.79559494312962897 ) ) ;
#585 = DIRECTION ( 'NONE',  ( 2.594139420442319921E-15, 1.000000000000000000, 0.000000000000000000 ) ) ;
#586 = FACE_OUTER_BOUND ( 'NONE', #43, .T. ) ;
#587 = DIRECTION ( 'NONE',  ( 1.000000000000000000, 0.000000000000000000, 5.176635134660949682E-15 ) ) ;
#588 = ORIENTED_EDGE ( 'NONE', *, *, #604, .F. ) ;
#589 = DIRECTION ( 'NONE',  ( -2.977067850650932194E-15, -0.8191520442889909104, 0.5735764363510473807 ) ) ;
#590 = VERTEX_POINT ( 'NONE', #920 ) ;
#591 = CARTESIAN_POINT ( 'NONE',  ( 13.84695816509263544, -57.63571665902831143, 20.67408228594322495 ) ) ;
#592 = CARTESIAN_POINT ( 'NONE',  ( -0.9030418349076605455, -12.47664296595872635, 85.16792336702056332 ) ) ;
#593 = EDGE_LOOP ( 'NONE', ( #929, #29, #51, #972 ) ) ;
#594 = CARTESIAN_POINT ( 'NONE',  ( -15.65304183490752088, -68.56943308326583519, 16.39152113992200555 ) ) ;
#595 = VECTOR ( 'NONE', #477, 1000.000000000000000 ) ;
#596 = ADVANCED_FACE ( 'NONE', ( #142 ), #485, .T. ) ;
#597 = DIRECTION ( 'NONE',  ( 0.000000000000000000, -0.5735764363510472696, -0.8191520442889909104 ) ) ;
#598 = LINE ( 'NONE', #591, #102 ) ;
#599 = PLANE ( 'NONE',  #828 ) ;
#600 = VECTOR ( 'NONE', #751, 1000.000000000000000 ) ;
#601 = CARTESIAN_POINT ( 'NONE',  ( -15.65304183490752443, -52.97946948043241377, 41.27146677792219265 ) ) ;
#602 = DIRECTION ( 'NONE',  ( 1.000000000000000000, -2.438671215847743872E-15, 1.707575968551633399E-15 ) ) ;
#603 = DIRECTION ( 'NONE',  ( -3.035766082959353645E-15, -0.8191520442889906883, 0.5735764363510476027 ) ) ;
#604 = EDGE_CURVE ( 'NONE', #978, #1028, #323, .T. ) ;
#605 = CYLINDRICAL_SURFACE ( 'NONE', #518, 27.00000000000001421 ) ;
#606 = ORIENTED_EDGE ( 'NONE', *, *, #470, .T. ) ;
#607 =( NAMED_UNIT ( * ) PLANE_ANGLE_UNIT ( ) SI_UNIT ( $, .RADIAN. ) );
#608 = CARTESIAN_POINT ( 'NONE',  ( -0.9030418349076497764, -57.64050747061574498, 66.86858038188290720 ) ) ;
#609 = DIRECTION ( 'NONE',  ( 4.240451253095732648E-15, -0.5735764363510473807, -0.8191520442889909104 ) ) ;
#610 = CARTESIAN_POINT ( 'NONE',  ( -16.65304183490750844, -58.45486870331723139, 21.24765872229421859 ) ) ;
#611 = B_SPLINE_CURVE_WITH_KNOTS ( 'NONE', 3,
 ( #892, #294, #638, #793 ),
 .UNSPECIFIED., .F., .F.,
 ( 4, 4 ),
 ( 0.000000000000000000, 0.001490961476619271676 ),
 .UNSPECIFIED. ) ;
#612 = ADVANCED_FACE ( 'NONE', ( #58 ), #401, .T. ) ;
#613 = ORIENTED_EDGE ( 'NONE', *, *, #953, .F. ) ;
#614 = LINE ( 'NONE', #525, #339 ) ;
#615 = AXIS2_PLACEMENT_3D ( 'NONE', #624, #807, #448 ) ;
#616 = AXIS2_PLACEMENT_3D ( 'NONE', #877, #802, #724 ) ;
#617 = CARTESIAN_POINT ( 'NONE',  ( -0.9030418349075900464, -41.25746658483595297, 55.39705165486200400 ) ) ;
#618 = VERTEX_POINT ( 'NONE', #910 ) ;
#619 = STYLED_ITEM ( 'NONE', ( #84 ), #369 ) ;
#620 = DIRECTION ( 'NONE',  ( 4.416671820352404388E-15, -0.5735764363510474917, -0.8191520442889909104 ) ) ;
#621 = EDGE_CURVE ( 'NONE', #244, #570, #316, .T. ) ;
#622 = ORIENTED_EDGE ( 'NONE', *, *, #3, .F. ) ;
#623 = CARTESIAN_POINT ( 'NONE',  ( -15.65304183490752443, -69.79816114969931107, 17.25188579444857240 ) ) ;
#624 = CARTESIAN_POINT ( 'NONE',  ( -16.65304183490748713, -45.87793979658122367, 35.72248108014425583 ) ) ;
#625 = CARTESIAN_POINT ( 'NONE',  ( -0.9030418349076605455, -12.47664296595870148, 85.16792336702054911 ) ) ;
#626 = DIRECTION ( 'NONE',  ( -2.977067850650933377E-15, -0.8191520442889909104, 0.5735764363510474917 ) ) ;
#627 = ORIENTED_EDGE ( 'NONE', *, *, #509, .T. ) ;
#628 = FACE_OUTER_BOUND ( 'NONE', #739, .T. ) ;
#629 = CARTESIAN_POINT ( 'NONE',  ( -0.9030418349076574369, -11.65749092166971579, 84.59434693066950217 ) ) ;
#630 = ORIENTED_EDGE ( 'NONE', *, *, #359, .T. ) ;
#631 = CARTESIAN_POINT ( 'NONE',  ( -19.15304183490735923, -46.52695245678092562, 34.79559494312962897 ) ) ;
#632 = APPLICATION_PROTOCOL_DEFINITION ( 'draft international standard', 'automotive_design', 1998, #41 ) ;
#633 = ADVANCED_FACE ( 'NONE', ( #994 ), #168, .F. ) ;
#634 = VECTOR ( 'NONE', #1050, 1000.000000000000000 ) ;
#635 = EDGE_LOOP ( 'NONE', ( #451, #959, #772, #862 ) ) ;
#636 = DIRECTION ( 'NONE',  ( -0.7071067811865484609, -0.5792279653395661088, 0.4055797876726416340 ) ) ;
#637 = AXIS2_PLACEMENT_3D ( 'NONE', #368, #721, #209 ) ;
#638 = CARTESIAN_POINT ( 'NONE',  ( -15.98594175699522779, -53.34349089354175533, 41.33198362480499810 ) ) ;
#639 = VECTOR ( 'NONE', #261, 1000.000000000000114 ) ;
#640 = ORIENTED_EDGE ( 'NONE', *, *, #778, .T. ) ;
#641 = AXIS2_PLACEMENT_3D ( 'NONE', #749, #466, #1084 ) ;
#642 = EDGE_CURVE ( 'NONE', #1087, #325, #776, .T. ) ;
#643 = ORIENTED_EDGE ( 'NONE', *, *, #953, .T. ) ;
#644 = LINE ( 'NONE', #964, #634 ) ;
#645 = CARTESIAN_POINT ( 'NONE',  ( -0.9030418349076574369, -20.95957461150524637, 71.30959465048260881 ) ) ;
#646 = VERTEX_POINT ( 'NONE', #345 ) ;
#647 = CARTESIAN_POINT ( 'NONE',  ( -1.903041834907661878, -22.45771136911665877, 71.78368287657974633 ) ) ;
#648 = FACE_OUTER_BOUND ( 'NONE', #523, .T. ) ;
#649 = ADVANCED_FACE ( 'NONE', ( #958 ), #340, .T. ) ;
#650 = VERTEX_POINT ( 'NONE', #510 ) ;
#651 = EDGE_LOOP ( 'NONE', ( #866, #1038, #673 ) ) ;
#652 = CARTESIAN_POINT ( 'NONE',  ( 14.84695816509248090, -54.06946023947119073, 41.45824544365493125 ) ) ;
#653 = VECTOR ( 'NONE', #927, 1000.000000000000114 ) ;
#654 = PRODUCT_DEFINITION_FORMATION_WITH_SPECIFIED_SOURCE ( 'ANY', '', #1085, .NOT_KNOWN. ) ;
#655 = SURFACE_SIDE_STYLE ('',( #1092 ) ) ;
#656 = VERTEX_POINT ( 'NONE', #504 ) ;
#657 = EDGE_CURVE ( 'NONE', #517, #820, #259, .T. ) ;
#658 =( GEOMETRIC_REPRESENTATION_CONTEXT ( 3 ) GLOBAL_UNCERTAINTY_ASSIGNED_CONTEXT ( ( #304 ) ) GLOBAL_UNIT_ASSIGNED_CONTEXT ( ( #1082, #577, #403 ) ) REPRESENTATION_CONTEXT ( 'NONE', 'WORKASPACE' ) );
#659 = VERTEX_POINT ( 'NONE', #179 ) ;
#660 = CARTESIAN_POINT ( 'NONE',  ( 14.51320607234882765, -53.70681074353718998, 41.39428358179334566 ) ) ;
#661 = DIRECTION ( 'NONE',  ( 1.183203222904024519E-16, 0.5735764363510474917, 0.8191520442889907994 ) ) ;
#662 = VERTEX_POINT ( 'NONE', #848 ) ;
#663 = EDGE_CURVE ( 'NONE', #180, #170, #384, .T. ) ;
#664 = ORIENTED_EDGE ( 'NONE', *, *, #1022, .F. ) ;
#665 = PRESENTATION_STYLE_ASSIGNMENT (( #1075 ) ) ;
#666 = FILL_AREA_STYLE ('',( #379 ) ) ;
#667 = UNCERTAINTY_MEASURE_WITH_UNIT (LENGTH_MEASURE( 1.000000000000000082E-05 ), #968, 'distance_accuracy_value', 'NONE');
#668 = EDGE_LOOP ( 'NONE', ( #365, #1047, #1074, #832 ) ) ;
#669 = DIRECTION ( 'NONE',  ( -0.5773502691896251759, -0.8040921632055872958, -0.1417831433493650928 ) ) ;
#670 = CARTESIAN_POINT ( 'NONE',  ( 17.34695816509264077, -46.52695245678080482, 34.79559494313000556 ) ) ;
#671 = EDGE_CURVE ( 'NONE', #1083, #453, #390, .T. ) ;
#672 = CARTESIAN_POINT ( 'NONE',  ( -15.65304183490752088, -51.75074141399895211, 40.41110212339562935 ) ) ;
#673 = ORIENTED_EDGE ( 'NONE', *, *, #839, .T. ) ;
#674 = CARTESIAN_POINT ( 'NONE',  ( -16.65304183490735568, -62.99936918744946013, 11.27054582300000618 ) ) ;
#675 = MECHANICAL_DESIGN_GEOMETRIC_PRESENTATION_REPRESENTATION (  '', ( #619 ), #799 ) ;
#676 = CARTESIAN_POINT ( 'NONE',  ( 0.09695816509233741443, -22.51872985280156669, 72.13161437995283620 ) ) ;
#677 = CARTESIAN_POINT ( 'NONE',  ( 0.09695816509233810832, -22.45771136911666588, 71.78368287657974633 ) ) ;
#678 = B_SPLINE_CURVE_WITH_KNOTS ( 'NONE', 3,
 ( #999, #823, #647, #754 ),
 .UNSPECIFIED., .F., .F.,
 ( 4, 4 ),
 ( 8.441528768080324345E-17, 0.001059724623435721836 ),
 .UNSPECIFIED. ) ;
#679 = LINE ( 'NONE', #610, #729 ) ;
#680 = LINE ( 'NONE', #674, #126 ) ;
#681 = EDGE_LOOP ( 'NONE', ( #128, #1098, #613, #317 ) ) ;
#682 = LINE ( 'NONE', #781, #7 ) ;
#683 = DIRECTION ( 'NONE',  ( 0.7071067811865485719, 0.5792279653395673300, -0.4055797876726398021 ) ) ;
#684 = DIRECTION ( 'NONE',  ( -3.035766082959324852E-15, -0.8191520442889899112, 0.5735764363510490460 ) ) ;
#685 = EDGE_CURVE ( 'NONE', #745, #992, #519, .T. ) ;
#686 = CARTESIAN_POINT ( 'NONE',  ( -0.9030418349076497764, -57.64050747061574498, 66.86858038188290720 ) ) ;
#687 = CARTESIAN_POINT ( 'NONE',  ( -16.65304183490735568, -62.99936918744946013, 11.27054582300000618 ) ) ;
#688 = CARTESIAN_POINT ( 'NONE',  ( 14.84695816509263722, -62.99936918744946013, 11.27054582300016961 ) ) ;
#689 = ORIENTED_EDGE ( 'NONE', *, *, #1080, .F. ) ;
#690 = AXIS2_PLACEMENT_3D ( 'NONE', #842, #569, #228 ) ;
#691 = ADVANCED_FACE ( 'NONE', ( #702 ), #605, .T. ) ;
#692 = AXIS2_PLACEMENT_3D ( 'NONE', #5, #885, #829 ) ;
#693 = DIRECTION ( 'NONE',  ( 4.240451253095732648E-15, -0.5735764363510473807, -0.8191520442889909104 ) ) ;
#694 = CARTESIAN_POINT ( 'NONE',  ( -0.9030418349076629880, -22.55436646747250862, 72.20997738944888056 ) ) ;
#695 = VECTOR ( 'NONE', #1102, 1000.000000000000114 ) ;
#696 = CARTESIAN_POINT ( 'NONE',  ( -0.9030418349076605455, -12.47664296595872635, 85.16792336702056332 ) ) ;
#697 = VECTOR ( 'NONE', #553, 1000.000000000000114 ) ;
#698 = EDGE_LOOP ( 'NONE', ( #815, #533, #827, #217 ) ) ;
#699 = LINE ( 'NONE', #537, #183 ) ;
#700 = CARTESIAN_POINT ( 'NONE',  ( -16.65304183490742673, -83.47817029467422856, 25.60995673177626131 ) ) ;
#701 = EDGE_CURVE ( 'NONE', #656, #438, #679, .T. ) ;
#702 = FACE_OUTER_BOUND ( 'NONE', #391, .T. ) ;
#703 = ORIENTED_EDGE ( 'NONE', *, *, #919, .F. ) ;
#704 = CARTESIAN_POINT ( 'NONE',  ( -0.9030418349075944873, -42.48619465126941463, 56.25741630938855309 ) ) ;
#705 = DIRECTION ( 'NONE',  ( -1.137981474376154927E-15, -0.5735764363510474917, -0.8191520442889909104 ) ) ;
#706 =( NAMED_UNIT ( * ) PLANE_ANGLE_UNIT ( ) SI_UNIT ( $, .RADIAN. ) );
#707 = ADVANCED_FACE ( 'NONE', ( #954 ), #599, .T. ) ;
#708 = EDGE_LOOP ( 'NONE', ( #558, #169, #425, #911 ) ) ;
#709 = PLANE ( 'NONE',  #82 ) ;
#710 = DIRECTION ( 'NONE',  ( -4.881584643547392995E-15, 0.5735764363510474917, 0.8191520442889907994 ) ) ;
#711 = VECTOR ( 'NONE', #879, 1000.000000000000114 ) ;
#712 = AXIS2_PLACEMENT_3D ( 'NONE', #952, #603, #416 ) ;
#713 = FILL_AREA_STYLE_COLOUR ( '', #543 ) ;
#714 = DIRECTION ( 'NONE',  ( 2.977067850650932983E-15, 0.8191520442889909104, -0.5735764363510474917 ) ) ;
#715 = ORIENTED_EDGE ( 'NONE', *, *, #685, .T. ) ;
#716 = CARTESIAN_POINT ( 'NONE',  ( 0.09695816509234106428, -21.63998854385850734, 71.21110719016783719 ) ) ;
#717 = DIRECTION ( 'NONE',  ( -2.977067850650932194E-15, -0.8191520442889909104, 0.5735764363510473807 ) ) ;
#718 = EDGE_LOOP ( 'NONE', ( #664, #554, #1077, #145, #1013, #572 ) ) ;
#719 = CARTESIAN_POINT ( 'NONE',  ( 13.84695816509263544, -56.48856378632621755, 22.31238637452120699 ) ) ;
#720 = LINE ( 'NONE', #983, #886 ) ;
#721 = DIRECTION ( 'NONE',  ( 2.977067850650933377E-15, 0.8191520442889909104, -0.5735764363510474917 ) ) ;
#722 = EDGE_CURVE ( 'NONE', #822, #211, #430, .T. ) ;
#723 = CARTESIAN_POINT ( 'NONE',  ( -0.9030418349075974849, -43.30534669555842697, 56.83099274573962134 ) ) ;
#724 = DIRECTION ( 'NONE',  ( 1.000000000000000000, 0.000000000000000000, 0.000000000000000000 ) ) ;
#725 = ORIENTED_EDGE ( 'NONE', *, *, #973, .T. ) ;
#726 = CARTESIAN_POINT ( 'NONE',  ( 14.84695816509251109, -45.87793979658122367, 35.72248108014441215 ) ) ;
#727 = DIRECTION ( 'NONE',  ( 0.7071067811865423547, -0.5792279653395727701, 0.4055797876726427997 ) ) ;
#728 = EDGE_CURVE ( 'NONE', #170, #899, #979, .T. ) ;
#729 = VECTOR ( 'NONE', #860, 1000.000000000000114 ) ;
#730 = DIRECTION ( 'NONE',  ( -1.000000000000000000, 2.604503967415291815E-15, -1.470742254947881439E-15 ) ) ;
#731 = LINE ( 'NONE', #986, #697 ) ;
#732 = AXIS2_PLACEMENT_3D ( 'NONE', #242, #480, #762 ) ;
#733 = B_SPLINE_CURVE_WITH_KNOTS ( 'NONE', 3,
 ( #989, #205, #716, #803 ),
 .UNSPECIFIED., .F., .F.,
 ( 4, 4 ),
 ( 0.000000000000000000, 0.001059724623435713596 ),
 .UNSPECIFIED. ) ;
#734 = EDGE_LOOP ( 'NONE', ( #397, #291, #237, #622 ) ) ;
#735 = DIRECTION ( 'NONE',  ( 0.000000000000000000, -0.5735764363510473807, -0.8191520442889907994 ) ) ;
#736 = EDGE_CURVE ( 'NONE', #745, #908, #153, .T. ) ;
#737 = LINE ( 'NONE', #645, #44 ) ;
#738 = EDGE_LOOP ( 'NONE', ( #25, #402, #415, #308 ) ) ;
#739 = EDGE_LOOP ( 'NONE', ( #917, #528, #458 ) ) ;
#740 = EDGE_CURVE ( 'NONE', #825, #988, #241, .T. ) ;
#741 = ORIENTED_EDGE ( 'NONE', *, *, #287, .T. ) ;
#742 = ORIENTED_EDGE ( 'NONE', *, *, #215, .T. ) ;
#743 = LINE ( 'NONE', #218, #794 ) ;
#744 = COLOUR_RGB ( '',0.7921568627450980005, 0.8196078431372548767, 0.9333333333333333481 ) ;
#745 = VERTEX_POINT ( 'NONE', #783 ) ;
#746 = DIRECTION ( 'NONE',  ( -2.374927761401669481E-15, -1.000000000000000000, 0.000000000000000000 ) ) ;
#747 = CIRCLE ( 'NONE', #255, 24.50000000000001066 ) ;
#748 = ORIENTED_EDGE ( 'NONE', *, *, #1003, .F. ) ;
#749 = CARTESIAN_POINT ( 'NONE',  ( -16.65304183490752621, -43.30534669555838434, 56.83099274573959292 ) ) ;
#750 = EDGE_LOOP ( 'NONE', ( #337, #254, #380, #19 ) ) ;
#751 = DIRECTION ( 'NONE',  ( 1.000000000000000000, -2.383642718887205709E-15, 1.786164806799841514E-15 ) ) ;
#752 = ADVANCED_FACE ( 'NONE', ( #1026 ), #413, .F. ) ;
#753 = ORIENTED_EDGE ( 'NONE', *, *, #898, .F. ) ;
#754 = CARTESIAN_POINT ( 'NONE',  ( -1.903041834907662322, -22.51872985280155959, 72.13161437995283620 ) ) ;
#755 = DIRECTION ( 'NONE',  ( 0.000000000000000000, -0.8191520442889909104, 0.5735764363510474917 ) ) ;
#756 = ORIENTED_EDGE ( 'NONE', *, *, #1118, .F. ) ;
#757 = CARTESIAN_POINT ( 'NONE',  ( -0.9030418349076579920, -21.20634474524101876, 71.26608241787195652 ) ) ;
#758 = ORIENTED_EDGE ( 'NONE', *, *, #728, .F. ) ;
#759 = DIRECTION ( 'NONE',  ( -2.977067850650932194E-15, -0.8191520442889909104, 0.5735764363510473807 ) ) ;
#760 = DIRECTION ( 'NONE',  ( -0.000000000000000000, 0.5735764363510474917, 0.8191520442889907994 ) ) ;
#761 = ORIENTED_EDGE ( 'NONE', *, *, #420, .T. ) ;
#762 = DIRECTION ( 'NONE',  ( 0.000000000000000000, -0.5735764363510476027, -0.8191520442889909104 ) ) ;
#763 = FACE_OUTER_BOUND ( 'NONE', #447, .T. ) ;
#764 = CARTESIAN_POINT ( 'NONE',  ( 0.09695816509233877445, -22.39667828089988078, 71.43575393423614628 ) ) ;
#765 = DIRECTION ( 'NONE',  ( -1.000000000000000000, -9.462766740208227999E-17, -5.325501719146885530E-15 ) ) ;
#766 = FACE_OUTER_BOUND ( 'NONE', #718, .T. ) ;
#767 = B_SPLINE_CURVE_WITH_KNOTS ( 'NONE', 3,
 ( #652, #660, #555, #52 ),
 .UNSPECIFIED., .F., .F.,
 ( 4, 4 ),
 ( 0.000000000000000000, 0.001490961476619258015 ),
 .UNSPECIFIED. ) ;
#768 = CARTESIAN_POINT ( 'NONE',  ( -15.65304183490752443, -69.79816114969931107, 17.25188579444856884 ) ) ;
#769 = DIRECTION ( 'NONE',  ( 2.222666427916538316E-16, -0.5735764363510474917, -0.8191520442889909104 ) ) ;
#770 = DIRECTION ( 'NONE',  ( -3.035766082959354434E-15, -0.8191520442889909104, 0.5735764363510477137 ) ) ;
#771 = ADVANCED_FACE ( 'NONE', ( #1117 ), #334, .F. ) ;
#772 = ORIENTED_EDGE ( 'NONE', *, *, #227, .T. ) ;
#773 =( LENGTH_UNIT ( ) NAMED_UNIT ( * ) SI_UNIT ( .MILLI., .METRE. ) );
#774 = PLANE ( 'NONE',  #814 ) ;
#775 = CARTESIAN_POINT ( 'NONE',  ( 13.84695816509248978, -51.75074141399896632, 40.41110212339577856 ) ) ;
#776 = LINE ( 'NONE', #417, #250 ) ;
#777 = VECTOR ( 'NONE', #31, 1000.000000000000114 ) ;
#778 = EDGE_CURVE ( 'NONE', #185, #517, #720, .T. ) ;
#779 = CIRCLE ( 'NONE', #873, 24.50000000000002842 ) ;
#780 = ORIENTED_EDGE ( 'NONE', *, *, #210, .F. ) ;
#781 = CARTESIAN_POINT ( 'NONE',  ( -19.15304183490744094, -69.05363367472821778, 50.56894694278345526 ) ) ;
#782 = CIRCLE ( 'NONE', #833, 23.50000000000002842 ) ;
#783 = CARTESIAN_POINT ( 'NONE',  ( -16.65304183490753331, -54.06946023947119784, 41.45824544365478204 ) ) ;
#784 = PRESENTATION_LAYER_ASSIGNMENT (  '', '', ( #830 ) ) ;
#785 = VERTEX_POINT ( 'NONE', #112 ) ;
#786 = EDGE_CURVE ( 'NONE', #431, #174, #792, .T. ) ;
#787 = DIRECTION ( 'NONE',  ( 0.000000000000000000, -0.5735764363510489350, -0.8191520442889898002 ) ) ;
#788 = CARTESIAN_POINT ( 'NONE',  ( 13.84695816509260879, -57.63571665902833985, 20.67408228594323916 ) ) ;
#789 = PLANE ( 'NONE',  #464 ) ;
#790 = APPLICATION_CONTEXT ( 'automotive_design' ) ;
#791 = CARTESIAN_POINT ( 'NONE',  ( -1.903041834907660323, -22.33563241719633297, 71.08782723374407908 ) ) ;
#792 = LINE ( 'NONE', #1056, #810 ) ;
#793 = CARTESIAN_POINT ( 'NONE',  ( -15.65304183490752443, -52.97946948043241377, 41.27146677792219265 ) ) ;
#794 = VECTOR ( 'NONE', #141, 1000.000000000000000 ) ;
#795 = VECTOR ( 'NONE', #422, 1000.000000000000114 ) ;
#796 = DIRECTION ( 'NONE',  ( 0.000000000000000000, -0.5735764363510474917, -0.8191520442889909104 ) ) ;
#797 = CARTESIAN_POINT ( 'NONE',  ( -16.65304183490750844, -58.45486870331723139, 21.24765872229421859 ) ) ;
#798 = EDGE_CURVE ( 'NONE', #438, #646, #106, .T. ) ;
#799 =( GEOMETRIC_REPRESENTATION_CONTEXT ( 3 ) GLOBAL_UNCERTAINTY_ASSIGNED_CONTEXT ( ( #843 ) ) GLOBAL_UNIT_ASSIGNED_CONTEXT ( ( #773, #607, #175 ) ) REPRESENTATION_CONTEXT ( 'NONE', 'WORKASPACE' ) );
#800 = DIRECTION ( 'NONE',  ( 2.927345865710853689E-15, 0.8191520442889937970, -0.5735764363510431618 ) ) ;
#801 = CARTESIAN_POINT ( 'NONE',  ( -0.9030418349076605455, -22.35230309214531630, 71.06401904254465762 ) ) ;
#802 = DIRECTION ( 'NONE',  ( 0.000000000000000000, 0.000000000000000000, 1.000000000000000000 ) ) ;
#803 = CARTESIAN_POINT ( 'NONE',  ( 0.09695816509234186920, -21.29217032706444712, 71.27276815396876941 ) ) ;
#804 = CARTESIAN_POINT ( 'NONE',  ( -15.65304183490749956, -57.63571665902824748, 20.67408228594317876 ) ) ;
#805 = EDGE_CURVE ( 'NONE', #570, #354, #500, .T. ) ;
#806 = PRODUCT_CONTEXT ( 'NONE', #790, 'mechanical' ) ;
#807 = DIRECTION ( 'NONE',  ( -1.000000000000000000, -9.462766740208227999E-17, -5.325501719146885530E-15 ) ) ;
#808 = LINE ( 'NONE', #444, #285 ) ;
#809 = EDGE_CURVE ( 'NONE', #820, #659, #644, .T. ) ;
#810 = VECTOR ( 'NONE', #636, 1000.000000000000114 ) ;
#811 = ORIENTED_EDGE ( 'NONE', *, *, #123, .T. ) ;
#812 = DIRECTION ( 'NONE',  ( 2.977067850650933772E-15, 0.8191520442889909104, -0.5735764363510476027 ) ) ;
#813 = CARTESIAN_POINT ( 'NONE',  ( 17.34695816509264077, -64.43331027832707036, 9.222665712277700933 ) ) ;
#814 = AXIS2_PLACEMENT_3D ( 'NONE', #327, #602, #502 ) ;
#815 = ORIENTED_EDGE ( 'NONE', *, *, #604, .T. ) ;
#816 = ADVANCED_FACE ( 'NONE', ( #628 ), #366, .T. ) ;
#817 = ORIENTED_EDGE ( 'NONE', *, *, #798, .F. ) ;
#818 = CARTESIAN_POINT ( 'NONE',  ( -19.15304183490735923, -46.52695245678092562, 34.79559494312962897 ) ) ;
#819 = DIRECTION ( 'NONE',  ( 3.979986037621292625E-15, 0.5735764363510474917, 0.8191520442889909104 ) ) ;
#820 = VERTEX_POINT ( 'NONE', #274 ) ;
#821 = DIRECTION ( 'NONE',  ( -1.183203222904015891E-16, -0.5735764363510472696, -0.8191520442889909104 ) ) ;
#822 = VERTEX_POINT ( 'NONE', #351 ) ;
#823 = CARTESIAN_POINT ( 'NONE',  ( -1.903041834907661212, -22.39667828089988078, 71.43575393423614628 ) ) ;
#824 =( NAMED_UNIT ( * ) SI_UNIT ( $, .STERADIAN. ) SOLID_ANGLE_UNIT ( ) );
#825 = VERTEX_POINT ( 'NONE', #362 ) ;
#826 = CARTESIAN_POINT ( 'NONE',  ( -1.903041834907662322, -22.51872985280155959, 72.13161437995283620 ) ) ;
#827 = ORIENTED_EDGE ( 'NONE', *, *, #264, .F. ) ;
#828 = AXIS2_PLACEMENT_3D ( 'NONE', #329, #948, #75 ) ;
#829 = DIRECTION ( 'NONE',  ( 2.958228394578793920E-30, 0.5735764363510480468, 0.8191520442889905773 ) ) ;
#830 = STYLED_ITEM ( 'NONE', ( #396 ), #563 ) ;
#831 = ADVANCED_FACE ( 'NONE', ( #552 ), #189, .F. ) ;
#832 = ORIENTED_EDGE ( 'NONE', *, *, #76, .T. ) ;
#833 = AXIS2_PLACEMENT_3D ( 'NONE', #704, #684, #414 ) ;
#834 = VECTOR ( 'NONE', #279, 1000.000000000000227 ) ;
#835 = ORIENTED_EDGE ( 'NONE', *, *, #1009, .F. ) ;
#836 = CARTESIAN_POINT ( 'NONE',  ( -19.15304183490735568, -64.43331027832699931, 9.222665712277635208 ) ) ;
#837 = ORIENTED_EDGE ( 'NONE', *, *, #1036, .T. ) ;
#838 = LINE ( 'NONE', #487, #695 ) ;
#839 = EDGE_CURVE ( 'NONE', #899, #1083, #733, .T. ) ;
#840 = ORIENTED_EDGE ( 'NONE', *, *, #204, .F. ) ;
#841 = CARTESIAN_POINT ( 'NONE',  ( -16.65304183490735568, -62.99936918744946013, 11.27054582300000618 ) ) ;
#842 = CARTESIAN_POINT ( 'NONE',  ( -15.65304183490752088, -51.75074141399895211, 40.41110212339562935 ) ) ;
#843 = UNCERTAINTY_MEASURE_WITH_UNIT (LENGTH_MEASURE( 1.000000000000000082E-05 ), #773, 'distance_accuracy_value', 'NONE');
#844 = ORIENTED_EDGE ( 'NONE', *, *, #1126, .F. ) ;
#845 = ADVANCED_FACE ( 'NONE', ( #208 ), #709, .T. ) ;
#846 = ORIENTED_EDGE ( 'NONE', *, *, #937, .T. ) ;
#847 = PLANE ( 'NONE',  #386 ) ;
#848 = CARTESIAN_POINT ( 'NONE',  ( 0.09695816509233741443, -22.51872985280156669, 72.13161437995283620 ) ) ;
#849 =( GEOMETRIC_REPRESENTATION_CONTEXT ( 3 ) GLOBAL_UNCERTAINTY_ASSIGNED_CONTEXT ( ( #229 ) ) GLOBAL_UNIT_ASSIGNED_CONTEXT ( ( #395, #226, #315 ) ) REPRESENTATION_CONTEXT ( 'NONE', 'WORKASPACE' ) );
#850 = VECTOR ( 'NONE', #714, 1000.000000000000114 ) ;
#851 = ORIENTED_EDGE ( 'NONE', *, *, #258, .F. ) ;
#852 = DIRECTION ( 'NONE',  ( 4.242329511654282871E-15, -0.5735764363510476027, -0.8191520442889906883 ) ) ;
#853 = DIRECTION ( 'NONE',  ( 1.000000000000000000, -2.594139420442319921E-15, 1.485544362048115703E-15 ) ) ;
#854 = DIRECTION ( 'NONE',  ( -2.977067850650932194E-15, -0.8191520442889909104, 0.5735764363510473807 ) ) ;
#855 = ADVANCED_FACE ( 'NONE', ( #442 ), #99, .T. ) ;
#856 = CARTESIAN_POINT ( 'NONE',  ( -0.9030418349075974849, -43.30534669555842697, 56.83099274573962134 ) ) ;
#857 = SURFACE_SIDE_STYLE ('',( #419 ) ) ;
#858 = CARTESIAN_POINT ( 'NONE',  ( -11.40304183490758305, -63.87906510697919060, 18.29558212818472285 ) ) ;
#859 = FACE_OUTER_BOUND ( 'NONE', #998, .T. ) ;
#860 = DIRECTION ( 'NONE',  ( 4.683753385137376631E-14, 0.5735764363510480468, 0.8191520442889905773 ) ) ;
#861 = ADVANCED_FACE ( 'NONE', ( #529 ), #15, .F. ) ;
#862 = ORIENTED_EDGE ( 'NONE', *, *, #671, .T. ) ;
#863 = CARTESIAN_POINT ( 'NONE',  ( -0.5672382583868308403, -22.55436646747250862, 72.20997738944888056 ) ) ;
#864 = LINE ( 'NONE', #322, #795 ) ;
#865 = CARTESIAN_POINT ( 'NONE',  ( 17.34695816509264077, -64.43331027832707036, 9.222665712277700933 ) ) ;
#866 = ORIENTED_EDGE ( 'NONE', *, *, #227, .F. ) ;
#867 = CARTESIAN_POINT ( 'NONE',  ( -16.65304183490737699, -69.14300951961696740, 15.57236909563290617 ) ) ;
#868 = EDGE_CURVE ( 'NONE', #564, #105, #348, .T. ) ;
#869 = AXIS2_PLACEMENT_3D ( 'NONE', #246, #940, #161 ) ;
#870 = FILL_AREA_STYLE ('',( #713 ) ) ;
#871 = AXIS2_PLACEMENT_3D ( 'NONE', #239, #853, #585 ) ;
#872 = DIRECTION ( 'NONE',  ( 2.977067850650933772E-15, 0.8191520442889909104, -0.5735764363510476027 ) ) ;
#873 = AXIS2_PLACEMENT_3D ( 'NONE', #290, #113, #455 ) ;
#874 = ORIENTED_EDGE ( 'NONE', *, *, #778, .F. ) ;
#875 = DIRECTION ( 'NONE',  ( -1.000000000000000000, -0.000000000000000000, -5.066493961583056968E-15 ) ) ;
#876 = SURFACE_STYLE_FILL_AREA ( #870 ) ;
#877 = CARTESIAN_POINT ( 'NONE',  ( 0.000000000000000000, 0.000000000000000000, 0.000000000000000000 ) ) ;
#878 = ORIENTED_EDGE ( 'NONE', *, *, #809, .T. ) ;
#879 = DIRECTION ( 'NONE',  ( -0.7071067811865475727, 0.5792279653395688843, -0.4055797876726391915 ) ) ;
#880 = CARTESIAN_POINT ( 'NONE',  ( 14.84695816509258748, -57.30771583061520857, 22.88596281087225393 ) ) ;
#881 = ORIENTED_EDGE ( 'NONE', *, *, #393, .T. ) ;
#882 = FACE_OUTER_BOUND ( 'NONE', #904, .T. ) ;
#883 = EDGE_CURVE ( 'NONE', #988, #30, #119, .T. ) ;
#884 = CARTESIAN_POINT ( 'NONE',  ( -1.903041834907663432, -23.15478446148529912, 71.66140367009511181 ) ) ;
#885 = DIRECTION ( 'NONE',  ( 0.7071067811865474617, 0.5792279653395684402, -0.4055797876726402462 ) ) ;
#886 = VECTOR ( 'NONE', #1062, 1000.000000000000114 ) ;
#887 = CARTESIAN_POINT ( 'NONE',  ( 14.84695816509248800, -52.02158012874849646, 40.02430435277715048 ) ) ;
#888 = EDGE_CURVE ( 'NONE', #1123, #822, #20, .T. ) ;
#889 = EDGE_LOOP ( 'NONE', ( #465, #1061, #551, #780 ) ) ;
#890 = DIRECTION ( 'NONE',  ( 3.665948563525599525E-14, 0.000000000000000000, 1.000000000000000000 ) ) ;
#891 = VECTOR ( 'NONE', #852, 1000.000000000000227 ) ;
#892 = CARTESIAN_POINT ( 'NONE',  ( -16.65304183490753331, -54.06946023947119784, 41.45824544365478204 ) ) ;
#893 = ORIENTED_EDGE ( 'NONE', *, *, #1015, .F. ) ;
#894 = DIRECTION ( 'NONE',  ( 1.000000000000000000, -5.370972726200057222E-18, 5.182688860570757449E-15 ) ) ;
#895 = ORIENTED_EDGE ( 'NONE', *, *, #883, .T. ) ;
#896 = DIRECTION ( 'NONE',  ( 0.000000000000000000, 0.8191520442889909104, -0.5735764363510474917 ) ) ;
#897 = CARTESIAN_POINT ( 'NONE',  ( 14.84695816509259281, -55.66941174203723364, 21.73880993817015650 ) ) ;
#898 = EDGE_CURVE ( 'NONE', #1123, #211, #95, .T. ) ;
#899 = VERTEX_POINT ( 'NONE', #212 ) ;
#900 = EDGE_LOOP ( 'NONE', ( #753, #346, #1004 ) ) ;
#901 = DIRECTION ( 'NONE',  ( 0.000000000000000000, -0.5735764363510473807, -0.8191520442889907994 ) ) ;
#902 = LINE ( 'NONE', #449, #925 ) ;
#903 = EDGE_CURVE ( 'NONE', #992, #912, #767, .T. ) ;
#904 = EDGE_LOOP ( 'NONE', ( #296, #376, #280, #1108 ) ) ;
#905 = DIRECTION ( 'NONE',  ( -2.977067850650932194E-15, -0.8191520442889909104, 0.5735764363510473807 ) ) ;
#906 = CLOSED_SHELL ( 'NONE', ( #691, #50, #1058, #194, #32, #18, #861, #931, #86, #156, #143, #249, #364, #440, #574, #914, #771, #831, #633, #1089, #549, #114, #313, #596 ) ) ;
#907 = ORIENTED_EDGE ( 'NONE', *, *, #76, .F. ) ;
#908 = VERTEX_POINT ( 'NONE', #490 ) ;
#909 = PLANE ( 'NONE',  #197 ) ;
#910 = CARTESIAN_POINT ( 'NONE',  ( -16.65304183490750134, -56.81656461473924935, 20.10050584959212472 ) ) ;
#911 = ORIENTED_EDGE ( 'NONE', *, *, #898, .T. ) ;
#912 = VERTEX_POINT ( 'NONE', #131 ) ;
#913 = FILL_AREA_STYLE ('',( #136 ) ) ;
#914 = ADVANCED_FACE ( 'NONE', ( #26 ), #909, .F. ) ;
#915 = DIRECTION ( 'NONE',  ( 0.000000000000000000, 0.5735764363510471586, 0.8191520442889910214 ) ) ;
#916 = ORIENTED_EDGE ( 'NONE', *, *, #276, .T. ) ;
#917 = ORIENTED_EDGE ( 'NONE', *, *, #243, .T. ) ;
#918 = LINE ( 'NONE', #292, #157 ) ;
#919 = EDGE_CURVE ( 'NONE', #225, #36, #580, .T. ) ;
#920 = CARTESIAN_POINT ( 'NONE',  ( -15.65304183490750312, -57.63571665902824748, 20.67408228594317521 ) ) ;
#921 = CIRCLE ( 'NONE', #484, 24.50000000000001066 ) ;
#922 = ORIENTED_EDGE ( 'NONE', *, *, #55, .F. ) ;
#923 = CARTESIAN_POINT ( 'NONE',  ( -1.903041834907658103, -21.29217032706442936, 71.27276815396875520 ) ) ;
#924 = AXIS2_PLACEMENT_3D ( 'NONE', #723, #271, #787 ) ;
#925 = VECTOR ( 'NONE', #977, 1000.000000000000227 ) ;
#926 = DIRECTION ( 'NONE',  ( 0.000000000000000000, -0.5735764363510473807, -0.8191520442889909104 ) ) ;
#927 = DIRECTION ( 'NONE',  ( -2.977067850650932983E-15, -0.8191520442889907994, 0.5735764363510474917 ) ) ;
#928 = CARTESIAN_POINT ( 'NONE',  ( 14.84695816509251287, -45.87793979658122367, 35.72248108014440504 ) ) ;
#929 = ORIENTED_EDGE ( 'NONE', *, *, #1015, .T. ) ;
#930 = DIRECTION ( 'NONE',  ( -2.977067850650932588E-15, -0.8191520442889910214, 0.5735764363510473807 ) ) ;
#931 = ADVANCED_FACE ( 'NONE', ( #37 ), #309, .F. ) ;
#932 = CARTESIAN_POINT ( 'NONE',  ( -0.9030418349076629880, -22.55436646747250862, 72.20997738944888056 ) ) ;
#933 = LINE ( 'NONE', #240, #997 ) ;
#934 = DIRECTION ( 'NONE',  ( 0.7071067811865451302, -0.5792279653395704386, 0.4055797876726416340 ) ) ;
#935 = ORIENTED_EDGE ( 'NONE', *, *, #293, .F. ) ;
#936 = LINE ( 'NONE', #155, #236 ) ;
#937 = EDGE_CURVE ( 'NONE', #30, #225, #125, .T. ) ;
#938 = DIRECTION ( 'NONE',  ( 0.000000000000000000, 0.8191520442889909104, -0.5735764363510473807 ) ) ;
#939 = DIRECTION ( 'NONE',  ( 0.000000000000000000, 0.8191520442889909104, -0.5735764363510473807 ) ) ;
#940 = DIRECTION ( 'NONE',  ( -0.7071067811865527908, -0.5792279653395641104, 0.4055797876726372486 ) ) ;
#941 = AXIS2_PLACEMENT_3D ( 'NONE', #592, #72, #1021 ) ;
#942 = VECTOR ( 'NONE', #854, 1000.000000000000114 ) ;
#943 = ORIENTED_EDGE ( 'NONE', *, *, #428, .T. ) ;
#944 = FILL_AREA_STYLE ('',( #1048 ) ) ;
#945 = MANIFOLD_SOLID_BREP ( 'Chamfer4', #1086 ) ;
#946 = LINE ( 'NONE', #858, #270 ) ;
#947 = CARTESIAN_POINT ( 'NONE',  ( -0.9030418349076634321, -22.69950765064578491, 72.31160634001149390 ) ) ;
#948 = DIRECTION ( 'NONE',  ( 1.000000000000000000, -2.438671215847742689E-15, 1.707575968551635962E-15 ) ) ;
#949 = EDGE_LOOP ( 'NONE', ( #1094, #165, #486, #260 ) ) ;
#950 = PLANE ( 'NONE',  #1071 ) ;
#951 = ORIENTED_EDGE ( 'NONE', *, *, #1051, .T. ) ;
#952 = CARTESIAN_POINT ( 'NONE',  ( -0.9030418349076574369, -11.65749092166971579, 84.59434693066950217 ) ) ;
#953 = EDGE_CURVE ( 'NONE', #570, #301, #1011, .T. ) ;
#954 = FACE_OUTER_BOUND ( 'NONE', #708, .T. ) ;
#955 = ORIENTED_EDGE ( 'NONE', *, *, #359, .F. ) ;
#956 = FACE_OUTER_BOUND ( 'NONE', #900, .T. ) ;
#957 = DIRECTION ( 'NONE',  ( -4.242329511654283660E-15, 0.5735764363510473807, 0.8191520442889909104 ) ) ;
#958 = FACE_OUTER_BOUND ( 'NONE', #1059, .T. ) ;
#959 = ORIENTED_EDGE ( 'NONE', *, *, #24, .T. ) ;
#960 = AXIS2_PLACEMENT_3D ( 'NONE', #534, #269, #901 ) ;
#961 = LINE ( 'NONE', #1027, #341 ) ;
#962 =( GEOMETRIC_REPRESENTATION_CONTEXT ( 3 ) GLOBAL_UNCERTAINTY_ASSIGNED_CONTEXT ( ( #667 ) ) GLOBAL_UNIT_ASSIGNED_CONTEXT ( ( #968, #706, #2 ) ) REPRESENTATION_CONTEXT ( 'NONE', 'WORKASPACE' ) );
#963 = FACE_OUTER_BOUND ( 'NONE', #1041, .T. ) ;
#964 = CARTESIAN_POINT ( 'NONE',  ( -16.65304183490738410, -71.19088963033944140, 17.00631018651052528 ) ) ;
#965 = FACE_OUTER_BOUND ( 'NONE', #247, .T. ) ;
#966 = EDGE_CURVE ( 'NONE', #180, #1090, #678, .T. ) ;
#967 = LINE ( 'NONE', #631, #286 ) ;
#968 =( LENGTH_UNIT ( ) NAMED_UNIT ( * ) SI_UNIT ( .MILLI., .METRE. ) );
#969 = EDGE_LOOP ( 'NONE', ( #377, #583, #1033, #742 ) ) ;
#970 = DIRECTION ( 'NONE',  ( 2.977067850650932983E-15, 0.8191520442889909104, -0.5735764363510474917 ) ) ;
#971 = DIRECTION ( 'NONE',  ( -2.146610783356687013E-15, -0.9848077530122087975, -0.1736481776669263621 ) ) ;
#972 = ORIENTED_EDGE ( 'NONE', *, *, #740, .T. ) ;
#973 = EDGE_CURVE ( 'NONE', #646, #468, #918, .T. ) ;
#974 = SURFACE_STYLE_USAGE ( .BOTH. , #89 ) ;
#975 = ORIENTED_EDGE ( 'NONE', *, *, #352, .T. ) ;
#976 = DIRECTION ( 'NONE',  ( 0.000000000000000000, 0.5735764363510474917, 0.8191520442889909104 ) ) ;
#977 = DIRECTION ( 'NONE',  ( -0.7071067811865500152, -0.5792279653395664418, 0.4055797876726383588 ) ) ;
#978 = VERTEX_POINT ( 'NONE', #1091 ) ;
#979 = CIRCLE ( 'NONE', #941, 17.21768800164301538 ) ;
#980 = CARTESIAN_POINT ( 'NONE',  ( 17.34695816509255550, -69.05363367472807568, 50.56894694278382474 ) ) ;
#981 = VECTOR ( 'NONE', #101, 1000.000000000000227 ) ;
#982 = ORIENTED_EDGE ( 'NONE', *, *, #736, .T. ) ;
#983 = CARTESIAN_POINT ( 'NONE',  ( 13.84695816509248623, -68.56943308326590625, 16.39152113992205884 ) ) ;
#984 = EDGE_CURVE ( 'NONE', #590, #646, #743, .T. ) ;
#985 = STYLED_ITEM ( 'NONE', ( #429 ), #192 ) ;
#986 = CARTESIAN_POINT ( 'NONE',  ( 14.84695816509258748, -58.45486870331731666, 21.24765872229427188 ) ) ;
#987 = ORIENTED_EDGE ( 'NONE', *, *, #342, .F. ) ;
#988 = VERTEX_POINT ( 'NONE', #670 ) ;
#989 = CARTESIAN_POINT ( 'NONE',  ( 0.09695816509233870506, -22.33563241719633652, 71.08782723374407908 ) ) ;
#990 = EDGE_CURVE ( 'NONE', #220, #564, #561, .T. ) ;
#991 = DIRECTION ( 'NONE',  ( 0.000000000000000000, -0.8191520442889907994, 0.5735764363510474917 ) ) ;
#992 = VERTEX_POINT ( 'NONE', #166 ) ;
#993 = DIRECTION ( 'NONE',  ( 0.000000000000000000, -0.5735764363510474917, -0.8191520442889909104 ) ) ;
#994 = FACE_OUTER_BOUND ( 'NONE', #40, .T. ) ;
#995 = ORIENTED_EDGE ( 'NONE', *, *, #420, .F. ) ;
#996 = AXIS2_PLACEMENT_3D ( 'NONE', #688, #459, #117 ) ;
#997 = VECTOR ( 'NONE', #496, 1000.000000000000114 ) ;
#998 = EDGE_LOOP ( 'NONE', ( #266, #207, #12, #758 ) ) ;
#999 = CARTESIAN_POINT ( 'NONE',  ( -1.903041834907660323, -22.33563241719633297, 71.08782723374407908 ) ) ;
#1000 = LINE ( 'NONE', #148, #61 ) ;
#1001 = VECTOR ( 'NONE', #332, 1000.000000000000114 ) ;
#1002 = EDGE_LOOP ( 'NONE', ( #844, #151, #111, #456 ) ) ;
#1003 = EDGE_CURVE ( 'NONE', #36, #135, #1130, .T. ) ;
#1004 = ORIENTED_EDGE ( 'NONE', *, *, #722, .T. ) ;
#1005 = DIRECTION ( 'NONE',  ( -2.977067850650933377E-15, -0.8191520442889909104, 0.5735764363510474917 ) ) ;
#1006 = DIRECTION ( 'NONE',  ( -2.977067850650932194E-15, -0.8191520442889909104, 0.5735764363510473807 ) ) ;
#1007 = ORIENTED_EDGE ( 'NONE', *, *, #494, .T. ) ;
#1008 = CARTESIAN_POINT ( 'NONE',  ( -0.9030418349076629880, -22.55436646747250862, 72.20997738944888056 ) ) ;
#1009 = EDGE_CURVE ( 'NONE', #659, #1087, #1112, .T. ) ;
#1010 = ORIENTED_EDGE ( 'NONE', *, *, #434, .T. ) ;
#1011 = LINE ( 'NONE', #573, #653 ) ;
#1012 = ORIENTED_EDGE ( 'NONE', *, *, #129, .F. ) ;
#1013 = ORIENTED_EDGE ( 'NONE', *, *, #663, .T. ) ;
#1014 = AXIS2_PLACEMENT_3D ( 'NONE', #424, #934, #1135 ) ;
#1015 = EDGE_CURVE ( 'NONE', #988, #120, #1020, .T. ) ;
#1016 = PRODUCT_DEFINITION_CONTEXT ( 'detailed design', #41, 'design' ) ;
#1017 = EDGE_LOOP ( 'NONE', ( #878, #311, #1101, #492 ) ) ;
#1018 = AXIS2_PLACEMENT_3D ( 'NONE', #1065, #350, #1043 ) ;
#1019 = ORIENTED_EDGE ( 'NONE', *, *, #38, .F. ) ;
#1020 = LINE ( 'NONE', #328, #942 ) ;
#1021 = DIRECTION ( 'NONE',  ( 0.000000000000000000, 0.5735764363510474917, 0.8191520442889907994 ) ) ;
#1022 = EDGE_CURVE ( 'NONE', #662, #899, #201, .T. ) ;
#1023 = CARTESIAN_POINT ( 'NONE',  ( -15.65304183490752088, -68.56943308326583519, 16.39152113992200910 ) ) ;
#1024 = ORIENTED_EDGE ( 'NONE', *, *, #903, .F. ) ;
#1025 = PLANE ( 'NONE',  #1054 ) ;
#1026 = FACE_OUTER_BOUND ( 'NONE', #738, .T. ) ;
#1027 = CARTESIAN_POINT ( 'NONE',  ( -16.65304183490748713, -45.87793979658122367, 35.72248108014425583 ) ) ;
#1028 = VERTEX_POINT ( 'NONE', #514 ) ;
#1029 = CARTESIAN_POINT ( 'NONE',  ( 0.09695816509233870506, -22.33563241719633652, 71.08782723374407908 ) ) ;
#1030 = CARTESIAN_POINT ( 'NONE',  ( 0.09695816509234186920, -21.29217032706444712, 71.27276815396876941 ) ) ;
#1031 = AXIS2_PLACEMENT_3D ( 'NONE', #696, #770, #1131 ) ;
#1032 = VECTOR ( 'NONE', #1120, 1000.000000000000114 ) ;
#1033 = ORIENTED_EDGE ( 'NONE', *, *, #990, .T. ) ;
#1034 = CARTESIAN_POINT ( 'NONE',  ( 14.84695816509256261, -83.47817029467422856, 25.60995673177644605 ) ) ;
#1035 = AXIS2_PLACEMENT_3D ( 'NONE', #347, #705, #356 ) ;
#1036 = EDGE_CURVE ( 'NONE', #992, #79, #864, .T. ) ;
#1037 = AXIS2_PLACEMENT_3D ( 'NONE', #421, #693, #938 ) ;
#1038 = ORIENTED_EDGE ( 'NONE', *, *, #1022, .T. ) ;
#1039 = LINE ( 'NONE', #257, #850 ) ;
#1040 = CARTESIAN_POINT ( 'NONE',  ( -0.9030418349076579920, -21.20634474524101876, 71.26608241787195652 ) ) ;
#1041 = EDGE_LOOP ( 'NONE', ( #130, #567, #69, #975 ) ) ;
#1042 = CARTESIAN_POINT ( 'NONE',  ( -19.15304183490745160, -69.05363367472820357, 50.56894694278346236 ) ) ;
#1043 = DIRECTION ( 'NONE',  ( 0.000000000000000000, -0.8191520442889909104, 0.5735764363510474917 ) ) ;
#1044 = CARTESIAN_POINT ( 'NONE',  ( 14.84695816509263722, -62.99936918744946013, 11.27054582300016961 ) ) ;
#1045 = EDGE_CURVE ( 'NONE', #295, #36, #682, .T. ) ;
#1046 = CARTESIAN_POINT ( 'NONE',  ( -1.358695326173282814, -48.62081446566969589, 20.98602339465955424 ) ) ;
#1047 = ORIENTED_EDGE ( 'NONE', *, *, #1003, .T. ) ;
#1048 = FILL_AREA_STYLE_COLOUR ( '', #578 ) ;
#1049 = EDGE_LOOP ( 'NONE', ( #77, #223, #94, #846 ) ) ;
#1050 = DIRECTION ( 'NONE',  ( -1.000000000000000000, -0.000000000000000000, -5.066493961583056968E-15 ) ) ;
#1051 = EDGE_CURVE ( 'NONE', #517, #912, #933, .T. ) ;
#1052 = AXIS2_PLACEMENT_3D ( 'NONE', #469, #374, #735 ) ;
#1053 = CARTESIAN_POINT ( 'NONE',  ( 13.84695816509248978, -51.75074141399896632, 40.41110212339577856 ) ) ;
#1054 = AXIS2_PLACEMENT_3D ( 'NONE', #406, #508, #245 ) ;
#1055 = LINE ( 'NONE', #623, #1110 ) ;
#1056 = CARTESIAN_POINT ( 'NONE',  ( 13.84695816509261235, -56.48856378632623887, 22.31238637452122475 ) ) ;
#1057 = DIRECTION ( 'NONE',  ( -2.977067850650932588E-15, -0.8191520442889910214, 0.5735764363510473807 ) ) ;
#1058 = ADVANCED_FACE ( 'NONE', ( #586 ), #847, .T. ) ;
#1059 = EDGE_LOOP ( 'NONE', ( #817, #441, #995, #214 ) ) ;
#1060 = CARTESIAN_POINT ( 'NONE',  ( 13.84695816509248623, -68.56943308326590625, 16.39152113992205884 ) ) ;
#1061 = ORIENTED_EDGE ( 'NONE', *, *, #809, .F. ) ;
#1062 = DIRECTION ( 'NONE',  ( -2.977067850650932983E-15, -0.8191520442889907994, 0.5735764363510474917 ) ) ;
#1063 = DIRECTION ( 'NONE',  ( 4.683753385137376631E-14, 0.5735764363510480468, 0.8191520442889905773 ) ) ;
#1064 = EDGE_LOOP ( 'NONE', ( #715, #837, #943, #560 ) ) ;
#1065 = CARTESIAN_POINT ( 'NONE',  ( -16.65304183490741607, -57.30771583061514463, 22.88596281087220063 ) ) ;
#1066 = DIRECTION ( 'NONE',  ( -2.977067850650932588E-15, -0.8191520442889910214, 0.5735764363510473807 ) ) ;
#1067 = PLANE ( 'NONE',  #427 ) ;
#1068 = AXIS2_PLACEMENT_3D ( 'NONE', #548, #1066, #1070 ) ;
#1069 = ADVANCED_FACE ( 'NONE', ( #1116 ), #1025, .T. ) ;
#1070 = DIRECTION ( 'NONE',  ( 0.000000000000000000, -0.5735764363510473807, -0.8191520442889907994 ) ) ;
#1071 = AXIS2_PLACEMENT_3D ( 'NONE', #499, #67, #1124 ) ;
#1072 = MECHANICAL_DESIGN_GEOMETRIC_PRESENTATION_REPRESENTATION (  '', ( #830 ), #200 ) ;
#1073 = DIRECTION ( 'NONE',  ( -1.111333213958255353E-16, 0.5735764363510474917, 0.8191520442889907994 ) ) ;
#1074 = ORIENTED_EDGE ( 'NONE', *, *, #516, .T. ) ;
#1075 = SURFACE_STYLE_USAGE ( .BOTH. , #475 ) ;
#1076 = LINE ( 'NONE', #206, #981 ) ;
#1077 = ORIENTED_EDGE ( 'NONE', *, *, #234, .F. ) ;
#1078 = ORIENTED_EDGE ( 'NONE', *, *, #476, .F. ) ;
#1079 =( NAMED_UNIT ( * ) PLANE_ANGLE_UNIT ( ) SI_UNIT ( $, .RADIAN. ) );
#1080 = EDGE_CURVE ( 'NONE', #174, #822, #598, .T. ) ;
#1081 = ORIENTED_EDGE ( 'NONE', *, *, #243, .F. ) ;
#1082 =( LENGTH_UNIT ( ) NAMED_UNIT ( * ) SI_UNIT ( .MILLI., .METRE. ) );
#1083 = VERTEX_POINT ( 'NONE', #80 ) ;
#1084 = DIRECTION ( 'NONE',  ( -1.972152263052529076E-31, -0.5735764363510474917, -0.8191520442889907994 ) ) ;
#1085 = PRODUCT ( 'cap', 'cap', '', ( #806 ) ) ;
#1086 = CLOSED_SHELL ( 'NONE', ( #707, #612, #173, #1069, #526 ) ) ;
#1087 = VERTEX_POINT ( 'NONE', #700 ) ;
#1088 = CARTESIAN_POINT ( 'NONE',  ( -0.9030418349075678419, -35.11382625266845992, 51.09522838222908803 ) ) ;
#1089 = ADVANCED_FACE ( 'NONE', ( #252 ), #177, .F. ) ;
#1090 = VERTEX_POINT ( 'NONE', #1105 ) ;
#1091 = CARTESIAN_POINT ( 'NONE',  ( -16.65304183490750134, -45.87793979658120946, 35.72248108014425583 ) ) ;
#1092 = SURFACE_STYLE_FILL_AREA ( #666 ) ;
#1093 = UNCERTAINTY_MEASURE_WITH_UNIT (LENGTH_MEASURE( 1.000000000000000082E-05 ), #557, 'distance_accuracy_value', 'NONE');
#1094 = ORIENTED_EDGE ( 'NONE', *, *, #371, .F. ) ;
#1095 = CARTESIAN_POINT ( 'NONE',  ( -1.238845411428483922, -21.20634474524101876, 71.26608241787195652 ) ) ;
#1096 = PRODUCT_DEFINITION ( 'UNKNOWN', '', #654, #1016 ) ;
#1097 = ADVANCED_FACE ( 'NONE', ( #859 ), #443, .T. ) ;
#1098 = ORIENTED_EDGE ( 'NONE', *, *, #307, .T. ) ;
#1099 = DIRECTION ( 'NONE',  ( 4.242329511654282871E-15, -0.5735764363510476027, -0.8191520442889906883 ) ) ;
#1100 = B_SPLINE_CURVE_WITH_KNOTS ( 'NONE', 3,
 ( #826, #238, #306, #1008 ),
 .UNSPECIFIED., .F., .F.,
 ( 4, 4 ),
 ( -0.001003698525236782152, -3.903127820947815962E-18 ),
 .UNSPECIFIED. ) ;
#1101 = ORIENTED_EDGE ( 'NONE', *, *, #642, .T. ) ;
#1102 = DIRECTION ( 'NONE',  ( 2.977067850650932983E-15, 0.8191520442889909104, -0.5735764363510474917 ) ) ;
#1103 = AXIS2_PLACEMENT_3D ( 'NONE', #127, #819, #755 ) ;
#1104 = CARTESIAN_POINT ( 'NONE',  ( -15.65304183490752088, -68.56943308326583519, 16.39152113992200555 ) ) ;
#1105 = CARTESIAN_POINT ( 'NONE',  ( -1.903041834907662322, -22.51872985280155959, 72.13161437995283620 ) ) ;
#1106 = EDGE_CURVE ( 'NONE', #1132, #453, #159, .T. ) ;
#1107 = DIRECTION ( 'NONE',  ( -0.7071067811865568986, -0.5792279653395607797, 0.4055797876726345286 ) ) ;
#1108 = ORIENTED_EDGE ( 'NONE', *, *, #990, .F. ) ;
#1109 = CARTESIAN_POINT ( 'NONE',  ( 14.84695816509263722, -62.99936918744946013, 11.27054582300016961 ) ) ;
#1110 = VECTOR ( 'NONE', #446, 1000.000000000000114 ) ;
#1111 = DIRECTION ( 'NONE',  ( -2.977067850650931800E-15, -0.8191520442889909104, 0.5735764363510473807 ) ) ;
#1112 = LINE ( 'NONE', #687, #320 ) ;
#1113 = DIRECTION ( 'NONE',  ( 0.000000000000000000, 0.5735764363510474917, 0.8191520442889906883 ) ) ;
#1114 = LINE ( 'NONE', #594, #639 ) ;
#1115 = FACE_OUTER_BOUND ( 'NONE', #593, .T. ) ;
#1116 = FACE_OUTER_BOUND ( 'NONE', #154, .T. ) ;
#1117 = FACE_OUTER_BOUND ( 'NONE', #483, .T. ) ;
#1118 = EDGE_CURVE ( 'NONE', #354, #912, #74, .T. ) ;
#1119 = CARTESIAN_POINT ( 'NONE',  ( 14.84695816509243649, -66.35674090380599921, 50.06189198892059267 ) ) ;
#1120 = DIRECTION ( 'NONE',  ( -2.977067850650932983E-15, -0.8191520442889907994, 0.5735764363510474917 ) ) ;
#1121 = DIRECTION ( 'NONE',  ( -5.325501719146885530E-15, 0.000000000000000000, 1.000000000000000000 ) ) ;
#1122 = VECTOR ( 'NONE', #278, 1000.000000000000000 ) ;
#1123 = VERTEX_POINT ( 'NONE', #70 ) ;
#1124 = DIRECTION ( 'NONE',  ( -2.506536964654980299E-15, -1.000000000000000000, 0.000000000000000000 ) ) ;
#1125 = AXIS2_PLACEMENT_3D ( 'NONE', #629, #363, #16 ) ;
#1126 = EDGE_CURVE ( 'NONE', #325, #79, #412, .T. ) ;
#1127 = VECTOR ( 'NONE', #710, 1000.000000000000227 ) ;
#1128 = VECTOR ( 'NONE', #1073, 1000.000000000000114 ) ;
#1129 = PLANE ( 'NONE',  #1018 ) ;
#1130 = LINE ( 'NONE', #152, #64 ) ;
#1131 = DIRECTION ( 'NONE',  ( 0.000000000000000000, 0.5735764363510474917, 0.8191520442889907994 ) ) ;
#1132 = VERTEX_POINT ( 'NONE', #694 ) ;
#1133 = DIRECTION ( 'NONE',  ( 0.000000000000000000, 0.5735764363510474917, 0.8191520442889907994 ) ) ;
#1134 = EDGE_CURVE ( 'NONE', #656, #618, #1039, .T. ) ;
#1135 = DIRECTION ( 'NONE',  ( 2.958228394578793920E-30, 0.5735764363510480468, 0.8191520442889905773 ) ) ;
#1136 = DIRECTION ( 'NONE',  ( 1.000000000000000000, -2.383642718887205709E-15, 1.786164806799841514E-15 ) ) ;
ENDSEC;
END-ISO-10303-21;
